<svg width="132" height="208" viewBox="0 0 132 208" fill="none" xmlns="http://www.w3.org/2000/svg">
<path d="M108.697 126C110.197 129.167 115.697 134.2 125.697 129C125.031 127.333 124.097 123.6 125.697 122C126.056 123.434 127.197 126 127.197 126C128.262 126.756 129.962 126 130.697 126C130.031 127.667 128.097 130.6 125.697 129C122.531 133.667 113.997 141.6 105.197 136V121L108.697 126Z" fill="#FCF2AA"/>
<path d="M125.697 129C115.697 134.2 110.197 129.167 108.697 126L105.197 121V136C113.997 141.6 122.531 133.667 125.697 129ZM125.697 129C125.031 127.333 124.097 123.6 125.697 122C126.056 123.434 127.197 126 127.197 126C128.262 126.756 129.962 126 130.697 126C130.031 127.667 128.097 130.6 125.697 129Z" stroke="#1935A3"/>
<path d="M23.2925 160.965C24.2535 164.309 23.5333 171.509 12.9652 173.552C12.3709 171.866 10.6356 168.428 8.44921 168.163C9.11571 169.484 9.9478 172.149 9.9478 172.149C9.66767 173.375 7.95393 173.82 7.42312 174.265C8.97926 175.145 12.2663 176.234 12.9652 173.552C18.2601 175.229 29.5337 176.177 32.2686 166.546L22.5914 155L23.2925 160.965Z" fill="#FCF2AA"/>
<path d="M12.9652 173.552C23.5333 171.509 24.2535 164.309 23.2925 160.965L22.5914 155L32.2686 166.546C29.5337 176.177 18.2601 175.229 12.9652 173.552ZM12.9652 173.552C12.3709 171.866 10.6356 168.428 8.44921 168.163C9.11571 169.484 9.9478 172.149 9.9478 172.149C9.66767 173.375 7.95393 173.82 7.42312 174.265C8.97926 175.145 12.2663 176.234 12.9652 173.552Z" stroke="#1935A3"/>
<path d="M12.3117 12.3069C12.3117 1.80682 19.0414 -3.19322 27.3117 5.30684C30.9562 9.05258 35.2233 13.4732 39.8539 18.3068C45.061 23.7421 50.7277 29.6996 56.4855 35.8068C62.2757 41.9483 68.1581 48.2412 73.7579 54.3068C81.3606 62.5417 88.4425 70.3576 94.0661 76.8068C100.64 84.3461 105.222 90.0175 106.312 92.3068C106.312 92.3068 23.3118 130.807 9.31171 139.307C8.39988 133.766 7.83983 126.922 7.54486 119.307C7.09307 107.644 7.26315 94.1726 7.74363 80.8068C8.05072 72.264 8.48462 63.7641 8.96398 55.8068C9.54084 46.2311 10.1835 37.441 10.7504 30.3068C11.6204 19.3561 12.3117 12.3069 12.3117 12.3069Z" fill="#FFB762"/>
<path d="M10.7504 30.3068C11.6204 19.3561 12.3117 12.3069 12.3117 12.3069C12.3117 1.80682 19.0414 -3.19322 27.3117 5.30684C30.9562 9.05258 35.2233 13.4732 39.8539 18.3068M10.7504 30.3068C12.9656 23.8068 21.8876 12.3068 39.8539 18.3068M10.7504 30.3068C10.1835 37.441 9.54084 46.2311 8.96398 55.8068M39.8539 18.3068C45.061 23.7421 50.7277 29.6995 56.4855 35.8068M8.96398 55.8068C12.6957 46.6401 27.4245 29.8068 56.4855 35.8068M8.96398 55.8068C8.48462 63.7641 8.05072 72.264 7.74363 80.8068M56.4855 35.8068C62.2757 41.9483 68.1581 48.2412 73.7579 54.3068M7.74363 80.8068C14.2304 69.6401 36.5148 48.7068 73.7579 54.3068M7.74363 80.8068C7.26315 94.1726 7.09307 107.644 7.54486 119.307M73.7579 54.3068C81.3606 62.5417 88.4425 70.3576 94.0661 76.8068M7.54486 119.307C7.83983 126.922 8.39988 133.766 9.31171 139.307C23.3118 130.807 106.312 92.3068 106.312 92.3068C105.222 90.0175 100.64 84.3461 94.0661 76.8068M7.54486 119.307C14.3034 101.64 41.0696 68.4068 94.0661 76.8068" stroke="#1935A3"/>
<path d="M39.8175 18.0191C23.4083 12.0318 13.1968 22.9868 10.8118 29.3068L9.31177 54.8068C19.2336 32.4541 44.9056 32.8211 56.0359 35.4822L39.8175 18.0191Z" fill="#FDFFFE"/>
<path d="M93.3118 76.3067L73.3118 54.3067C40.875 47.122 15.444 68.1648 7.81177 79.8068L7.31177 119.307C27.1554 75.3998 73.9133 71.9826 93.3118 76.3067Z" fill="#FDFFFE"/>
<path d="M39.8175 18.0191C23.4083 12.0318 13.1968 22.9868 10.8118 29.3068L9.31177 54.8068C19.2336 32.4541 44.9056 32.8211 56.0359 35.4822L39.8175 18.0191Z" stroke="#1935A3"/>
<path d="M93.3118 76.3067L73.3118 54.3067C40.875 47.122 15.444 68.1648 7.81177 79.8068L7.31177 119.307C27.1554 75.3998 73.9133 71.9826 93.3118 76.3067Z" stroke="#1935A3"/>
<path d="M107.197 197.5C105.197 181.5 97.6146 161.667 94.7812 156L51.7812 172.5C46.1812 179.7 41.0307 188.833 37.1974 195.5L44.1974 196.5C47.6974 201.5 51.7812 206 56.6974 207C65.4974 208.2 66.1974 202.5 64.1974 199C64.1974 199 64.5391 196.503 67.6974 195.5C68.8244 195.5 68.6974 197.852 71.1974 200L76.2077 197.5C76.8675 198.34 77.1974 199 77.1974 199C77.5974 211 92.8641 203.167 97.6974 199C97.6974 199 97.1974 195.746 99.6974 194C101.672 192.622 107.197 197.5 107.197 197.5Z" fill="#A8DD75"/>
<path d="M71.1974 200C68.6974 197.852 68.8244 195.5 67.6974 195.5C64.5391 196.503 64.1974 199 64.1974 199C66.1974 202.5 65.4974 208.2 56.6974 207C51.7812 206 47.6974 201.5 44.1974 196.5L37.1974 195.5C41.0307 188.833 46.1812 179.7 51.7812 172.5L94.7812 156C97.6146 161.667 105.197 181.5 107.197 197.5C107.197 197.5 101.672 192.622 99.6974 194C97.1974 195.746 97.6974 199 97.6974 199C92.8641 203.167 77.5974 211 77.1974 199C77.1974 199 76.8675 198.34 76.2077 197.5M71.1974 200C73.2015 199 76.2077 197.5 76.2077 197.5M71.1974 200L76.2077 197.5" stroke="#1935A3"/>
<path d="M96.2796 97.7932C50.6796 83.7932 28.7812 125.98 19.2812 145.48C22.5859 161.421 31.6885 170 43.7812 171.5C56.5715 173.086 73.5289 169.026 82.7812 165C96.7006 157.453 104.281 147 105.781 136C106.592 130.055 105.781 121 104.281 115.5C102.281 105.5 98.5656 102.242 96.2796 97.7932Z" fill="#FDF4A0" stroke="#1935A3"/>
<circle cx="84.0001" cy="125" r="17.5" fill="white" stroke="#1935A3"/>
<circle cx="44.1574" cy="139.157" r="17.5" transform="rotate(53.7813 44.1574 139.157)" fill="white" stroke="#1935A3"/>
<circle cx="83" cy="122" r="15" fill="#1935A3"/>
<path d="M55.382 128.7C59.79 135.714 57.6772 144.974 50.663 149.382C43.6489 153.79 34.3894 151.677 29.9814 144.663C25.5734 137.649 27.6861 128.389 34.7003 123.981C41.7145 119.573 50.974 121.686 55.382 128.7Z" fill="#1935A3"/>
<path d="M3.05999 135.526C-4.62512 158.793 13.2854 159.009 23.7812 156C20.2812 148 18.2812 149 23.7812 143C32.2812 127.5 59.6521 117.66 65.7812 115.5C78.3973 109.896 92.2118 104.875 98.2812 107.5C103.509 109.761 103.781 117 104.781 121C127.781 108.5 114.955 89.954 102.68 86.4441C48.0307 81.6303 14.4453 117.141 3.05999 135.526Z" fill="#1935A3" stroke="#1935A3"/>
<path d="M51.3525 171.5C43.6974 152.5 32.8525 154 23.6974 156C24.1974 160 29.6858 165.167 32.8525 167.5C39.6525 171.5 48.0192 171.833 51.3525 171.5Z" fill="#EE9684"/>
<path d="M105.781 131C105.781 138.5 103.281 148.5 95.21 155.665C92.8767 148.998 92.5813 134.6 105.781 131Z" fill="#EE9684"/>
<path d="M51.3525 171.5C43.6974 152.5 32.8525 154 23.6974 156C24.1974 160 29.6858 165.167 32.8525 167.5C39.6525 171.5 48.0192 171.833 51.3525 171.5Z" stroke="#1935A3"/>
<path d="M105.781 131C105.781 138.5 103.281 148.5 95.21 155.665C92.8767 148.998 92.5813 134.6 105.781 131Z" stroke="#1935A3"/>
<path d="M71.3507 144.465L66.0711 147.105C65.7234 147.279 65.6983 147.765 66.0262 147.974L70.1745 150.614C70.4685 150.801 70.8589 150.638 70.9319 150.297L72.0632 145.017C72.1511 144.607 71.7257 144.278 71.3507 144.465Z" fill="#FBB884" stroke="#1935A3"/>
</svg>
