<svg width="131" height="229" viewBox="0 0 131 229" fill="none" xmlns="http://www.w3.org/2000/svg">
<path d="M35.6332 161.5C36.4332 159.5 44.6332 156.333 48.6332 155L78.1332 171.5C78.5332 174.7 87.6332 179.167 92.1332 181C103.733 181 106.967 186 107.133 188.5C109.933 192.1 101.633 201.667 97.1332 206C96.7998 204.833 96.1332 203.3 96.1332 206.5C96.1332 209.7 102.133 222.5 105.133 228.5H25.1332V214.5C25.1332 208.1 26.4665 198.833 27.1332 195C21.5332 184.6 19.4665 174 19.1332 170C22.6332 149 34.6332 164 35.6332 161.5Z" fill="#A8DD75" stroke="#1935A3"/>
<path d="M23 126C21.5 129.167 16 134.2 6 129C6.66667 127.333 7.6 123.6 6 122C5.64152 123.434 4.5 126 4.5 126C3.43522 126.756 1.73587 126 1 126C1.66667 127.667 3.6 130.6 6 129C9.16667 133.667 17.7 141.6 26.5 136V121L23 126Z" fill="#FCF2AA"/>
<path d="M6 129C16 134.2 21.5 129.167 23 126L26.5 121V136C17.7 141.6 9.16667 133.667 6 129ZM6 129C6.66667 127.333 7.6 123.6 6 122C5.64152 123.434 4.5 126 4.5 126C3.43522 126.756 1.73587 126 1 126C1.66667 127.667 3.6 130.6 6 129Z" stroke="#1935A3"/>
<path d="M108.405 160.965C107.444 164.309 108.164 171.509 118.732 173.552C119.327 171.866 121.062 168.428 123.248 168.163C122.582 169.484 121.75 172.149 121.75 172.149C122.03 173.375 123.743 173.82 124.274 174.265C122.718 175.145 119.431 176.234 118.732 173.552C113.437 175.229 102.164 176.177 99.4288 166.546L109.106 155L108.405 160.965Z" fill="#FCF2AA"/>
<path d="M118.732 173.552C108.164 171.509 107.444 164.309 108.405 160.965L109.106 155L99.4288 166.546C102.164 176.177 113.437 175.229 118.732 173.552ZM118.732 173.552C119.327 171.866 121.062 168.428 123.248 168.163C122.582 169.484 121.75 172.149 121.75 172.149C122.03 173.375 123.743 173.82 124.274 174.265C122.718 175.145 119.431 176.234 118.732 173.552Z" stroke="#1935A3"/>
<path d="M119.386 12.3069C119.386 1.80682 112.656 -3.19322 104.386 5.30684C100.741 9.05258 96.4741 13.4732 91.8435 18.3068C86.6364 23.7421 80.9697 29.6996 75.2119 35.8068C69.4217 41.9483 63.5393 48.2412 57.9395 54.3068C50.3368 62.5417 43.2549 70.3576 37.6313 76.8068C31.0571 84.3461 26.4759 90.0175 25.3857 92.3068C25.3857 92.3068 108.386 130.807 122.386 139.307C123.298 133.766 123.858 126.922 124.153 119.307C124.604 107.644 124.434 94.1726 123.954 80.8068C123.647 72.264 123.213 63.7641 122.733 55.8068C122.157 46.2311 121.514 37.441 120.947 30.3068C120.077 19.3561 119.386 12.3069 119.386 12.3069Z" fill="#FD8D37"/>
<path d="M120.947 30.3068C120.077 19.3561 119.386 12.3069 119.386 12.3069C119.386 1.80682 112.656 -3.19322 104.386 5.30684C100.741 9.05258 96.4741 13.4732 91.8435 18.3068M120.947 30.3068C118.732 23.8068 109.81 12.3068 91.8435 18.3068M120.947 30.3068C121.514 37.441 122.157 46.2311 122.733 55.8068M91.8435 18.3068C86.6364 23.7421 80.9697 29.6995 75.2119 35.8068M122.733 55.8068C119.002 46.6401 104.273 29.8068 75.2119 35.8068M122.733 55.8068C123.213 63.7641 123.647 72.264 123.954 80.8068M75.2119 35.8068C69.4217 41.9483 63.5393 48.2412 57.9395 54.3068M123.954 80.8068C117.467 69.6401 95.1825 48.7068 57.9395 54.3068M123.954 80.8068C124.434 94.1726 124.604 107.644 124.153 119.307M57.9395 54.3068C50.3368 62.5417 43.2549 70.3576 37.6313 76.8068M124.153 119.307C123.858 126.922 123.298 133.766 122.386 139.307C108.386 130.807 25.3857 92.3068 25.3857 92.3068C26.4759 90.0175 31.0571 84.3461 37.6313 76.8068M124.153 119.307C117.394 101.64 90.6278 68.4068 37.6313 76.8068" stroke="#1935A3"/>
<path d="M91.8798 18.0191C108.289 12.0318 118.501 22.9868 120.886 29.3068L122.386 54.8068C112.464 32.4541 86.7917 32.8211 75.6614 35.4822L91.8798 18.0191Z" fill="#FDFFFE"/>
<path d="M38.3856 76.3067L58.3856 54.3067C90.8224 47.122 116.253 68.1648 123.886 79.8068L124.386 119.307C104.542 75.3998 57.7841 71.9826 38.3856 76.3067Z" fill="#FDFFFE"/>
<path d="M91.8798 18.0191C108.289 12.0318 118.501 22.9868 120.886 29.3068L122.386 54.8068C112.464 32.4541 86.7917 32.8211 75.6614 35.4822L91.8798 18.0191Z" stroke="#1935A3"/>
<path d="M38.3856 76.3067L58.3856 54.3067C90.8224 47.122 116.253 68.1648 123.886 79.8068L124.386 119.307C104.542 75.3998 57.7841 71.9826 38.3856 76.3067Z" stroke="#1935A3"/>
<path d="M35.4178 97.7932C81.0178 83.7932 102.916 125.98 112.416 145.48C109.112 161.421 100.009 170 87.9162 171.5C75.1259 173.086 58.1685 169.026 48.9162 165C34.9968 157.453 27.4162 147 25.9162 136C25.1055 130.055 25.9162 121 27.4162 115.5C29.4162 105.5 33.1318 102.242 35.4178 97.7932Z" fill="#FDF4A0" stroke="#1935A3"/>
<circle cx="18" cy="18" r="17.5" transform="matrix(-1 0 0 1 61.0001 105)" fill="white" stroke="#1935A3"/>
<circle cx="18" cy="18" r="17.5" transform="matrix(-0.590869 0.806767 0.806767 0.590869 78.9565 112)" fill="white" stroke="#1935A3"/>
<path d="M31 123C31 131.284 37.7157 138 46 138C54.2843 138 61 131.284 61 123C61 114.716 54.2843 108 46 108C37.7157 108 31 114.716 31 123Z" fill="#1935A3"/>
<path d="M72.9814 128.7C68.5734 135.715 70.6861 144.974 77.7003 149.382C84.7145 153.79 93.974 151.677 98.382 144.663C102.79 137.649 100.677 128.389 93.663 123.981C86.6489 119.573 77.3894 121.686 72.9814 128.7Z" fill="#1935A3"/>
<path d="M128.637 135.526C136.323 158.793 118.412 159.009 107.916 156C111.416 148 113.416 149 107.916 143C99.4162 127.5 72.0453 117.66 65.9162 115.5C53.3001 109.896 39.4855 104.875 33.4162 107.5C28.1887 109.761 26.5 116.5 25.5 120.5C2.5 108 16.7422 89.954 29.0171 86.4441C83.6667 81.6303 117.252 117.141 128.637 135.526Z" fill="#1935A3" stroke="#1935A3"/>
<path d="M80.3449 171.5C87.9999 152.5 98.8449 154 108 156C107.5 160 102.012 165.167 98.8449 167.5C92.0449 171.5 83.6782 171.833 80.3449 171.5Z" fill="#FC775B"/>
<path d="M25.9161 131C25.9161 138.5 28.4161 148.5 36.4874 155.665C38.8207 148.998 39.1161 134.6 25.9161 131Z" fill="#FC775B"/>
<path d="M80.3449 171.5C87.9999 152.5 98.8449 154 108 156C107.5 160 102.012 165.167 98.8449 167.5C92.0449 171.5 83.6782 171.833 80.3449 171.5Z" stroke="#1935A3"/>
<path d="M25.9161 131C25.9161 138.5 28.4161 148.5 36.4874 155.665C38.8207 148.998 39.1161 134.6 25.9161 131Z" stroke="#1935A3"/>
<path d="M56.6279 143.465L61.9075 146.105C62.2551 146.279 62.2802 146.765 61.9524 146.974L57.8041 149.614C57.5101 149.801 57.1197 149.638 57.0467 149.297L55.9154 144.017C55.8275 143.607 56.2529 143.278 56.6279 143.465Z" fill="#FBB884" stroke="#1935A3"/>
</svg>
