<svg width="132" height="208" viewBox="0 0 132 208" fill="none" xmlns="http://www.w3.org/2000/svg">
<path d="M108.889 126C110.395 129.167 115.914 134.2 125.951 129C125.282 127.333 124.345 123.6 125.951 122C126.31 123.434 127.456 126 127.456 126C128.525 126.756 130.23 126 130.969 126C130.3 127.667 128.359 130.6 125.951 129C122.773 133.667 114.208 141.6 105.376 136V121L108.889 126Z" fill="#FCF2AA"/>
<path d="M125.951 129C115.914 134.2 110.395 129.167 108.889 126L105.376 121V136C114.208 141.6 122.773 133.667 125.951 129ZM125.951 129C125.282 127.333 124.345 123.6 125.951 122C126.31 123.434 127.456 126 127.456 126C128.525 126.756 130.23 126 130.969 126C130.3 127.667 128.359 130.6 125.951 129Z" stroke="#1935A3"/>
<path d="M23.175 160.965C24.1395 164.309 23.4168 171.509 12.8104 173.552C12.2139 171.866 10.4723 168.428 8.27802 168.163C8.94694 169.484 9.78203 172.149 9.78203 172.149C9.5009 173.375 7.78095 173.82 7.24822 174.265C8.80999 175.145 12.1089 176.234 12.8104 173.552C18.1245 175.229 29.4388 176.177 32.1837 166.546L22.4714 155L23.175 160.965Z" fill="#FCF2AA"/>
<path d="M12.8104 173.552C23.4168 171.509 24.1395 164.309 23.175 160.965L22.4714 155L32.1837 166.546C29.4388 176.177 18.1245 175.229 12.8104 173.552ZM12.8104 173.552C12.2139 171.866 10.4723 168.428 8.27802 168.163C8.94694 169.484 9.78203 172.149 9.78203 172.149C9.5009 173.375 7.78095 173.82 7.24822 174.265C8.80999 175.145 12.1089 176.234 12.8104 173.552Z" stroke="#1935A3"/>
<path d="M12.1545 12.3069C12.1545 1.80682 18.9086 -3.19322 27.2088 5.30684C30.8665 9.05258 35.1491 13.4732 39.7964 18.3068C45.0223 23.7421 50.7095 29.6996 56.4882 35.8068C62.2994 41.9483 68.203 48.2412 73.8232 54.3068C81.4533 62.5417 88.5609 70.3576 94.2049 76.8068C100.803 84.3461 105.401 90.0175 106.495 92.3068C106.495 92.3068 23.1944 130.807 9.14364 139.307C8.22852 133.766 7.66644 126.922 7.3704 119.307C6.91697 107.644 7.08767 94.1726 7.56988 80.8068C7.87809 72.264 8.31356 63.7641 8.79466 55.8068C9.3736 46.2311 10.0186 37.441 10.5875 30.3068C11.4607 19.3561 12.1545 12.3069 12.1545 12.3069Z" fill="#FFB762"/>
<path d="M10.5875 30.3068C11.4607 19.3561 12.1545 12.3069 12.1545 12.3069C12.1545 1.80682 18.9086 -3.19322 27.2088 5.30684C30.8665 9.05258 35.1491 13.4732 39.7964 18.3068M10.5875 30.3068C12.8108 23.8068 21.7651 12.3068 39.7964 18.3068M10.5875 30.3068C10.0186 37.441 9.3736 46.2311 8.79466 55.8068M39.7964 18.3068C45.0223 23.7421 50.7095 29.6995 56.4882 35.8068M8.79466 55.8068C12.5399 46.6401 27.322 29.8068 56.4882 35.8068M8.79466 55.8068C8.31356 63.7641 7.87809 72.264 7.56988 80.8068M56.4882 35.8068C62.2994 41.9483 68.203 48.2412 73.8232 54.3068M7.56988 80.8068C14.0802 69.6401 36.4453 48.7068 73.8232 54.3068M7.56988 80.8068C7.08767 94.1726 6.91697 107.644 7.3704 119.307M73.8232 54.3068C81.4533 62.5417 88.5609 70.3576 94.2049 76.8068M7.3704 119.307C7.66644 126.922 8.22852 133.766 9.14364 139.307C23.1944 130.807 106.495 92.3068 106.495 92.3068C105.401 90.0175 100.803 84.3461 94.2049 76.8068M7.3704 119.307C14.1534 101.64 41.0165 68.4068 94.2049 76.8068" stroke="#1935A3"/>
<path d="M39.7598 18.0191C23.2912 12.0318 13.0427 22.9868 10.649 29.3068L9.14359 54.8068C19.1013 32.4541 44.8663 32.8211 56.0369 35.4822L39.7598 18.0191Z" fill="#FDFFFE"/>
<path d="M93.4477 76.3067L73.3753 54.3067C40.8211 47.122 15.298 68.1648 7.63816 79.8068L7.13635 119.307C27.0519 75.3998 73.979 71.9826 93.4477 76.3067Z" fill="#FDFFFE"/>
<path d="M39.7598 18.0191C23.2912 12.0318 13.0427 22.9868 10.649 29.3068L9.14359 54.8068C19.1013 32.4541 44.8663 32.8211 56.0369 35.4822L39.7598 18.0191Z" stroke="#1935A3"/>
<path d="M93.4477 76.3067L73.3753 54.3067C40.8211 47.122 15.298 68.1648 7.63816 79.8068L7.13635 119.307C27.0519 75.3998 73.979 71.9826 93.4477 76.3067Z" stroke="#1935A3"/>
<path d="M107.384 197.5C105.377 181.5 97.7662 161.667 94.9226 156L51.767 172.5C46.1467 179.7 40.9776 188.833 37.1304 195.5L44.1557 196.5C47.6684 201.5 51.767 206 56.701 207C65.5328 208.2 66.2353 202.5 64.2281 199C64.2281 199 64.5711 196.503 67.7408 195.5C68.8719 195.5 68.7444 197.852 71.2534 200L76.2819 197.5C76.9441 198.34 77.2752 199 77.2752 199C77.6766 211 92.9985 203.167 97.8494 199C97.8494 199 97.3476 195.746 99.8566 194C101.838 192.622 107.384 197.5 107.384 197.5Z" fill="#A8DD75"/>
<path d="M71.2534 200C68.7444 197.852 68.8719 195.5 67.7408 195.5C64.5711 196.503 64.2281 199 64.2281 199C66.2353 202.5 65.5328 208.2 56.701 207C51.767 206 47.6684 201.5 44.1557 196.5L37.1304 195.5C40.9776 188.833 46.1467 179.7 51.767 172.5L94.9226 156C97.7662 161.667 105.377 181.5 107.384 197.5C107.384 197.5 101.838 192.622 99.8566 194C97.3476 195.746 97.8494 199 97.8494 199C92.9985 203.167 77.6766 211 77.2752 199C77.2752 199 76.9441 198.34 76.2819 197.5M71.2534 200C73.2648 199 76.2819 197.5 76.2819 197.5M71.2534 200L76.2819 197.5" stroke="#1935A3"/>
<path d="M96.4264 97.7932C50.6614 83.7932 28.6837 125.98 19.1493 145.48C22.4659 161.421 31.6015 170 43.738 171.5C56.5746 173.086 73.5933 169.026 82.8792 165C96.849 157.453 104.457 147 105.962 136C106.776 130.055 105.962 121 104.457 115.5C102.45 105.5 98.7207 102.242 96.4264 97.7932Z" fill="#FDF4A0" stroke="#1935A3"/>
<circle cx="84" cy="125" r="17.5" fill="white" stroke="#1935A3"/>
<circle cx="44.1574" cy="139.157" r="17.5" transform="rotate(53.7813 44.1574 139.157)" fill="white" stroke="#1935A3"/>
<circle cx="86" cy="128" r="15" fill="#1935A3"/>
<path d="M58.382 133.7C62.79 140.714 60.6772 149.974 53.663 154.382C46.6489 158.79 37.3894 156.677 32.9814 149.663C28.5734 142.649 30.6861 133.389 37.7003 128.981C44.7145 124.573 53.974 126.686 58.382 133.7Z" fill="#1935A3"/>
<path d="M2.86934 135.526C-4.84359 158.793 13.1317 159.009 23.6656 156C20.1529 148 18.1457 149 23.6656 143C32.1963 127.5 59.6663 117.66 65.8176 115.5C78.4794 109.896 92.3439 104.875 98.4353 107.5C103.682 109.761 103.955 117 104.959 121C128.042 108.5 115.17 89.954 102.85 86.4441C48.0028 81.6303 14.2959 117.141 2.86934 135.526Z" fill="#1935A3" stroke="#1935A3"/>
<path d="M51.3366 171.5C43.6538 152.5 32.7696 154 23.5814 156C24.0832 160 29.5915 165.167 32.7696 167.5C39.5942 171.5 47.9912 171.833 51.3366 171.5Z" fill="#EE9684"/>
<path d="M105.962 131C105.962 138.5 103.453 148.5 95.3528 155.665C93.0111 148.998 92.7146 134.6 105.962 131Z" fill="#EE9684"/>
<path d="M51.3366 171.5C43.6538 152.5 32.7696 154 23.5814 156C24.0832 160 29.5915 165.167 32.7696 167.5C39.5942 171.5 47.9912 171.833 51.3366 171.5Z" stroke="#1935A3"/>
<path d="M105.962 131C105.962 138.5 103.453 148.5 95.3528 155.665C93.0111 148.998 92.7146 134.6 105.962 131Z" stroke="#1935A3"/>
<path d="M71.4108 144.463L66.1091 147.105C65.7606 147.278 65.7355 147.766 66.0643 147.975L70.2299 150.616C70.5238 150.802 70.9134 150.639 70.9865 150.299L72.1226 145.016C72.2107 144.606 71.7859 144.277 71.4108 144.463Z" fill="#FBB884" stroke="#1935A3"/>
</svg>
