<svg width="48" height="24" viewBox="0 0 48 24" fill="none" xmlns="http://www.w3.org/2000/svg">
<mask id="path-1-outside-1_179_1246" maskUnits="userSpaceOnUse" x="-2" y="-2" width="52" height="28" fill="black">
<rect fill="white" x="-2" y="-2" width="52" height="28"/>
<path d="M0.9375 13.0625V9.5C2.25 9.125 3.28125 8.65625 4.03125 8.09375L1.3125 7.53125V4.4375L6.1875 5.28125H6.28125L7.5 3.59375H1.40625V0.78125H9.84375C11.3438 0.78125 12.0312 1.53125 11.9062 3.03125L11.25 4.71875L9.9375 6.78125H15.6562L13.3125 0.59375H17.625L18 1.71875L23.4375 0.875V3.6875L18.75 4.625L19.4062 5.5625L23.625 4.8125V7.53125L20.9062 8.1875L23.625 12.4062H21.9375C22.375 12.9062 22.5938 13.4375 22.5938 14V18.4062H19.875L19.125 20.2812H23.3438V21.3125C23.3438 22.625 22.7188 23.2812 21.4688 23.2812H1.21875V20.2812H5.25L4.40625 18.4062H2.53125V14.0938C2.53125 13.3438 2.75 12.75 3.1875 12.3125L0.9375 13.0625ZM16.4062 13.8125H6.5625V15.5938H18.4688V14.8438C18.4688 14.1562 17.7812 13.8125 16.4062 13.8125ZM18 11.0938L17.0625 9.59375H8.15625C7.59375 10.1562 6.9375 10.6562 6.1875 11.0938H18ZM15.4688 18.4062H8.90625C9.09375 19.3438 10.1875 19.8125 12.1875 19.8125C14.1875 19.8125 15.2812 19.3438 15.4688 18.4062ZM26.1562 0.59375H43.5938C45.2812 0.71875 46.0625 1.6875 45.9375 3.5L44.5312 8.375H47.625V11.375H38.625V20.9375C38.625 21.5 38.4375 22.0312 38.0625 22.5312C37.625 23.0312 37.0312 23.2812 36.2812 23.2812H32.4375V20.2812H33.8438C34.2188 20.2812 34.4375 20.1875 34.5 20C34.625 19.8125 34.6875 19.625 34.6875 19.4375V13.1562C34.6875 11.9688 33.8438 11.375 32.1562 11.375H24.9375V8.375H40.2188L40.4062 7.25H26.7188V4.625H41.1562L41.4375 3.40625H26.1562V0.59375ZM27.0938 12.6875H30.8438L31.3125 19.1562C31.75 21.1562 31.0312 22.375 29.1562 22.8125H25.3125V19.4375H27.6562L27.0938 12.6875ZM41.3438 19.625L41.9062 12.6875H45.6562L45 19.5312H47.4375V22.8125H44.1562C41.9062 22.9375 40.9688 21.875 41.3438 19.625Z"/>
</mask>
<path d="M0.9375 13.0625V9.5C2.25 9.125 3.28125 8.65625 4.03125 8.09375L1.3125 7.53125V4.4375L6.1875 5.28125H6.28125L7.5 3.59375H1.40625V0.78125H9.84375C11.3438 0.78125 12.0312 1.53125 11.9062 3.03125L11.25 4.71875L9.9375 6.78125H15.6562L13.3125 0.59375H17.625L18 1.71875L23.4375 0.875V3.6875L18.75 4.625L19.4062 5.5625L23.625 4.8125V7.53125L20.9062 8.1875L23.625 12.4062H21.9375C22.375 12.9062 22.5938 13.4375 22.5938 14V18.4062H19.875L19.125 20.2812H23.3438V21.3125C23.3438 22.625 22.7188 23.2812 21.4688 23.2812H1.21875V20.2812H5.25L4.40625 18.4062H2.53125V14.0938C2.53125 13.3438 2.75 12.75 3.1875 12.3125L0.9375 13.0625ZM16.4062 13.8125H6.5625V15.5938H18.4688V14.8438C18.4688 14.1562 17.7812 13.8125 16.4062 13.8125ZM18 11.0938L17.0625 9.59375H8.15625C7.59375 10.1562 6.9375 10.6562 6.1875 11.0938H18ZM15.4688 18.4062H8.90625C9.09375 19.3438 10.1875 19.8125 12.1875 19.8125C14.1875 19.8125 15.2812 19.3438 15.4688 18.4062ZM26.1562 0.59375H43.5938C45.2812 0.71875 46.0625 1.6875 45.9375 3.5L44.5312 8.375H47.625V11.375H38.625V20.9375C38.625 21.5 38.4375 22.0312 38.0625 22.5312C37.625 23.0312 37.0312 23.2812 36.2812 23.2812H32.4375V20.2812H33.8438C34.2188 20.2812 34.4375 20.1875 34.5 20C34.625 19.8125 34.6875 19.625 34.6875 19.4375V13.1562C34.6875 11.9688 33.8438 11.375 32.1562 11.375H24.9375V8.375H40.2188L40.4062 7.25H26.7188V4.625H41.1562L41.4375 3.40625H26.1562V0.59375ZM27.0938 12.6875H30.8438L31.3125 19.1562C31.75 21.1562 31.0312 22.375 29.1562 22.8125H25.3125V19.4375H27.6562L27.0938 12.6875ZM41.3438 19.625L41.9062 12.6875H45.6562L45 19.5312H47.4375V22.8125H44.1562C41.9062 22.9375 40.9688 21.875 41.3438 19.625Z" fill="white"/>
<path d="M0.9375 13.0625H-1.0625V15.8374L1.56996 14.9599L0.9375 13.0625ZM0.9375 9.5L0.388058 7.57695L-1.0625 7.9914V9.5H0.9375ZM4.03125 8.09375L5.23125 9.69375L8.77822 7.03352L4.43646 6.13523L4.03125 8.09375ZM1.3125 7.53125H-0.6875V9.15981L0.907289 9.48977L1.3125 7.53125ZM1.3125 4.4375L1.65358 2.4668L-0.6875 2.06161V4.4375H1.3125ZM6.1875 5.28125L5.84642 7.25195L6.0157 7.28125H6.1875V5.28125ZM6.28125 5.28125V7.28125H7.30387L7.90261 6.45223L6.28125 5.28125ZM7.5 3.59375L9.12136 4.76473L11.4115 1.59375H7.5V3.59375ZM1.40625 3.59375H-0.59375V5.59375H1.40625V3.59375ZM1.40625 0.78125V-1.21875H-0.59375V0.78125H1.40625ZM11.9062 3.03125L13.7703 3.75614L13.8753 3.48609L13.8993 3.19734L11.9062 3.03125ZM11.25 4.71875L12.9373 5.7925L13.0428 5.62675L13.114 5.44364L11.25 4.71875ZM9.9375 6.78125L8.25018 5.7075L6.29415 8.78125H9.9375V6.78125ZM15.6562 6.78125V8.78125H18.5525L17.5266 6.0728L15.6562 6.78125ZM13.3125 0.59375V-1.40625H10.4163L11.4422 1.3022L13.3125 0.59375ZM17.625 0.59375L19.5224 -0.0387055L19.0665 -1.40625H17.625V0.59375ZM18 1.71875L16.1026 2.35121L16.637 3.95419L18.3067 3.6951L18 1.71875ZM23.4375 0.875H25.4375V-1.45928L23.1308 -1.10135L23.4375 0.875ZM23.4375 3.6875L23.8297 5.64866L25.4375 5.32711V3.6875H23.4375ZM18.75 4.625L18.3578 2.66384L15.3561 3.26417L17.1115 5.77192L18.75 4.625ZM19.4062 5.5625L17.7678 6.70942L18.4997 7.75502L19.7563 7.53163L19.4062 5.5625ZM23.625 4.8125H25.625V2.42559L23.2749 2.84337L23.625 4.8125ZM23.625 7.53125L24.0943 9.47541L25.625 9.10593V7.53125H23.625ZM20.9062 8.1875L20.437 6.24334L17.6998 6.90403L19.2251 9.2709L20.9062 8.1875ZM23.625 12.4062V14.4062H27.2932L25.3061 11.3228L23.625 12.4062ZM21.9375 12.4062V10.4062H17.53L20.4323 13.7233L21.9375 12.4062ZM22.5938 18.4062V20.4062H24.5938V18.4062H22.5938ZM19.875 18.4062V16.4062H18.5209L18.018 17.6635L19.875 18.4062ZM19.125 20.2812L17.268 19.5385L16.1709 22.2812H19.125V20.2812ZM23.3438 20.2812H25.3438V18.2812H23.3438V20.2812ZM1.21875 23.2812H-0.78125V25.2812H1.21875V23.2812ZM1.21875 20.2812V18.2812H-0.78125V20.2812H1.21875ZM5.25 20.2812V22.2812H8.34317L7.07384 19.4605L5.25 20.2812ZM4.40625 18.4062L6.23009 17.5855L5.69942 16.4062H4.40625V18.4062ZM2.53125 18.4062H0.53125V20.4062H2.53125V18.4062ZM3.1875 12.3125L4.60171 13.7267L2.55504 10.4151L3.1875 12.3125ZM6.5625 13.8125V11.8125H4.5625V13.8125H6.5625ZM6.5625 15.5938H4.5625V17.5938H6.5625V15.5938ZM18.4688 15.5938V17.5938H20.4688V15.5938H18.4688ZM18 11.0938V13.0938H21.6085L19.696 10.0338L18 11.0938ZM17.0625 9.59375L18.7585 8.53375L18.171 7.59375H17.0625V9.59375ZM8.15625 9.59375V7.59375H7.32782L6.74204 8.17954L8.15625 9.59375ZM6.1875 11.0938L5.17976 9.36619L-1.21034 13.0938H6.1875V11.0938ZM15.4688 18.4062L17.4299 18.7985L17.9084 16.4062H15.4688V18.4062ZM8.90625 18.4062V16.4062H6.46664L6.94509 18.7985L8.90625 18.4062ZM2.9375 13.0625V9.5H-1.0625V13.0625H2.9375ZM1.48694 11.423C2.93656 11.0089 4.2185 10.4533 5.23125 9.69375L2.83125 6.49375C2.344 6.85918 1.56344 7.24113 0.388058 7.57695L1.48694 11.423ZM4.43646 6.13523L1.71771 5.57273L0.907289 9.48977L3.62604 10.0523L4.43646 6.13523ZM3.3125 7.53125V4.4375H-0.6875V7.53125H3.3125ZM0.971417 6.4082L5.84642 7.25195L6.52858 3.31055L1.65358 2.4668L0.971417 6.4082ZM6.1875 7.28125H6.28125V3.28125H6.1875V7.28125ZM7.90261 6.45223L9.12136 4.76473L5.87864 2.42277L4.65989 4.11027L7.90261 6.45223ZM7.5 1.59375H1.40625V5.59375H7.5V1.59375ZM3.40625 3.59375V0.78125H-0.59375V3.59375H3.40625ZM1.40625 2.78125H9.84375V-1.21875H1.40625V2.78125ZM9.84375 2.78125C9.9489 2.78125 10.0271 2.78788 10.082 2.79583C10.1368 2.80375 10.1632 2.81221 10.1678 2.81377C10.1715 2.81506 10.1527 2.809 10.1205 2.78863C10.0872 2.76764 10.0481 2.73669 10.0101 2.6952C9.97205 2.65372 9.9449 2.61236 9.92725 2.5782C9.91014 2.54509 9.9061 2.52685 9.90737 2.53195C9.90884 2.53781 9.9152 2.56615 9.91857 2.62274C9.92195 2.67944 9.92199 2.75916 9.91316 2.86516L13.8993 3.19734C13.9858 2.15949 13.8293 0.942107 12.9587 -0.00769926C12.0865 -0.959145 10.8861 -1.21875 9.84375 -1.21875V2.78125ZM10.0422 2.30636L9.38599 3.99386L13.114 5.44364L13.7703 3.75614L10.0422 2.30636ZM9.56268 3.645L8.25018 5.7075L11.6248 7.855L12.9373 5.7925L9.56268 3.645ZM9.9375 8.78125H15.6562V4.78125H9.9375V8.78125ZM17.5266 6.0728L15.1828 -0.114704L11.4422 1.3022L13.7859 7.4897L17.5266 6.0728ZM13.3125 2.59375H17.625V-1.40625H13.3125V2.59375ZM15.7276 1.22621L16.1026 2.35121L19.8974 1.08629L19.5224 -0.0387055L15.7276 1.22621ZM18.3067 3.6951L23.7442 2.85135L23.1308 -1.10135L17.6933 -0.257598L18.3067 3.6951ZM21.4375 0.875V3.6875H25.4375V0.875H21.4375ZM23.0453 1.72634L18.3578 2.66384L19.1422 6.58616L23.8297 5.64866L23.0453 1.72634ZM17.1115 5.77192L17.7678 6.70942L21.0447 4.41558L20.3885 3.47808L17.1115 5.77192ZM19.7563 7.53163L23.9751 6.78163L23.2749 2.84337L19.0562 3.59337L19.7563 7.53163ZM21.625 4.8125V7.53125H25.625V4.8125H21.625ZM23.1557 5.58709L20.437 6.24334L21.3755 10.1317L24.0943 9.47541L23.1557 5.58709ZM19.2251 9.2709L21.9439 13.4897L25.3061 11.3228L22.5874 7.1041L19.2251 9.2709ZM23.625 10.4062H21.9375V14.4062H23.625V10.4062ZM20.4323 13.7233C20.5288 13.8335 20.5664 13.9073 20.5803 13.9412C20.5924 13.9705 20.5938 13.9856 20.5938 14H24.5938C24.5938 12.8679 24.1382 11.8842 23.4427 11.0892L20.4323 13.7233ZM20.5938 14V18.4062H24.5938V14H20.5938ZM22.5938 16.4062H19.875V20.4062H22.5938V16.4062ZM18.018 17.6635L17.268 19.5385L20.982 21.024L21.732 19.149L18.018 17.6635ZM19.125 22.2812H23.3438V18.2812H19.125V22.2812ZM21.3438 20.2812V21.3125H25.3438V20.2812H21.3438ZM21.3438 21.3125C21.3438 21.398 21.3386 21.4609 21.3327 21.5043C21.3268 21.5476 21.3207 21.5674 21.3203 21.5687C21.3201 21.5694 21.3259 21.5508 21.3436 21.5199C21.3617 21.4883 21.3889 21.4495 21.4267 21.4098C21.4647 21.3698 21.5057 21.3371 21.5453 21.3122C21.5841 21.2877 21.6141 21.2755 21.6284 21.2705C21.6531 21.2618 21.6119 21.2812 21.4688 21.2812V25.2812C22.4276 25.2812 23.5078 25.0247 24.3233 24.1684C25.1214 23.3303 25.3438 22.2533 25.3438 21.3125H21.3438ZM21.4688 21.2812H1.21875V25.2812H21.4688V21.2812ZM3.21875 23.2812V20.2812H-0.78125V23.2812H3.21875ZM1.21875 22.2812H5.25V18.2812H1.21875V22.2812ZM7.07384 19.4605L6.23009 17.5855L2.58241 19.227L3.42616 21.102L7.07384 19.4605ZM4.40625 16.4062H2.53125V20.4062H4.40625V16.4062ZM4.53125 18.4062V14.0938H0.53125V18.4062H4.53125ZM4.53125 14.0938C4.53125 13.912 4.55775 13.816 4.572 13.7773C4.58367 13.7457 4.59233 13.7361 4.60171 13.7267L1.77329 10.8983C0.883575 11.788 0.53125 12.9334 0.53125 14.0938H4.53125ZM2.55504 10.4151L0.305044 11.1651L1.56996 14.9599L3.81996 14.2099L2.55504 10.4151ZM16.4062 11.8125H6.5625V15.8125H16.4062V11.8125ZM4.5625 13.8125V15.5938H8.5625V13.8125H4.5625ZM6.5625 17.5938H18.4688V13.5938H6.5625V17.5938ZM20.4688 15.5938V14.8438H16.4688V15.5938H20.4688ZM20.4688 14.8438C20.4688 14.3219 20.3325 13.7761 20.0039 13.2832C19.6837 12.8028 19.2567 12.486 18.8476 12.2815C18.0859 11.9006 17.1959 11.8125 16.4062 11.8125V15.8125C16.672 15.8125 16.8584 15.8295 16.9798 15.8497C17.1066 15.8709 17.1163 15.8879 17.0587 15.8592C16.9933 15.8265 16.8241 15.7245 16.6757 15.502C16.519 15.2669 16.4688 15.0218 16.4688 14.8438H20.4688ZM19.696 10.0338L18.7585 8.53375L15.3665 10.6537L16.304 12.1537L19.696 10.0338ZM17.0625 7.59375H8.15625V11.5938H17.0625V7.59375ZM6.74204 8.17954C6.31153 8.61004 5.79481 9.00741 5.17976 9.36619L7.19524 12.8213C8.08019 12.3051 8.87597 11.7025 9.57046 11.008L6.74204 8.17954ZM6.1875 13.0938H18V9.09375H6.1875V13.0938ZM15.4688 16.4062H8.90625V20.4062H15.4688V16.4062ZM6.94509 18.7985C7.19998 20.0729 8.09428 20.8771 9.07935 21.2992C9.98889 21.689 11.0763 21.8125 12.1875 21.8125V17.8125C11.2987 17.8125 10.8392 17.7016 10.655 17.6226C10.5802 17.5906 10.621 17.593 10.6952 17.6745C10.781 17.7687 10.8434 17.8941 10.8674 18.014L6.94509 18.7985ZM12.1875 21.8125C13.2987 21.8125 14.3861 21.689 15.2957 21.2992C16.2807 20.8771 17.175 20.0729 17.4299 18.7985L13.5076 18.014C13.5316 17.8941 13.594 17.7687 13.6798 17.6745C13.754 17.593 13.7948 17.5906 13.72 17.6226C13.5358 17.7016 13.0763 17.8125 12.1875 17.8125V21.8125ZM26.1562 0.59375V-1.40625H24.1562V0.59375H26.1562ZM43.5938 0.59375L43.7415 -1.40079L43.6677 -1.40625H43.5938V0.59375ZM45.9375 3.5L47.8591 4.05432L47.9181 3.84988L47.9328 3.6376L45.9375 3.5ZM44.5312 8.375L42.6096 7.82068L41.8728 10.375H44.5312V8.375ZM47.625 8.375H49.625V6.375H47.625V8.375ZM47.625 11.375V13.375H49.625V11.375H47.625ZM38.625 11.375V9.375H36.625V11.375H38.625ZM38.0625 22.5312L39.5677 23.8483L39.6173 23.7915L39.6625 23.7312L38.0625 22.5312ZM32.4375 23.2812H30.4375V25.2812H32.4375V23.2812ZM32.4375 20.2812V18.2812H30.4375V20.2812H32.4375ZM34.5 20L32.8359 18.8906L32.6873 19.1135L32.6026 19.3675L34.5 20ZM24.9375 11.375H22.9375V13.375H24.9375V11.375ZM24.9375 8.375V6.375H22.9375V8.375H24.9375ZM40.2188 8.375V10.375H41.913L42.1915 8.7038L40.2188 8.375ZM40.4062 7.25L42.379 7.5788L42.7672 5.25H40.4062V7.25ZM26.7188 7.25H24.7188V9.25H26.7188V7.25ZM26.7188 4.625V2.625H24.7188V4.625H26.7188ZM41.1562 4.625V6.625H42.7473L43.105 5.07472L41.1562 4.625ZM41.4375 3.40625L43.3863 3.85597L43.9516 1.40625H41.4375V3.40625ZM26.1562 3.40625H24.1562V5.40625H26.1562V3.40625ZM27.0938 12.6875V10.6875H24.9202L25.1007 12.8536L27.0938 12.6875ZM30.8438 12.6875L32.8385 12.543L32.7041 10.6875H30.8438V12.6875ZM31.3125 19.1562L29.3177 19.3008L29.3281 19.4437L29.3587 19.5836L31.3125 19.1562ZM29.1562 22.8125V24.8125H29.3865L29.6107 24.7602L29.1562 22.8125ZM25.3125 22.8125H23.3125V24.8125H25.3125V22.8125ZM25.3125 19.4375V17.4375H23.3125V19.4375H25.3125ZM27.6562 19.4375V21.4375H29.8298L29.6493 19.2714L27.6562 19.4375ZM41.3438 19.625L43.3165 19.9538L43.3304 19.8707L43.3372 19.7866L41.3438 19.625ZM41.9062 12.6875V10.6875H40.0618L39.9128 12.5259L41.9062 12.6875ZM45.6562 12.6875L47.6471 12.8784L47.8572 10.6875H45.6562V12.6875ZM45 19.5312L43.0091 19.3403L42.799 21.5312H45V19.5312ZM47.4375 19.5312H49.4375V17.5312H47.4375V19.5312ZM47.4375 22.8125V24.8125H49.4375V22.8125H47.4375ZM44.1562 22.8125V20.8125H44.1007L44.0453 20.8156L44.1562 22.8125ZM26.1562 2.59375H43.5938V-1.40625H26.1562V2.59375ZM43.446 2.58829C43.9437 2.62516 43.9563 2.75364 43.8885 2.66957C43.8434 2.61362 43.9858 2.73072 43.9422 3.3624L47.9328 3.6376C48.0142 2.45678 47.8285 1.18325 47.0021 0.158558C46.1531 -0.894264 44.9313 -1.31266 43.7415 -1.40079L43.446 2.58829ZM44.0159 2.94568L42.6096 7.82068L46.4529 8.92932L47.8591 4.05432L44.0159 2.94568ZM44.5312 10.375H47.625V6.375H44.5312V10.375ZM45.625 8.375V11.375H49.625V8.375H45.625ZM47.625 9.375H38.625V13.375H47.625V9.375ZM36.625 11.375V20.9375H40.625V11.375H36.625ZM36.625 20.9375C36.625 21.0193 36.6082 21.137 36.4625 21.3313L39.6625 23.7312C40.2668 22.9255 40.625 21.9807 40.625 20.9375H36.625ZM36.5573 21.2142C36.5419 21.2319 36.5322 21.2394 36.5287 21.2419C36.5254 21.2443 36.5212 21.247 36.5129 21.2505C36.4987 21.2565 36.4329 21.2812 36.2812 21.2812V25.2812C37.5251 25.2812 38.699 24.841 39.5677 23.8483L36.5573 21.2142ZM36.2812 21.2812H32.4375V25.2812H36.2812V21.2812ZM34.4375 23.2812V20.2812H30.4375V23.2812H34.4375ZM32.4375 22.2812H33.8438V18.2812H32.4375V22.2812ZM33.8438 22.2812C34.1634 22.2812 34.6167 22.2465 35.0769 22.0492C35.5945 21.8274 36.1488 21.3781 36.3974 20.6325L32.6026 19.3675C32.7887 18.8094 33.2023 18.5007 33.5012 18.3726C33.7427 18.2692 33.8991 18.2812 33.8438 18.2812V22.2812ZM36.1641 21.1094C36.4633 20.6606 36.6875 20.0936 36.6875 19.4375H32.6875C32.6875 19.1564 32.7867 18.9644 32.8359 18.8906L36.1641 21.1094ZM36.6875 19.4375V13.1562H32.6875V19.4375H36.6875ZM36.6875 13.1562C36.6875 12.0249 36.2462 10.9169 35.2057 10.1847C34.2937 9.54291 33.1735 9.375 32.1562 9.375V13.375C32.4673 13.375 32.6769 13.403 32.8069 13.4335C32.9364 13.4639 32.9488 13.4876 32.9037 13.4559C32.846 13.4153 32.7713 13.3375 32.7218 13.2331C32.6772 13.1389 32.6875 13.0957 32.6875 13.1562H36.6875ZM32.1562 9.375H24.9375V13.375H32.1562V9.375ZM26.9375 11.375V8.375H22.9375V11.375H26.9375ZM24.9375 10.375H40.2188V6.375H24.9375V10.375ZM42.1915 8.7038L42.379 7.5788L38.4335 6.9212L38.246 8.0462L42.1915 8.7038ZM40.4062 5.25H26.7188V9.25H40.4062V5.25ZM28.7188 7.25V4.625H24.7188V7.25H28.7188ZM26.7188 6.625H41.1562V2.625H26.7188V6.625ZM43.105 5.07472L43.3863 3.85597L39.4887 2.95653L39.2075 4.17528L43.105 5.07472ZM41.4375 1.40625H26.1562V5.40625H41.4375V1.40625ZM28.1562 3.40625V0.59375H24.1562V3.40625H28.1562ZM27.0938 14.6875H30.8438V10.6875H27.0938V14.6875ZM28.849 12.832L29.3177 19.3008L33.3073 19.0117L32.8385 12.543L28.849 12.832ZM29.3587 19.5836C29.5174 20.309 29.3872 20.5401 29.3788 20.5543C29.3726 20.5649 29.3521 20.5994 29.2693 20.6522C29.1772 20.7111 29.003 20.7945 28.7018 20.8648L29.6107 24.7602C30.8821 24.4635 32.0984 23.8171 32.8243 22.5863C33.5346 21.3818 33.5451 20.0035 33.2663 18.7289L29.3587 19.5836ZM29.1562 20.8125H25.3125V24.8125H29.1562V20.8125ZM27.3125 22.8125V19.4375H23.3125V22.8125H27.3125ZM25.3125 21.4375H27.6562V17.4375H25.3125V21.4375ZM29.6493 19.2714L29.0868 12.5214L25.1007 12.8536L25.6632 19.6036L29.6493 19.2714ZM43.3372 19.7866L43.8997 12.8491L39.9128 12.5259L39.3503 19.4634L43.3372 19.7866ZM41.9062 14.6875H45.6562V10.6875H41.9062V14.6875ZM43.6654 12.4966L43.0091 19.3403L46.9909 19.7222L47.6471 12.8784L43.6654 12.4966ZM45 21.5312H47.4375V17.5312H45V21.5312ZM45.4375 19.5312V22.8125H49.4375V19.5312H45.4375ZM47.4375 20.8125H44.1562V24.8125H47.4375V20.8125ZM44.0453 20.8156C43.1699 20.8642 43.1377 20.6415 43.2653 20.7861C43.3197 20.8477 43.3001 20.871 43.2804 20.755C43.258 20.6234 43.2472 20.3698 43.3165 19.9538L39.371 19.2962C39.1444 20.6557 39.2082 22.2338 40.2659 23.4326C41.3311 24.6397 42.8926 24.8858 44.2672 24.8094L44.0453 20.8156Z" fill="#657EDD" mask="url(#path-1-outside-1_179_1246)"/>
</svg>
