<svg width="336" height="349" viewBox="0 0 336 349" fill="none" xmlns="http://www.w3.org/2000/svg">
<path d="M58.5856 20C53.7753 8.70782 48.091 16.2949 45.5856 21L42.0856 17C36.8745 12.1605 32.2723 20.7761 32.1053 24.4729C24.0881 19.6334 22.4179 27.4976 22.5849 32.0346C12.9643 30.4215 8.55492 39.0922 7.55277 43.6293C7.15192 47.6622 15.7369 46.3179 19.5785 47.1581C-5.67553 62.8865 4.04524 85.975 12.5635 93.5367C-3.8717 101.603 2.2366 110.803 9.58566 114.5C-1.9144 122 2.0856 138.5 9.58566 145C6.0856 147 1.08557 153 1.0856 158.5C0.085681 164.5 8.0857 169 12.5858 171C7.08569 173.5 6.04953 178.5 12.5857 181.5C8.58566 181.5 4.58565 188 3.54417 190.5C5.04418 194.5 9.08566 194.5 12.5857 194.5C9.07816 198.533 4.58566 202 6.04953 213C6.2474 214.487 8.58566 220 14.0667 222.5C1.08566 235 8.88893 244.951 14.0667 251C6.04953 255 9.58566 259.5 14.0667 262.5C-6.77792 272.582 7.05169 294 14.0667 296.695C3.64439 305.568 9.72406 312.827 14.0667 315.347C9.65724 334.302 22.9189 329.294 30.101 324.421C29.7001 332.487 41.2916 330.807 47.1374 328.958C65.5768 351.139 85.2189 337.528 92.735 327.95C94.3384 331.983 98.4138 331.311 100.251 330.471C108.669 358.701 122.465 346.602 128.311 337.024C136.328 350.736 142.007 339.041 143.844 331.479C161.482 341.965 167.562 330.807 168.397 323.917C171.604 345.292 183.429 338.537 188.941 332.487C196.958 340.15 201.301 334.336 202.47 330.471C224.116 351.442 239.215 337.192 244.059 327.446C250.873 338.335 260.594 329.631 264.603 323.917C271.016 343.679 285.314 337.864 291.66 332.487C299.678 344.183 306.025 331.647 308.196 323.917C330.644 323.917 326.568 306.777 321.725 298.207C335.755 287.319 329.241 277.875 324.23 274.514C333.049 268.465 328.573 257.439 322.727 253.574C332.748 247.928 327.738 241.956 325.232 237.587C338.861 237.587 332.08 223.766 328.239 218.053C339.463 198.292 329.909 181.589 323.729 175.707C328.138 172.078 326.568 165.829 323.729 163.645C339.362 157.192 331.245 148.821 326.736 144.956C331.947 139.31 326.902 135.546 323.729 134.37C335.755 121.868 327.571 113.044 321.725 110.187C329.341 110.994 327.07 101.434 325.232 96.5614C341.267 86.4791 331.913 72.5319 325.232 66.8186C337.258 52.3001 328.573 47.6622 322.727 47.1581C329.942 27.8001 318.751 25.9853 311.569 28.5058C308.567 18.2415 298.06 21.4482 292.556 32.0346C292.155 11.87 278.221 14.8947 271.54 20.9441C261.533 -17.7124 252.526 9.76594 252.526 20.9441C242.505 14.8948 237.183 19.4318 236.515 24.4729C229.7 6.72806 219.507 16.5751 216.5 22.9606C202.47 1.58608 193.656 17.5834 189.481 26.4894C183.869 14.3906 178.251 22.1204 176.414 26.4894C177.216 13.1807 169.733 20.272 165.891 25.4812C165.491 23.0614 164.388 21.4482 163.887 20.9441C149.456 1.98939 145.117 11.534 143.948 20.9441C139.939 12.475 132.257 19.4318 130.086 22.9606C128.086 20.5 126.086 18.7916 123.586 17.5C122.618 17 121.586 18.5 120.086 22C113.086 20 76.5857 12.5 75.0857 22L58.5856 20Z" fill="#D3FFFC"/>
<path d="M271.54 20.9441C261.533 -17.7124 252.526 9.76594 252.526 20.9441C242.505 14.8948 237.183 19.4318 236.515 24.4729C229.7 6.72806 219.507 16.5751 216.5 22.9606C202.47 1.58608 193.656 17.5834 189.481 26.4894C183.869 14.3906 178.251 22.1204 176.414 26.4894C177.216 13.1807 169.733 20.272 165.891 25.4812C165.491 23.0614 164.388 21.4482 163.887 20.9441C149.456 1.98939 145.117 11.534 143.948 20.9441C139.939 12.475 132.257 19.4318 130.086 22.9606C128.086 20.5 126.086 18.7916 123.586 17.5C122.618 17 121.586 18.5 120.086 22C113.086 20 76.5857 12.5 75.0857 22L58.5856 20C53.7754 8.70782 48.091 16.2949 45.5856 21L42.0856 17C36.8745 12.1605 32.2723 20.7761 32.1053 24.4729C24.0881 19.6334 22.4179 27.4976 22.5849 32.0346C12.9643 30.4215 8.55492 39.0922 7.55277 43.6293C7.15192 47.6622 15.7369 46.3179 19.5785 47.1581C-5.67553 62.8865 4.04524 85.975 12.5635 93.5367C-3.8717 101.603 2.2366 110.803 9.58566 114.5C-1.9144 122 2.0856 138.5 9.58566 145C6.0856 147 1.08557 153 1.0856 158.5C0.085681 164.5 8.0857 169 12.5858 171C7.08569 173.5 6.04953 178.5 12.5857 181.5C8.58566 181.5 4.58565 188 3.54417 190.5C5.04417 194.5 9.08566 194.5 12.5857 194.5C9.07816 198.533 4.58566 202 6.04953 213C6.2474 214.487 8.58566 220 14.0667 222.5C1.08566 235 8.88893 244.951 14.0667 251C6.04953 255 9.58566 259.5 14.0667 262.5C-6.77792 272.582 7.05169 294 14.0667 296.695C3.64439 305.567 9.72406 312.827 14.0667 315.347C9.65724 334.302 22.9189 329.294 30.101 324.421C29.7001 332.487 41.2916 330.807 47.1374 328.958C65.5768 351.139 85.2189 337.528 92.735 327.95C94.3384 331.983 98.4138 331.311 100.251 330.471C108.669 358.701 122.465 346.602 128.311 337.024C136.328 350.736 142.007 339.041 143.844 331.479C161.482 341.965 167.562 330.807 168.397 323.917C171.604 345.292 183.429 338.537 188.941 332.487C196.958 340.15 201.301 334.336 202.47 330.471C224.116 351.442 239.215 337.192 244.059 327.446C250.873 338.335 260.594 329.631 264.603 323.917C271.016 343.679 285.314 337.864 291.66 332.487C299.678 344.183 306.025 331.647 308.196 323.917C330.644 323.917 326.568 306.777 321.725 298.207C335.755 287.319 329.241 277.875 324.23 274.514C333.049 268.465 328.573 257.439 322.727 253.574C332.748 247.928 327.738 241.956 325.232 237.587C338.861 237.587 332.08 223.766 328.239 218.053C339.463 198.292 329.909 181.589 323.729 175.707C328.138 172.078 326.568 165.829 323.729 163.645C339.362 157.192 331.245 148.821 326.736 144.956C331.947 139.31 326.902 135.546 323.729 134.37C335.755 121.868 327.571 113.044 321.725 110.187C329.341 110.994 327.07 101.434 325.232 96.5614C341.267 86.4791 331.913 72.5319 325.232 66.8186C337.258 52.3001 328.573 47.6622 322.727 47.1581C329.942 27.8001 318.751 25.9853 311.569 28.5058C308.567 18.2415 298.06 21.4482 292.556 32.0346C292.155 11.87 278.221 14.8947 271.54 20.9441ZM271.54 20.9441V28.5058" stroke="#1935A3" stroke-width="2"/>
</svg>
