<svg width="520" height="722" viewBox="0 0 520 722" fill="none" xmlns="http://www.w3.org/2000/svg">
<path d="M225.915 11.4583C215.539 1.08226 211.504 15.7817 210.784 24.4284C188.302 -6.69977 165.388 31.634 156.742 54.6918C125.613 49.5038 125.037 82.7936 128.64 100.087C92.3236 100.087 91.8913 133.233 96.2147 149.806C73.7332 142.888 68.1129 165.658 68.1129 177.907C52.5488 165.802 44.3344 182.951 42.1727 193.039C26.6087 212.062 35.6877 232.67 42.1727 240.596C31.7967 250.972 37.8494 260.772 42.1727 264.374C26.6087 262.645 24.1588 289.594 24.8793 303.285C2.3979 320.578 5.42425 343.636 9.7476 353.003C-2.35779 378.943 14.7915 395.516 24.8793 400.56C19.6913 412.665 22.7177 422.897 24.8793 426.5C12.7739 426.5 14.0709 443.794 16.2326 452.44C-13.1662 464.546 3.9831 483.424 16.2326 491.351C24.8793 539.772 73.1568 540.349 96.2147 534.584C94.4853 565.712 147.374 582.141 174.035 586.464C182.682 602.028 212.225 600.155 225.915 597.273C238.021 597.273 239.606 590.067 238.885 586.464H271.31C285.145 615.863 334.72 601.596 357.778 590.788C346.249 592.949 330.973 595.111 362.101 586.464C393.229 577.818 402.452 558.362 403.173 549.716C436.03 565.28 451.45 533.143 455.053 515.129C487.91 525.505 503.33 496.394 506.933 480.542C529.415 473.625 516.3 458.925 506.933 452.44C515.58 440.335 499.007 408.486 489.64 394.075C510.392 335.277 465.141 278.786 439.921 257.889C446.839 188.716 418.304 162.776 403.173 158.452C399.714 104.843 359.939 97.2048 340.484 100.087C323.191 32.6427 287.163 12.8994 271.31 11.4583C255.746 -9.29379 234.562 2.8116 225.915 11.4583Z" fill="#588892"/>
<path d="M506.933 453.952C515.58 441.847 499.007 409.998 489.64 395.587C480.64 409.277 458.095 429.741 439.921 402.072C403.173 410.719 389.482 381.896 385.879 354.515C387.609 375.267 370.748 371.808 362.101 367.485C351.725 402.072 337.602 381.896 331.837 367.485C337.025 405.531 312.382 412.16 299.412 410.719C280.39 428.862 264.105 412.514 258.34 402.072C244.868 411.054 236.042 412.989 230.487 410.719C222.845 429.453 220.311 465.625 271.31 460.437C271.31 495.024 241.047 489.26 225.915 482.054C196.516 499.347 190.608 474.848 191.328 460.437C153.283 443.144 159.624 404.966 167.55 388.039C161.729 381.782 158.201 373.322 156.742 367.485C151.554 386.508 135.845 382.617 128.64 378.293C121.722 424.986 85.4063 409.277 68.1129 395.587C45.6314 411.151 29.9232 406.395 24.8793 402.072C19.6913 414.177 22.7177 424.409 24.8793 428.012C12.7739 428.012 14.0709 445.305 16.2326 453.952C-13.1662 466.058 3.9831 484.936 16.2326 492.862C24.8793 541.284 73.1568 541.86 96.2147 536.096C94.4853 567.224 147.374 583.653 174.035 587.976C182.682 603.54 212.225 601.667 225.915 598.784C238.021 598.784 239.606 591.579 238.885 587.976H271.31C285.145 617.375 334.72 603.108 357.778 592.299C346.249 594.461 330.973 596.623 362.101 587.976C393.229 579.329 402.452 559.874 403.173 551.228C436.03 566.792 451.45 534.655 455.053 516.641C487.91 527.017 503.33 497.906 506.933 482.054C529.415 475.137 516.3 460.437 506.933 453.952Z" fill="#456A84"/>
<path d="M389.102 423.689C383.914 397.748 368.206 408.557 361 417.204C341.977 401.64 338.663 420.806 339.383 432.335C315.172 450.473 332.898 482.054 345.868 473.407C354.515 492.862 375.411 472.687 378.293 462.599C409.422 462.599 398.469 436.659 389.102 423.689Z" fill="#578795"/>
<path d="M113.01 450.685C113.01 438.58 101.481 441.318 95.7162 444.2C80.1522 435.553 79.1434 446.362 80.5845 452.847C71.9378 471.869 85.6284 469.42 93.5545 465.817C105.66 493.486 114.451 475.905 117.333 463.655C113.73 467.258 109.119 471.869 119.495 461.493C129.871 451.117 119.495 449.964 113.01 450.685Z" fill="#578795"/>
<path d="M274.533 722V587.976H237.784V722H274.533Z" fill="url(#paint0_linear_32_68)"/>
<defs>
<linearGradient id="paint0_linear_32_68" x1="256.159" y1="587.976" x2="256.159" y2="722" gradientUnits="userSpaceOnUse">
<stop stop-color="#9486A9"/>
<stop offset="1" stop-color="#695D83"/>
</linearGradient>
</defs>
</svg>
