<svg width="343" height="636" viewBox="0 0 343 636" fill="none" xmlns="http://www.w3.org/2000/svg">
<path d="M262.735 600.544L194.179 546.318H149.459L80.5142 600.544L102.875 602.63L114.055 600.544L147.595 596.373L156.912 621.401L169.956 636L181.136 621.401L192.316 596.373L227.331 602.63L262.735 600.544Z" fill="#76687D"/>
<path d="M192.316 579.688V448.293H149.459V598.458L192.316 579.688Z" fill="url(#paint0_linear_32_56)"/>
<path d="M15.2963 304.384C-14.5176 267.677 7.84281 230.692 22.7497 216.788C79.893 176.465 193.807 96.6551 192.316 99.9921C190.825 103.329 261.261 163.951 296.664 193.846C353.311 200.52 346.354 248.072 335.795 271.014C340.267 291.036 322.752 293.261 313.435 291.87C320.888 300.213 314.056 307.86 309.708 310.641C345.485 318.984 342.006 368.344 335.795 391.981C320.888 445.373 262.503 442.036 235.173 433.693C224.739 490.423 188.589 469.844 171.819 452.464C122.626 487.503 110.328 446.207 110.328 421.18C73.0606 446.207 36.4144 426.046 22.7497 412.837C-14.5176 376.13 2.25272 325.24 15.2963 304.384Z" fill="url(#paint1_linear_32_56)"/>
<path d="M184.863 8.22428C177.409 -8.46079 170.577 4.05301 168.092 12.3955C154.676 9.05853 152.564 22.1285 153.185 29.0806C141.26 22.4066 135.794 34.6423 134.552 41.5944C104.738 41.5944 109.707 66.622 115.918 79.1358C89.8309 79.1358 85.4831 91.6496 82.3775 106.249C28.3399 110.42 48.8369 168.818 43.2468 164.647C38.7747 161.31 27.7187 170.208 22.7498 175.075C10.8242 195.097 12.8118 216.788 15.2963 225.13C4.86146 236.81 7.22172 259.195 9.70621 268.928C20.1411 282.276 32.6877 280.052 37.6567 277.271C55.545 273.934 55.0481 236.949 52.5636 218.873C67.4706 223.879 71.1973 207.055 71.1973 198.017C74.1787 233.056 92.3154 230.692 101.011 225.13C115.918 213.451 107.222 184.113 101.011 170.904C108.465 180.915 114.055 170.904 115.918 164.647C118.899 203.022 137.036 187.589 145.732 175.075C154.676 188.423 159.397 176.465 160.639 168.818C182.999 181.332 186.726 143.79 186.726 145.876C185.235 152.55 193.558 151.438 197.906 150.047C196.415 165.064 208.465 170.208 214.676 170.904C208.714 185.92 222.13 188.284 229.583 187.589C229.583 200.937 243.248 205.664 250.08 206.359C251.571 224.713 261.882 226.521 266.851 225.13C277.286 226.799 274.925 211.921 272.441 204.274C287.348 215.953 292.317 203.579 292.938 195.931C301.882 189.257 296.665 176.465 292.938 170.904C310.826 124.185 283 108.335 266.851 106.249C269.832 86.227 251.944 79.831 242.627 79.1358C247.099 69.1248 235.795 62.4507 229.583 60.3651C229.583 32.0005 209.707 36.0327 199.77 41.5944C207.223 14.8983 192.937 8.22428 184.863 8.22428Z" fill="#83BE95"/>
<path d="M89.8309 341.926C104.738 353.605 105.98 339.84 104.738 331.497C116.663 323.155 109.707 321.069 104.738 321.069C100.266 296.042 92.9365 307.86 89.8309 316.898C73.4333 326.909 82.9986 337.754 89.8309 341.926Z" fill="#83BE95"/>
<path d="M182.999 321.069C180.018 289.368 164.366 300.908 156.912 310.641C136.042 325.658 148.216 337.754 156.912 341.926C170.328 358.611 176.167 341.926 177.409 331.497C190.825 334.834 186.726 325.936 182.999 321.069Z" fill="#83BE95"/>
<path d="M207.223 325.241C205.732 316.898 215.298 316.203 220.267 316.898C212.813 300.969 223.372 297.747 229.583 298.127C229.583 285.613 237.658 280.052 246.354 277.271C238.9 267.26 249.459 264.757 255.67 264.757C288.466 251.409 291.696 278.661 289.211 293.956C298.155 323.989 281.758 321.764 272.441 316.898C264.987 335.252 246.975 330.107 238.9 325.241C240.391 343.594 227.099 337.059 220.267 331.497C208.341 336.503 206.602 329.412 207.223 325.241Z" fill="#83BE95"/>
<defs>
<linearGradient id="paint0_linear_32_56" x1="170.887" y1="448.293" x2="170.887" y2="598.458" gradientUnits="userSpaceOnUse">
<stop stop-color="#9487A3"/>
<stop offset="0.455698" stop-color="#8F78A2"/>
<stop offset="0.932919" stop-color="#76687D"/>
</linearGradient>
<linearGradient id="paint1_linear_32_56" x1="171.5" y1="99.8906" x2="171.5" y2="470.874" gradientUnits="userSpaceOnUse">
<stop offset="0.32787" stop-color="#619B8C"/>
<stop offset="0.749187" stop-color="#528D8F"/>
</linearGradient>
</defs>
</svg>
