<svg width="496" height="670" viewBox="0 0 496 670" fill="none" xmlns="http://www.w3.org/2000/svg">
<path d="M310.6 632.688C315.31 613.22 291.954 585.642 279.687 574.286V527.24C299.805 525.617 340.924 512.639 344.457 473.705V425.036H316.488V465.593C319.432 478.571 316.194 504.203 279.687 502.906V450.993L207.557 455.86V509.395C194.603 511.99 182.533 497.498 178.117 489.927L156.036 496.417C157.214 517.182 188.912 537.514 204.613 545.085V588.886C184.594 597.971 178.607 626.199 178.117 639.177H204.613C206.969 627.496 220.315 629.984 226.694 632.688C227.871 649.559 245.83 664.592 254.663 670C264.084 660.915 266.439 637.014 266.439 626.199C277.038 636.581 300.296 634.851 310.6 632.688Z" fill="url(#paint0_linear_32_61)"/>
<g filter="url(#filter0_f_32_61)">
<path d="M253.326 569.419C242.727 610.949 250.872 620.25 256.27 619.709C253.915 606.731 261.177 604.568 265.102 605.109C269.813 599.918 290.618 607.272 300.431 611.598C298.076 596.024 279.823 573.745 270.99 564.552L253.326 569.419Z" fill="#84627A"/>
<path d="M234.189 569.419L206.221 575.908V595.375L192.972 600.242C184.729 606.731 189.538 623.495 192.972 631.065L209.165 624.576L212.109 611.598L231.245 605.109C237.134 597.322 235.661 578.071 234.189 569.419Z" fill="#84627A"/>
</g>
<path d="M462.273 368.257C512.911 320.237 495.148 255.238 479.937 228.741L22.1338 222.252C-4.95174 233.932 2.99727 260.646 10.3575 272.542C-3.7741 276.436 -0.437515 291.469 2.99722 298.499C-8.77908 347.816 21.643 376.368 38.3261 384.479C38.3261 449.37 82.4873 465.593 104.568 465.593C110.456 490.252 134.499 489.927 145.785 486.683C162.272 521.724 185.039 505.609 194.362 493.172C221.448 502.257 236.07 482.897 239.995 472.082C245.883 488.954 255.206 479.112 259.132 472.082C282.684 508.421 316.051 487.224 329.79 472.082C359.23 499.337 394.069 472.623 407.808 455.86C441.959 467.54 448.534 428.281 447.553 407.191C465.217 400.702 464.726 378.531 462.273 368.257Z" fill="#44687E"/>
<path d="M55.9906 165.472C46.5695 143.409 60.4068 116.804 73.6551 116.804L413.696 95.7142C450.497 102.203 459.329 152.494 453.441 165.472C486.414 177.152 487.788 212.518 484.354 228.741C478.465 261.186 448.534 254.157 434.304 246.586C447.258 314.073 409.28 339.596 388.671 343.922C381.605 378.964 361.193 377.99 351.87 373.123C356.581 404.271 335.187 408.813 323.902 407.191C320.369 429.254 307.709 418.547 301.821 410.436C294.755 419.521 287.101 414.221 284.157 410.436C264.137 440.286 250.3 420.71 245.884 407.191C196.423 452.615 167.375 417.466 159.033 394.213C137.836 398.106 139.406 378.531 142.841 368.257C125.176 369.554 121.742 352.575 122.232 343.922C83.3706 353.007 69.7296 318.507 67.7669 300.121C43.0366 294.93 49.6117 263.349 55.9906 248.208C41.859 258.591 27.5312 243.882 22.1338 235.23C0.936454 194.998 35.8728 171.961 55.9906 165.472Z" fill="#5A8D91"/>
<path d="M223.728 14.4624C182.511 5.37769 158.467 36.6335 151.598 53.3971C104.493 37.8232 82.9027 80.435 77.9959 103.688C59.1538 119.261 75.0518 126.4 85.3561 128.022C71.2245 146.191 79.4679 165.875 85.3561 173.446C59.4482 216.274 96.151 237.796 117.741 243.203C123.629 295.116 169.262 303.768 191.343 301.605C180.744 352.22 213.423 346.488 231.088 337.295C248.752 371.039 275.74 351.355 287.025 337.295C310.578 343.784 311.559 323.776 309.106 312.961C352.678 314.259 373.385 256.182 378.292 226.981C414.798 228.278 413.13 188.587 407.732 168.579C421.864 163.387 413.62 144.785 407.732 136.133C423.925 103.688 416.565 80.9758 400.372 67.9976C385.063 49.8281 355.72 52.3156 345.907 53.3971C335.308 13.1646 294.385 7.43263 275.249 9.5957C256.407 -9.87161 233.051 4.72881 223.728 14.4624Z" fill="#83C691"/>
<path d="M194.468 117.458C195.449 113.673 200.945 106.427 215.077 107.725C207.226 103.399 194.762 91.8265 207.716 80.1461C204.282 68.2494 203.595 47.3761 228.325 59.0565C230.288 51.4859 238.924 38.6159 257.766 47.7006C264.635 39.0485 278.963 29.2067 281.318 59.0565C288.274 61.7619 298.982 69.656 295.521 81.9862C298.669 77.8001 303.356 75.2436 309.287 80.1461C306.834 66.6271 310.17 43.4826 343.144 59.0565C352.957 56.8935 370.229 60.0299 360.808 89.8797C365.224 97.9911 368.463 114.538 346.088 115.836C354.429 124.488 364.93 144.388 340.2 154.771C342.162 168.29 339.316 191.759 312.231 177.483C313.703 183.431 312.525 194.679 296.039 192.083C298.983 195.868 302.221 204.088 291.622 206.684C290.15 213.713 283.968 226.151 271.014 219.662C267.579 228.314 258.06 241.4 247.461 224.529C240.592 225.069 227.736 222.257 231.269 206.684C223.909 216.417 206.244 229.395 194.468 203.439C188.089 206.684 175.331 208.955 175.331 192.083C169.934 187.216 162.378 175.211 175.331 166.127C173.859 162.341 172.976 154.771 181.22 154.771C175.332 154.771 164.733 152.175 169.443 141.793C165.518 139.089 159.139 131.41 165.027 122.325C161.592 116.918 157.961 105.454 170.915 102.858C177.785 96.3688 192.113 90.204 194.468 117.458Z" fill="#C5E790"/>
<path d="M157.667 67.1679C145.891 48.9984 141.965 62.8418 141.475 72.0347C132.054 82.4173 139.512 88.2575 144.419 89.8797C138.531 100.262 147.854 100.695 153.251 99.6134C162.672 107.4 166.009 97.4504 166.499 91.502C177.098 75.9282 165.027 68.7902 157.667 67.1679Z" fill="#C5E790"/>
<defs>
<filter id="filter0_f_32_61" x="184.421" y="560.552" width="120.01" height="74.5134" filterUnits="userSpaceOnUse" color-interpolation-filters="sRGB">
<feFlood flood-opacity="0" result="BackgroundImageFix"/>
<feBlend mode="normal" in="SourceGraphic" in2="BackgroundImageFix" result="shape"/>
<feGaussianBlur stdDeviation="2" result="effect1_foregroundBlur_32_61"/>
</filter>
<linearGradient id="paint0_linear_32_61" x1="250.246" y1="425.036" x2="250.246" y2="670" gradientUnits="userSpaceOnUse">
<stop offset="0.380894" stop-color="#454869"/>
<stop offset="1" stop-color="#765D70"/>
</linearGradient>
</defs>
</svg>
