<svg width="460" height="655" viewBox="0 0 460 655" fill="none" xmlns="http://www.w3.org/2000/svg">
<path d="M288.145 618.523C292.515 599.491 270.847 572.53 259.467 561.428V515.436C278.131 513.85 316.277 501.162 319.554 463.099V415.521H293.608V455.169C296.339 467.857 293.335 492.915 259.467 491.646V440.896L192.552 445.654V497.99C180.535 500.528 169.337 486.36 165.24 478.959L144.755 485.303C145.848 505.603 175.254 525.48 189.821 532.881V575.702C171.248 584.583 165.695 612.179 165.24 624.867H189.821C192.006 613.448 204.387 615.88 210.305 618.523C211.398 635.017 228.058 649.713 236.252 655C244.992 646.119 247.177 622.752 247.177 612.179C257.009 622.329 278.586 620.638 288.145 618.523Z" fill="url(#paint0_linear_32_74)"/>
<g filter="url(#filter0_f_32_74)">
<path d="M235.012 556.671C225.179 597.271 232.736 606.364 237.743 605.835C235.558 593.148 242.295 591.033 245.937 591.562C250.307 586.487 269.608 593.676 278.712 597.906C276.527 582.68 259.593 560.9 251.399 551.913L235.012 556.671Z" fill="#84627A"/>
<path d="M217.259 556.671L191.312 563.015V582.046L179.022 586.804C171.374 593.148 175.835 609.536 179.022 616.937L194.043 610.593L196.775 597.906L214.528 591.562C219.99 583.949 218.624 565.129 217.259 556.671Z" fill="#84627A"/>
</g>
<path d="M428.853 360.012C475.83 313.068 459.352 249.524 445.241 223.62L20.5336 217.276C-4.59376 228.695 2.78058 254.81 9.60867 266.441C-3.50126 270.247 -0.405885 284.944 2.78054 291.816C-8.1444 340.029 20.0784 367.942 35.5554 375.872C35.5554 439.31 76.5239 455.17 97.0081 455.17C102.471 479.276 124.776 478.959 135.245 475.787C150.54 510.044 171.662 494.29 180.311 482.131C205.438 491.012 219.003 472.086 222.645 461.513C228.107 478.007 236.756 468.386 240.398 461.513C262.248 497.039 293.202 476.316 305.948 461.513C333.26 488.157 365.58 462.042 378.325 445.654C410.008 457.073 416.107 418.693 415.197 398.075C431.584 391.731 431.129 370.057 428.853 360.012Z" fill="#44687E"/>
<path d="M51.9427 161.768C43.2028 140.199 56.0397 114.189 68.3302 114.189L383.788 93.5714C417.928 99.9152 426.122 149.08 420.659 161.768C451.249 173.186 452.524 207.76 449.337 223.62C443.875 255.339 416.107 248.466 402.906 241.065C414.924 307.041 379.691 331.994 360.572 336.223C354.017 370.479 335.081 369.528 326.432 364.77C330.802 395.22 310.955 399.661 300.485 398.075C297.208 419.644 285.463 409.177 280.001 401.247C273.446 410.128 266.345 404.948 263.613 401.247C245.041 430.429 232.204 411.291 228.107 398.075C182.223 442.482 155.275 408.119 147.536 385.387C127.871 389.194 129.328 370.056 132.514 360.012C116.127 361.281 112.94 344.681 113.396 336.223C77.3433 345.104 64.6885 311.376 62.8677 293.402C39.9252 288.327 46.025 257.454 51.9427 242.651C38.8327 252.801 25.5408 238.422 20.5336 229.964C0.868694 190.632 33.2793 168.111 51.9427 161.768Z" fill="#5A8D91"/>
<path d="M207.553 14.1387C169.316 5.25729 147.011 35.8134 140.638 52.2016C96.9383 36.9764 76.9092 78.6342 72.3571 101.366C54.8772 116.591 69.6259 123.57 79.1852 125.156C66.0753 142.918 73.7228 162.161 79.1852 169.562C55.1503 211.432 89.1997 232.472 109.229 237.759C114.691 288.509 157.025 296.968 177.51 294.853C167.677 344.335 197.994 338.731 214.381 329.744C230.769 362.732 255.805 343.489 266.275 329.744C288.125 336.088 289.035 316.528 286.759 305.955C327.181 307.223 346.391 250.446 350.943 221.899C384.81 223.168 383.263 184.365 378.255 164.805C391.365 159.729 383.718 141.544 378.255 133.085C393.277 101.366 386.449 79.1629 371.427 66.4752C357.225 48.7125 330.004 51.1443 320.9 52.2016C311.067 12.8699 273.103 7.26623 255.35 9.38087C237.87 -9.65061 216.202 4.62294 207.553 14.1387Z" fill="#83C691"/>
<path d="M180.409 114.829C181.319 111.128 186.418 104.044 199.528 105.313C192.244 101.084 180.682 89.7705 192.7 78.3516C189.513 66.7213 188.876 46.3153 211.818 57.7342C213.639 50.3331 221.651 37.7512 239.131 46.6325C245.503 38.1741 258.795 28.5526 260.98 57.7342C267.433 60.3791 277.367 68.0964 274.157 80.1505C277.077 76.0582 281.425 73.5589 286.927 78.3516C284.651 65.1353 287.747 42.509 318.336 57.7342C327.441 55.6196 343.464 58.6858 334.724 87.8674C338.821 95.7972 341.825 111.974 321.068 113.243C328.806 121.701 338.548 141.156 315.605 151.306C317.426 164.522 314.786 187.465 289.658 173.509C291.024 179.324 289.932 190.32 274.637 187.783C277.368 191.483 280.372 199.519 270.54 202.056C269.174 208.929 263.439 221.088 251.421 214.744C248.235 223.202 239.404 235.996 229.571 219.502C223.198 220.03 211.272 217.281 214.549 202.056C207.721 211.572 191.334 224.26 180.409 198.884C174.491 202.056 162.656 204.277 162.656 187.783C157.649 183.025 150.639 171.289 162.656 162.407C161.29 158.707 160.471 151.306 168.119 151.306C162.656 151.306 152.824 148.768 157.194 138.618C153.552 135.975 147.634 128.468 153.097 119.586C149.91 114.3 146.542 103.093 158.559 100.555C164.932 94.2111 178.224 88.1844 180.409 114.829Z" fill="#C5E790"/>
<path d="M146.269 65.664C135.344 47.9013 131.702 61.4348 131.247 70.4218C122.507 80.572 129.426 86.2814 133.978 87.8674C128.516 98.0175 137.165 98.4404 142.172 97.3831C150.912 104.996 154.007 95.2685 154.462 89.4533C164.295 74.2281 153.097 67.2499 146.269 65.664Z" fill="#C5E790"/>
<defs>
<filter id="filter0_f_32_74" x="170.799" y="547.913" width="111.913" height="73.0242" filterUnits="userSpaceOnUse" color-interpolation-filters="sRGB">
<feFlood flood-opacity="0" result="BackgroundImageFix"/>
<feBlend mode="normal" in="SourceGraphic" in2="BackgroundImageFix" result="shape"/>
<feGaussianBlur stdDeviation="2" result="effect1_foregroundBlur_32_74"/>
</filter>
<linearGradient id="paint0_linear_32_74" x1="232.155" y1="415.521" x2="232.155" y2="655" gradientUnits="userSpaceOnUse">
<stop offset="0.380894" stop-color="#454869"/>
<stop offset="1" stop-color="#765D70"/>
</linearGradient>
</defs>
</svg>
