<svg width="294" height="852" viewBox="0 0 294 852" fill="none" xmlns="http://www.w3.org/2000/svg">
<g opacity="0.5">
<path d="M56.358 17.9074C44.7696 13.028 38.2638 18.9239 33.1812 21.5669C30.7416 1.43968 17.3235 3.26949 8.17475 9.36856C-2.19377 17.9074 3.09214 28.0726 8.17475 34.375C4.51521 41.694 -0.364087 50.7208 6.95487 64.8707C11.687 74.0194 37.9815 76.4059 55.748 74.6293C74.0455 72.7996 94.7824 61.8211 98.4419 48.403C101.37 33.2771 92.1395 24.4131 85.6338 21.5669C91.733 9.36856 88.0735 1.43965 74.0455 -1C56.358 -1 55.1381 8.14871 56.358 17.9074Z" fill="#CFECB4"/>
<ellipse cx="64.3245" cy="15.5164" rx="2.43965" ry="3.65948" transform="rotate(-8.8322 64.3245 15.5164)" fill="#5D4A4A"/>
<ellipse cx="25.7372" cy="21.5668" rx="2.43965" ry="3.65948" transform="rotate(-19.7887 25.7372 21.5668)" fill="#5D4A4A"/>
<path d="M48.8706 24.201L43.0874 25.6468C42.6422 25.7581 42.3177 26.1612 42.3892 26.6145C42.7885 29.1476 45.1519 30.3847 47.8191 29.4957C50.265 28.6804 50.3269 26.2474 49.9254 24.7575C49.8034 24.3049 49.3253 24.0873 48.8706 24.201Z" fill="#EE9684"/>
<ellipse cx="22.8126" cy="51.4525" rx="18.9073" ry="19.5172" fill="#F4E19D"/>
<path d="M97.8776 41.8393C97.8776 52.6183 89.4125 61.3565 78.9703 61.3565C68.528 61.3565 60.0629 52.6183 60.0629 41.8393C60.0629 31.0602 68.528 22.322 78.9703 22.322C89.4125 22.322 97.8776 31.0602 97.8776 41.8393Z" fill="#F4E19D"/>
</g>
<g opacity="0.5">
<path d="M250.263 278.453C238.904 273.671 232.527 279.45 227.545 282.041C225.153 262.312 212.001 264.105 203.033 270.084C192.869 278.453 198.051 288.418 203.033 294.595C199.446 301.77 194.663 310.618 201.837 324.488C206.476 333.456 232.25 335.795 249.665 334.053C267.6 332.26 287.927 321.499 291.514 308.346C294.384 293.519 285.337 284.831 278.96 282.041C284.938 270.084 281.351 262.312 267.6 259.92C250.263 259.92 249.067 268.888 250.263 278.453Z" fill="#CFECB4"/>
<ellipse cx="258.072" cy="276.11" rx="2.39139" ry="3.58709" transform="rotate(-8.8322 258.072 276.11)" fill="#5D4A4A"/>
<ellipse cx="220.248" cy="282.04" rx="2.39139" ry="3.58709" transform="rotate(-19.7887 220.248 282.04)" fill="#5D4A4A"/>
<path d="M242.908 284.626L237.27 286.036C236.825 286.147 236.5 286.55 236.573 287.003C236.971 289.476 239.284 290.682 241.893 289.813C244.282 289.016 244.351 286.645 243.962 285.183C243.841 284.73 243.363 284.513 242.908 284.626Z" fill="#EE9684"/>
<ellipse cx="217.381" cy="311.335" rx="18.5333" ry="19.1311" fill="#F4E19D"/>
<path d="M290.961 301.912C290.961 312.478 282.663 321.043 272.428 321.043C262.192 321.043 253.895 312.478 253.895 301.912C253.895 291.346 262.192 282.781 272.428 282.781C282.663 282.781 290.961 291.346 290.961 301.912Z" fill="#F4E19D"/>
</g>
<g opacity="0.5">
<path d="M250.263 89.5333C238.904 84.7505 232.527 90.5298 227.545 93.1205C225.153 73.3914 212.001 75.185 203.033 81.1635C192.869 89.5333 198.051 99.4975 203.033 105.675C199.446 112.849 194.663 121.698 201.837 135.568C206.476 144.535 232.25 146.875 249.665 145.133C267.6 143.34 287.927 132.578 291.514 119.426C294.384 104.599 285.337 95.9104 278.96 93.1205C284.938 81.1635 281.351 73.3914 267.6 71C250.263 71 249.067 79.9677 250.263 89.5333Z" fill="#CFECB4"/>
<ellipse cx="258.072" cy="87.1896" rx="2.39139" ry="3.58709" transform="rotate(-8.8322 258.072 87.1896)" fill="#5D4A4A"/>
<ellipse cx="220.248" cy="93.1203" rx="2.39139" ry="3.58709" transform="rotate(-19.7887 220.248 93.1203)" fill="#5D4A4A"/>
<path d="M242.908 95.7063L237.27 97.1159C236.825 97.2272 236.5 97.6302 236.573 98.0833C236.971 100.556 239.284 101.762 241.893 100.892C244.282 100.096 244.351 97.7248 243.962 96.2631C243.841 95.8102 243.363 95.5926 242.908 95.7063Z" fill="#EE9684"/>
<ellipse cx="217.381" cy="122.415" rx="18.5333" ry="19.1311" fill="#F4E19D"/>
<path d="M290.961 112.992C290.961 123.558 282.663 132.123 272.428 132.123C262.192 132.123 253.895 123.558 253.895 112.992C253.895 102.426 262.192 93.8607 272.428 93.8607C282.663 93.8607 290.961 102.426 290.961 112.992Z" fill="#F4E19D"/>
</g>
<g opacity="0.5">
<path d="M249.067 647.924C237.708 643.141 231.331 648.92 226.349 651.511C223.957 631.782 210.805 633.576 201.837 639.554C191.674 647.924 196.855 657.888 201.837 664.066C198.25 671.24 193.467 680.088 200.641 693.958C205.28 702.926 231.054 705.265 248.469 703.524C266.405 701.73 286.732 690.969 290.319 677.816C293.188 662.99 284.141 654.301 277.764 651.511C283.742 639.554 280.155 631.782 266.405 629.391C249.067 629.391 247.871 638.358 249.067 647.924Z" fill="#CFECB4"/>
<ellipse cx="256.876" cy="645.58" rx="2.39139" ry="3.58709" transform="rotate(-8.8322 256.876 645.58)" fill="#5D4A4A"/>
<ellipse cx="219.052" cy="651.511" rx="2.39139" ry="3.58709" transform="rotate(-19.7887 219.052 651.511)" fill="#5D4A4A"/>
<path d="M241.713 654.097L236.074 655.507C235.629 655.618 235.304 656.021 235.377 656.474C235.776 658.947 238.088 660.153 240.697 659.283C243.086 658.487 243.155 656.115 242.766 654.654C242.645 654.201 242.167 653.983 241.713 654.097Z" fill="#EE9684"/>
<ellipse cx="216.185" cy="680.806" rx="18.5333" ry="19.1311" fill="#F4E19D"/>
<path d="M289.765 671.382C289.765 681.948 281.468 690.514 271.232 690.514C260.996 690.514 252.699 681.948 252.699 671.382C252.699 660.817 260.996 652.251 271.232 652.251C281.468 652.251 289.765 660.817 289.765 671.382Z" fill="#F4E19D"/>
</g>
<g opacity="0.5">
<path d="M56.358 751.024C44.7696 746.144 38.2638 752.04 33.1812 754.683C30.7416 734.556 17.3235 736.386 8.17475 742.485C-2.19377 751.024 3.09214 761.189 8.17475 767.491C4.51521 774.81 -0.364087 783.837 6.95487 797.987C11.687 807.136 37.9815 809.522 55.748 807.746C74.0455 805.916 94.7824 794.937 98.4419 781.519C101.37 766.393 92.1395 757.529 85.6338 754.683C91.733 742.485 88.0735 734.556 74.0455 732.116C56.358 732.116 55.1381 741.265 56.358 751.024Z" fill="#CFECB4"/>
<ellipse cx="64.3245" cy="748.633" rx="2.43965" ry="3.65948" transform="rotate(-8.8322 64.3245 748.633)" fill="#5D4A4A"/>
<ellipse cx="25.7372" cy="754.683" rx="2.43965" ry="3.65948" transform="rotate(-19.7887 25.7372 754.683)" fill="#5D4A4A"/>
<path d="M48.8706 757.317L43.0874 758.763C42.6422 758.874 42.3177 759.277 42.3892 759.731C42.7885 762.264 45.1519 763.501 47.8191 762.612C50.265 761.796 50.3269 759.364 49.9254 757.874C49.8034 757.421 49.3253 757.203 48.8706 757.317Z" fill="#EE9684"/>
<ellipse cx="22.8126" cy="784.569" rx="18.9073" ry="19.5172" fill="#F4E19D"/>
<path d="M97.8776 774.955C97.8776 785.735 89.4125 794.473 78.9703 794.473C68.528 794.473 60.0629 785.735 60.0629 774.955C60.0629 764.176 68.528 755.438 78.9703 755.438C89.4125 755.438 97.8776 764.176 97.8776 774.955Z" fill="#F4E19D"/>
</g>
<g opacity="0.5">
<path d="M250.263 830.865C238.904 826.083 232.527 831.862 227.545 834.452C225.153 814.723 212.001 816.517 203.033 822.495C192.869 830.865 198.051 840.829 203.033 847.007C199.446 854.181 194.663 863.03 201.837 876.9C206.476 885.867 232.25 888.207 249.665 886.465C267.6 884.672 287.927 873.91 291.514 860.758C294.384 845.931 285.337 837.242 278.96 834.452C284.938 822.495 281.351 814.723 267.6 812.332C250.263 812.332 249.067 821.3 250.263 830.865Z" fill="#CFECB4" stroke="#B0BBE6" stroke-width="3"/>
<ellipse cx="258.072" cy="828.522" rx="2.39139" ry="3.58709" transform="rotate(-8.8322 258.072 828.522)" fill="#5D4A4A"/>
<ellipse cx="220.248" cy="834.452" rx="2.39139" ry="3.58709" transform="rotate(-19.7887 220.248 834.452)" fill="#5D4A4A"/>
<path d="M242.908 837.038L237.27 838.448C236.825 838.559 236.5 838.962 236.573 839.415C236.971 841.888 239.284 843.094 241.893 842.224C244.282 841.428 244.351 839.057 243.962 837.595C243.841 837.142 243.363 836.925 242.908 837.038Z" fill="#EE9684"/>
<ellipse cx="217.381" cy="863.747" rx="18.5333" ry="19.1311" fill="#F4E19D"/>
<path d="M290.961 854.324C290.961 864.89 282.663 873.455 272.428 873.455C262.192 873.455 253.895 864.89 253.895 854.324C253.895 843.758 262.192 835.193 272.428 835.193C282.663 835.193 290.961 843.758 290.961 854.324Z" fill="#F4E19D"/>
</g>
<g opacity="0.5">
<path d="M250.263 463.787C238.904 459.004 232.527 464.783 227.545 467.374C225.153 447.645 212.001 449.438 203.033 455.417C192.869 463.787 198.051 473.751 203.033 479.928C199.446 487.103 194.663 495.951 201.837 509.821C206.476 518.789 232.25 521.128 249.665 519.386C267.6 517.593 287.927 506.832 291.514 493.679C294.384 478.852 285.337 470.164 278.96 467.374C284.938 455.417 281.351 447.645 267.6 445.253C250.263 445.253 249.067 454.221 250.263 463.787Z" fill="#CFECB4"/>
<ellipse cx="258.072" cy="461.443" rx="2.39139" ry="3.58709" transform="rotate(-8.8322 258.072 461.443)" fill="#5D4A4A"/>
<ellipse cx="220.248" cy="467.374" rx="2.39139" ry="3.58709" transform="rotate(-19.7887 220.248 467.374)" fill="#5D4A4A"/>
<path d="M242.908 469.959L237.27 471.369C236.825 471.48 236.5 471.883 236.573 472.336C236.971 474.809 239.284 476.015 241.893 475.146C244.282 474.349 244.351 471.978 243.962 470.516C243.841 470.063 243.363 469.846 242.908 469.959Z" fill="#EE9684"/>
<ellipse cx="217.381" cy="496.668" rx="18.5333" ry="19.1311" fill="#F4E19D"/>
<path d="M290.961 487.245C290.961 497.811 282.663 506.376 272.428 506.376C262.192 506.376 253.895 497.811 253.895 487.245C253.895 476.679 262.192 468.114 272.428 468.114C282.663 468.114 290.961 476.679 290.961 487.245Z" fill="#F4E19D"/>
</g>
<g opacity="0.5">
<path d="M56.358 561.95C44.7696 557.071 38.2638 562.967 33.1812 565.61C30.7416 545.483 17.3235 547.312 8.17475 553.412C-2.19377 561.95 3.09214 572.116 8.17475 578.418C4.51521 585.737 -0.364087 594.764 6.95487 608.914C11.687 618.062 37.9815 620.449 55.748 618.672C74.0455 616.843 94.7824 605.864 98.4419 592.446C101.37 577.32 92.1395 568.456 85.6338 565.61C91.733 553.412 88.0735 545.483 74.0455 543.043C56.358 543.043 55.1381 552.192 56.358 561.95Z" fill="#CFECB4"/>
<ellipse cx="64.3245" cy="559.559" rx="2.43965" ry="3.65948" transform="rotate(-8.8322 64.3245 559.559)" fill="#5D4A4A"/>
<ellipse cx="25.7372" cy="565.61" rx="2.43965" ry="3.65948" transform="rotate(-19.7887 25.7372 565.61)" fill="#5D4A4A"/>
<path d="M48.8706 568.244L43.0874 569.69C42.6422 569.801 42.3177 570.204 42.3892 570.657C42.7885 573.19 45.1519 574.428 47.8191 573.539C50.265 572.723 50.3269 570.29 49.9254 568.8C49.8034 568.348 49.3253 568.13 48.8706 568.244Z" fill="#EE9684"/>
<ellipse cx="22.8126" cy="595.495" rx="18.9073" ry="19.5172" fill="#F4E19D"/>
<path d="M97.8776 585.882C97.8776 596.661 89.4125 605.399 78.9703 605.399C68.528 605.399 60.0629 596.661 60.0629 585.882C60.0629 575.103 68.528 566.365 78.9703 566.365C89.4125 566.365 97.8776 575.103 97.8776 585.882Z" fill="#F4E19D"/>
</g>
<g opacity="0.5">
<path d="M55.1381 371.657C43.5498 366.778 37.044 372.674 31.9613 375.317C29.5217 355.19 16.1036 357.019 6.9549 363.119C-3.41362 371.657 1.87229 381.823 6.9549 388.125C3.29537 395.444 -1.58394 404.471 5.73502 418.621C10.4671 427.769 36.7617 430.156 54.5281 428.379C72.8256 426.55 93.5626 415.571 97.2221 402.153C100.15 387.027 90.9197 378.163 84.414 375.317C90.5131 363.119 86.8537 355.19 72.8256 352.75C55.1381 352.75 53.9183 361.899 55.1381 371.657Z" fill="#CFECB4"/>
<ellipse cx="63.1047" cy="369.266" rx="2.43965" ry="3.65948" transform="rotate(-8.8322 63.1047 369.266)" fill="#5D4A4A"/>
<ellipse cx="24.5174" cy="375.317" rx="2.43965" ry="3.65948" transform="rotate(-19.7887 24.5174 375.317)" fill="#5D4A4A"/>
<path d="M47.6507 377.951L41.8674 379.397C41.4223 379.508 41.0978 379.911 41.1692 380.364C41.5686 382.898 43.932 384.135 46.5992 383.246C49.0451 382.43 49.107 379.997 48.7054 378.507C48.5835 378.055 48.1054 377.837 47.6507 377.951Z" fill="#EE9684"/>
<ellipse cx="21.5928" cy="405.203" rx="18.9073" ry="19.5172" fill="#F4E19D"/>
<path d="M96.6577 395.589C96.6577 406.368 88.1926 415.106 77.7504 415.106C67.3082 415.106 58.8431 406.368 58.8431 395.589C58.8431 384.81 67.3082 376.072 77.7504 376.072C88.1926 376.072 96.6577 384.81 96.6577 395.589Z" fill="#F4E19D"/>
</g>
</svg>
