<svg width="26" height="24" viewBox="0 0 26 24" fill="none" xmlns="http://www.w3.org/2000/svg">
<path d="M13.6794 2.74133C12.5443 1.77802 10.6625 1.71482 9.46765 2.59987V2.59987C8.26807 3.48846 8.21403 4.99688 9.34694 5.96903L18.0054 13.3989C19.3706 14.5703 21.7354 14.4069 22.7775 13.0691V13.0691C23.4978 12.1446 23.3383 10.9384 22.3893 10.133L13.6794 2.74133Z" fill="#84A9E0"/>
<rect width="5.32136" height="17.9108" rx="2.66068" transform="matrix(-0.768428 -0.639937 -0.79491 0.606727 25.0435 12.2625)" fill="#84A9E0"/>
<path d="M18 11.9724C18 10.8418 17.1663 9.8842 16.0463 9.72865L4.2676 8.09272C2.01215 7.77946 0 9.53146 0 11.8086V11.8086C0 14.0445 1.94353 15.7841 4.1658 15.5371L15.9848 14.2239C17.1321 14.0964 18 13.1267 18 11.9724V11.9724Z" fill="#84A9E0"/>
</svg>
