<svg width="125" height="148" viewBox="0 0 125 148" fill="none" xmlns="http://www.w3.org/2000/svg">
<rect x="40.9316" y="55.697" width="83.6763" height="92.2968" fill="#66D2D4"/>
<rect x="40.9316" y="60.825" width="83.6763" height="2.5638" fill="#F4E3D3"/>
<rect x="40.9316" y="71.0801" width="83.6763" height="2.5638" fill="#F4E3D3"/>
<rect x="40.9316" y="81.3354" width="83.6763" height="2.5638" fill="#F4E3D3"/>
<rect x="40.9316" y="91.5911" width="83.6763" height="2.5638" fill="#F4E3D3"/>
<rect x="40.9316" y="101.846" width="83.6763" height="2.5638" fill="#F4E3D3"/>
<rect x="40.9316" y="112.101" width="83.6763" height="2.5638" fill="#F4E3D3"/>
<rect x="40.9316" y="122.356" width="83.6763" height="2.5638" fill="#F4E3D3"/>
<rect x="40.9316" y="132.612" width="83.6763" height="2.5638" fill="#F4E3D3"/>
<rect x="39.4376" y="142.867" width="83.6763" height="2.5638" fill="#F4E3D3"/>
<rect x="0.587769" y="86.4631" width="83.6763" height="61.5312" fill="#66D2D4"/>
<rect x="0.587769" y="91.5911" width="83.6763" height="2.5638" fill="#F4E3D3"/>
<rect x="0.587769" y="99.282" width="83.6763" height="2.5638" fill="#F4E3D3"/>
<rect x="0.587769" y="106.974" width="83.6763" height="2.5638" fill="#F4E3D3"/>
<rect x="0.587769" y="114.665" width="83.6763" height="2.5638" fill="#F4E3D3"/>
<rect x="0.587769" y="122.356" width="83.6763" height="2.5638" fill="#F4E3D3"/>
<rect x="0.587769" y="130.048" width="83.6763" height="2.5638" fill="#F4E3D3"/>
<rect x="0.587769" y="137.74" width="83.6763" height="2.5638" fill="#F4E3D3"/>
<rect x="0.587769" y="73.6445" width="83.6763" height="12.819" fill="#F5F5F5"/>
<rect x="84.264" y="73.6445" width="7.4711" height="74.3502" fill="#FFDDBE"/>
<path d="M17.0242 9.54932L91.7352 73.6443H17.0242V9.54932Z" fill="#66D2D4"/>
<rect x="17.0242" y="60.825" width="83.6763" height="2.5638" fill="#F4E3D3"/>
<rect x="17.0242" y="50.5703" width="35.8613" height="2.5638" fill="#F4E3D3"/>
<rect x="17.0242" y="40.3145" width="31.3786" height="2.5638" fill="#F4E3D3"/>
<path d="M17.0242 30.0598H40.9317L43.9201 32.6236H17.0242V30.0598Z" fill="#F4E3D3"/>
<path d="M17.0242 19.8047H28.9779L31.9664 22.3685H17.0242V19.8047Z" fill="#F4E3D3"/>
<rect x="17.0242" y="71.0801" width="83.6763" height="2.5638" fill="#F4E3D3"/>
<path d="M28.2308 35.1875L102.195 73.6445H28.2308V35.1875Z" fill="#9ADCDE"/>
<rect x="91.7352" y="73.6445" width="10.4595" height="74.3502" fill="#9ADCDE"/>
<path d="M28.2308 26.2139L102.195 64.6709V73.6442L28.2308 35.1872V26.2139Z" fill="#F99750"/>
<path d="M17.0242 0.575928L48.4028 28.7777V36.4691L17.0242 9.54923V0.575928Z" fill="#F99750"/>
</svg>
