<svg width="78" height="55" viewBox="0 0 78 55" fill="none" xmlns="http://www.w3.org/2000/svg">
<rect x="0.731934" y="9.651" width="61.701" height="44.7453" fill="#FFDDA5"/>
<rect x="0.731934" y="2.84213" width="61.701" height="6.80906" fill="#6CD0CF"/>
<rect x="0.731934" y="0.896484" width="61.701" height="1.94545" fill="#5FB0AF"/>
<rect x="62.4326" y="7.70532" width="15.2017" height="1.94545" fill="#5FB0AF"/>
<rect x="62.4326" y="9.65112" width="15.2017" height="6.80906" fill="#6CD0CF"/>
<rect x="5.20312" y="16.4602" width="10.7306" height="7.78178" fill="#87F0FC"/>
<rect x="5.20312" y="28.1328" width="10.7306" height="7.78178" fill="#87F0FC"/>
<rect x="5.20312" y="39.8054" width="10.7306" height="7.78178" fill="#87F0FC"/>
<rect x="25.77" y="16.4602" width="10.7306" height="7.78178" fill="#87F0FC"/>
<rect x="25.77" y="28.1328" width="10.7306" height="7.78178" fill="#87F0FC"/>
<rect x="25.77" y="39.8054" width="10.7306" height="7.78178" fill="#87F0FC"/>
<rect x="44.5488" y="16.4602" width="10.7306" height="7.78178" fill="#87F0FC"/>
<rect x="44.5488" y="28.1328" width="10.7306" height="7.78178" fill="#87F0FC"/>
<rect x="44.5488" y="39.8054" width="10.7306" height="7.78178" fill="#87F0FC"/>
<rect x="62.4326" y="16.46" width="15.2017" height="37.9362" fill="#FFDDA5"/>
<rect x="66.0093" y="17.4326" width="7.15374" height="9.72723" fill="#87F0FC"/>
<rect x="66.0093" y="31.0508" width="7.15374" height="9.72723" fill="#87F0FC"/>
</svg>
