<svg width="142" height="95" viewBox="0 0 142 95" fill="none" xmlns="http://www.w3.org/2000/svg">
<rect x="0.872559" y="7.31836" width="140.886" height="86.9206" fill="#F6EAD9"/>
<rect x="13.4893" y="9.60571" width="6.30834" height="6.86216" fill="#67D0D3"/>
<rect x="21.9004" y="9.60571" width="6.30834" height="6.86216" fill="#67D0D3"/>
<rect x="30.3115" y="9.60571" width="6.30834" height="6.86216" fill="#67D0D3"/>
<rect x="47.1338" y="9.60571" width="6.30834" height="6.86216" fill="#67D0D3"/>
<rect x="55.5449" y="9.60571" width="6.30834" height="6.86216" fill="#67D0D3"/>
<rect x="63.9556" y="9.60571" width="6.30834" height="6.86216" fill="#67D0D3"/>
<rect x="80.7778" y="9.60571" width="6.30834" height="6.86216" fill="#67D0D3"/>
<rect x="89.189" y="9.60571" width="6.30834" height="6.86216" fill="#67D0D3"/>
<rect x="97.6001" y="9.60571" width="6.30834" height="6.86216" fill="#67D0D3"/>
<rect x="114.422" y="9.60571" width="6.30834" height="6.86216" fill="#67D0D3"/>
<rect x="122.834" y="9.60571" width="6.30834" height="6.86216" fill="#67D0D3"/>
<rect x="13.4893" y="18.7554" width="6.30834" height="6.86216" fill="#67D0D3"/>
<rect x="21.9004" y="18.7554" width="6.30834" height="6.86216" fill="#67D0D3"/>
<rect x="30.3115" y="18.7554" width="6.30834" height="6.86216" fill="#67D0D3"/>
<rect x="47.1338" y="18.7554" width="6.30834" height="6.86216" fill="#67D0D3"/>
<rect x="55.5449" y="18.7554" width="6.30834" height="6.86216" fill="#67D0D3"/>
<rect x="63.9556" y="18.7554" width="6.30834" height="6.86216" fill="#67D0D3"/>
<rect x="80.7778" y="18.7554" width="6.30834" height="6.86216" fill="#67D0D3"/>
<rect x="89.189" y="18.7554" width="6.30834" height="6.86216" fill="#67D0D3"/>
<rect x="97.6001" y="18.7554" width="6.30834" height="6.86216" fill="#67D0D3"/>
<rect x="114.422" y="18.7554" width="6.30834" height="6.86216" fill="#67D0D3"/>
<rect x="122.834" y="18.7554" width="6.30834" height="6.86216" fill="#67D0D3"/>
<rect x="13.4893" y="27.9048" width="6.30834" height="6.86216" fill="#67D0D3"/>
<rect x="21.9004" y="27.9048" width="6.30834" height="6.86216" fill="#67D0D3"/>
<rect x="30.3115" y="27.9048" width="6.30834" height="6.86216" fill="#67D0D3"/>
<rect x="47.1338" y="27.9048" width="6.30834" height="6.86216" fill="#67D0D3"/>
<rect x="55.5449" y="27.9048" width="6.30834" height="6.86216" fill="#67D0D3"/>
<rect x="63.9556" y="27.9048" width="6.30834" height="6.86216" fill="#67D0D3"/>
<rect x="80.7778" y="27.9048" width="6.30834" height="6.86216" fill="#67D0D3"/>
<rect x="89.189" y="27.9048" width="6.30834" height="6.86216" fill="#67D0D3"/>
<rect x="97.6001" y="27.9048" width="6.30834" height="6.86216" fill="#67D0D3"/>
<rect x="114.422" y="27.9048" width="6.30834" height="6.86216" fill="#67D0D3"/>
<rect x="122.834" y="27.9048" width="6.30834" height="6.86216" fill="#67D0D3"/>
<rect x="13.4893" y="37.0544" width="6.30834" height="6.86216" fill="#67D0D3"/>
<rect x="21.9004" y="37.0544" width="6.30834" height="6.86216" fill="#67D0D3"/>
<rect x="30.3115" y="37.0544" width="6.30834" height="6.86216" fill="#67D0D3"/>
<rect x="47.1338" y="37.0544" width="6.30834" height="6.86216" fill="#67D0D3"/>
<rect x="55.5449" y="37.0544" width="6.30834" height="6.86216" fill="#67D0D3"/>
<rect x="63.9556" y="37.0544" width="6.30834" height="6.86216" fill="#67D0D3"/>
<rect x="80.7778" y="37.0544" width="6.30834" height="6.86216" fill="#67D0D3"/>
<rect x="89.189" y="37.0544" width="6.30834" height="6.86216" fill="#67D0D3"/>
<rect x="97.6001" y="37.0544" width="6.30834" height="6.86216" fill="#67D0D3"/>
<rect x="114.422" y="37.0544" width="6.30834" height="6.86216" fill="#67D0D3"/>
<rect x="122.834" y="37.0544" width="6.30834" height="6.86216" fill="#67D0D3"/>
<rect x="13.4893" y="46.2039" width="6.30834" height="6.86216" fill="#67D0D3"/>
<rect x="21.9004" y="46.2039" width="6.30834" height="6.86216" fill="#67D0D3"/>
<rect x="30.3115" y="46.2039" width="6.30834" height="6.86216" fill="#67D0D3"/>
<rect x="47.1338" y="46.2039" width="6.30834" height="6.86216" fill="#67D0D3"/>
<rect x="55.5449" y="46.2039" width="6.30834" height="6.86216" fill="#67D0D3"/>
<rect x="63.9556" y="46.2039" width="6.30834" height="6.86216" fill="#67D0D3"/>
<rect x="80.7778" y="46.2039" width="6.30834" height="6.86216" fill="#67D0D3"/>
<rect x="89.189" y="46.2039" width="6.30834" height="6.86216" fill="#67D0D3"/>
<rect x="97.6001" y="46.2039" width="6.30834" height="6.86216" fill="#67D0D3"/>
<rect x="114.422" y="46.2039" width="6.30834" height="6.86216" fill="#67D0D3"/>
<rect x="122.834" y="46.2039" width="6.30834" height="6.86216" fill="#67D0D3"/>
<rect x="13.4893" y="55.3535" width="6.30834" height="6.86216" fill="#67D0D3"/>
<rect x="21.9004" y="55.3535" width="6.30834" height="6.86216" fill="#67D0D3"/>
<rect x="30.3115" y="55.3535" width="6.30834" height="6.86216" fill="#67D0D3"/>
<rect x="47.1338" y="55.3535" width="6.30834" height="6.86216" fill="#67D0D3"/>
<rect x="55.5449" y="55.3535" width="6.30834" height="6.86216" fill="#67D0D3"/>
<rect x="63.9556" y="55.3535" width="6.30834" height="6.86216" fill="#67D0D3"/>
<rect x="80.7778" y="55.3535" width="6.30834" height="6.86216" fill="#67D0D3"/>
<rect x="89.189" y="55.3535" width="6.30834" height="6.86216" fill="#67D0D3"/>
<rect x="97.6001" y="55.3535" width="6.30834" height="6.86216" fill="#67D0D3"/>
<rect x="114.422" y="55.3535" width="6.30834" height="6.86216" fill="#67D0D3"/>
<rect x="122.834" y="55.3535" width="6.30834" height="6.86216" fill="#67D0D3"/>
<rect x="13.4893" y="64.5029" width="6.30834" height="6.86216" fill="#67D0D3"/>
<rect x="21.9004" y="64.5029" width="6.30834" height="6.86216" fill="#67D0D3"/>
<rect x="30.3115" y="64.5029" width="6.30834" height="6.86216" fill="#67D0D3"/>
<rect x="47.1338" y="64.5029" width="6.30834" height="6.86216" fill="#67D0D3"/>
<rect x="55.5449" y="64.5029" width="6.30834" height="6.86216" fill="#67D0D3"/>
<rect x="63.9556" y="64.5029" width="6.30834" height="6.86216" fill="#67D0D3"/>
<rect x="80.7778" y="64.5029" width="6.30834" height="6.86216" fill="#67D0D3"/>
<rect x="89.189" y="64.5029" width="6.30834" height="6.86216" fill="#67D0D3"/>
<rect x="97.6001" y="64.5029" width="6.30834" height="6.86216" fill="#67D0D3"/>
<rect x="114.422" y="64.5029" width="6.30834" height="6.86216" fill="#67D0D3"/>
<rect x="122.834" y="64.5029" width="6.30834" height="6.86216" fill="#67D0D3"/>
<rect x="13.4893" y="73.6526" width="6.30834" height="6.86216" fill="#67D0D3"/>
<rect x="21.9004" y="73.6526" width="6.30834" height="6.86216" fill="#67D0D3"/>
<rect x="30.3115" y="73.6526" width="6.30834" height="6.86216" fill="#67D0D3"/>
<rect x="47.1338" y="73.6526" width="6.30834" height="6.86216" fill="#67D0D3"/>
<rect x="55.5449" y="73.6526" width="6.30834" height="6.86216" fill="#67D0D3"/>
<rect x="63.9556" y="73.6526" width="6.30834" height="6.86216" fill="#67D0D3"/>
<rect x="80.7778" y="73.6526" width="6.30834" height="6.86216" fill="#67D0D3"/>
<rect x="89.189" y="73.6526" width="6.30834" height="6.86216" fill="#67D0D3"/>
<rect x="97.6001" y="73.6526" width="6.30834" height="6.86216" fill="#67D0D3"/>
<rect x="114.422" y="73.6526" width="6.30834" height="6.86216" fill="#67D0D3"/>
<rect x="122.834" y="73.6526" width="6.30834" height="6.86216" fill="#67D0D3"/>
<rect x="13.4893" y="82.802" width="6.30834" height="6.86216" fill="#67D0D3"/>
<rect x="21.9004" y="82.802" width="6.30834" height="6.86216" fill="#67D0D3"/>
<rect x="30.3115" y="82.802" width="6.30834" height="6.86216" fill="#67D0D3"/>
<rect x="47.1338" y="82.802" width="6.30834" height="6.86216" fill="#67D0D3"/>
<rect x="55.5449" y="82.802" width="6.30834" height="6.86216" fill="#67D0D3"/>
<rect x="63.9556" y="82.802" width="6.30834" height="6.86216" fill="#67D0D3"/>
<rect x="80.7778" y="82.802" width="6.30834" height="6.86216" fill="#67D0D3"/>
<rect x="89.189" y="82.802" width="6.30834" height="6.86216" fill="#67D0D3"/>
<rect x="97.6001" y="82.802" width="6.30834" height="6.86216" fill="#67D0D3"/>
<rect x="114.422" y="82.802" width="6.30834" height="6.86216" fill="#67D0D3"/>
<rect x="122.834" y="82.802" width="6.30834" height="6.86216" fill="#67D0D3"/>
<rect x="0.872559" y="0.456299" width="140.886" height="6.86216" fill="#51ADA8"/>
<rect x="37.6709" y="7.3186" width="8.41111" height="86.9206" fill="#F4C569"/>
<rect x="4.02637" y="7.3186" width="8.41111" height="86.9206" fill="#F4C569"/>
<rect x="71.3154" y="7.3186" width="8.41111" height="86.9206" fill="#F4C569"/>
<rect x="130.193" y="7.3186" width="8.41111" height="86.9206" fill="#F4C569"/>
<rect x="104.96" y="7.3186" width="8.41111" height="86.9206" fill="#F4C569"/>
</svg>
