<svg width="76" height="63" viewBox="0 0 76 63" fill="none" xmlns="http://www.w3.org/2000/svg">
<rect x="0.298828" y="22.5558" width="30.9738" height="40.3784" fill="#FD9856"/>
<rect x="26.9509" y="22.5559" width="15.847" height="40.3784" fill="#F4E3D3"/>
<rect x="68.0088" y="4.71411" width="7.92352" height="58.22" fill="#F4E3D3"/>
<rect x="31.2727" y="4.71411" width="36.7363" height="58.22" fill="#FD9856"/>
<rect x="33.4336" y="13.1653" width="5.04224" height="9.39032" fill="#76DADE"/>
<rect x="33.4336" y="27.251" width="5.04224" height="9.39032" fill="#76DADE"/>
<rect x="33.4336" y="42.2754" width="5.04224" height="9.39032" fill="#76DADE"/>
<rect x="2.45972" y="27.251" width="5.04224" height="6.57322" fill="#76DADE"/>
<rect x="2.45972" y="40.3972" width="5.04224" height="6.57322" fill="#76DADE"/>
<rect x="42.7976" y="13.1653" width="5.04224" height="9.39032" fill="#76DADE"/>
<rect x="42.7976" y="27.251" width="5.04224" height="9.39032" fill="#76DADE"/>
<rect x="42.7976" y="42.2754" width="5.04224" height="9.39032" fill="#76DADE"/>
<rect x="11.1038" y="27.251" width="5.04224" height="6.57322" fill="#76DADE"/>
<rect x="11.1038" y="40.3972" width="5.04224" height="6.57322" fill="#76DADE"/>
<rect x="51.4417" y="13.1653" width="5.04224" height="9.39032" fill="#76DADE"/>
<rect x="51.4417" y="27.251" width="5.04224" height="9.39032" fill="#76DADE"/>
<rect x="51.4417" y="42.2754" width="5.04224" height="9.39032" fill="#76DADE"/>
<rect x="60.8059" y="13.1653" width="5.04224" height="9.39032" fill="#76DADE"/>
<rect x="60.8059" y="27.251" width="5.04224" height="9.39032" fill="#76DADE"/>
<rect x="60.8059" y="42.2754" width="5.04224" height="9.39032" fill="#76DADE"/>
<rect x="19.0273" y="27.251" width="5.04224" height="6.57322" fill="#76DADE"/>
<rect x="19.0273" y="40.3972" width="5.04224" height="6.57322" fill="#76DADE"/>
<rect x="0.298828" y="17.8607" width="30.9738" height="4.69516" fill="#F4C569"/>
<rect x="31.2725" y="0.019043" width="44.6599" height="4.69516" fill="#F4C569"/>
</svg>
