<svg width="158" height="98" viewBox="0 0 158 98" fill="none" xmlns="http://www.w3.org/2000/svg">
<rect x="53.3779" y="7.65088" width="11.3193" height="83.1713" fill="#F4E3D3"/>
<rect x="0.897461" y="7.651" width="52.4804" height="83.1713" fill="#FD9856"/>
<rect x="3.98486" y="19.7241" width="7.20319" height="13.4147" fill="#76DADE"/>
<rect x="3.98486" y="39.8467" width="7.20319" height="13.4147" fill="#76DADE"/>
<rect x="3.98486" y="61.3103" width="7.20319" height="13.4147" fill="#76DADE"/>
<rect x="17.3618" y="19.7241" width="7.20319" height="13.4147" fill="#76DADE"/>
<rect x="17.3618" y="39.8467" width="7.20319" height="13.4147" fill="#76DADE"/>
<rect x="17.3618" y="61.3103" width="7.20319" height="13.4147" fill="#76DADE"/>
<rect x="29.7104" y="19.7241" width="7.20319" height="13.4147" fill="#76DADE"/>
<rect x="29.7104" y="39.8467" width="7.20319" height="13.4147" fill="#76DADE"/>
<rect x="29.7104" y="61.3103" width="7.20319" height="13.4147" fill="#76DADE"/>
<rect x="43.0874" y="19.7241" width="7.20319" height="13.4147" fill="#76DADE"/>
<rect x="43.0874" y="39.8467" width="7.20319" height="13.4147" fill="#76DADE"/>
<rect x="43.0874" y="61.3103" width="7.20319" height="13.4147" fill="#76DADE"/>
<rect x="0.897461" y="0.943848" width="63.7997" height="6.70736" fill="#F4C569"/>
<rect x="49.625" y="40.053" width="44.2482" height="57.6833" fill="#FD9856"/>
<rect x="85.6406" y="40.1216" width="8.47434" height="57.6145" fill="#F4E3D3"/>
<rect x="146.596" y="7.65088" width="11.3193" height="83.1713" fill="#F4E3D3"/>
<rect x="94.1152" y="7.65088" width="52.4804" height="83.1713" fill="#FD9856"/>
<rect x="97.2026" y="19.7241" width="7.20319" height="13.4147" fill="#76DADE"/>
<rect x="97.2026" y="39.8467" width="7.20319" height="13.4147" fill="#76DADE"/>
<rect x="97.2026" y="61.3103" width="7.20319" height="13.4147" fill="#76DADE"/>
<rect x="52.7114" y="46.7603" width="7.20319" height="9.3903" fill="#76DADE"/>
<rect x="52.7114" y="65.5405" width="7.20319" height="9.3903" fill="#76DADE"/>
<rect x="110.58" y="19.7241" width="7.20319" height="13.4147" fill="#76DADE"/>
<rect x="110.58" y="39.8467" width="7.20319" height="13.4147" fill="#76DADE"/>
<rect x="110.58" y="61.3103" width="7.20319" height="13.4147" fill="#76DADE"/>
<rect x="65.0601" y="46.7603" width="7.20319" height="9.3903" fill="#76DADE"/>
<rect x="65.0601" y="65.5405" width="7.20319" height="9.3903" fill="#76DADE"/>
<rect x="122.928" y="19.7241" width="7.20319" height="13.4147" fill="#76DADE"/>
<rect x="122.928" y="39.8467" width="7.20319" height="13.4147" fill="#76DADE"/>
<rect x="122.928" y="61.3103" width="7.20319" height="13.4147" fill="#76DADE"/>
<rect x="136.305" y="19.7241" width="7.20319" height="13.4147" fill="#76DADE"/>
<rect x="136.305" y="39.8467" width="7.20319" height="13.4147" fill="#76DADE"/>
<rect x="136.305" y="61.3103" width="7.20319" height="13.4147" fill="#76DADE"/>
<rect x="76.3799" y="46.7603" width="7.20319" height="9.3903" fill="#76DADE"/>
<rect x="76.3799" y="65.5405" width="7.20319" height="9.3903" fill="#76DADE"/>
<rect x="49.625" y="33.3457" width="44.2482" height="6.70736" fill="#F4C569"/>
<rect x="94.1152" y="0.943848" width="63.7997" height="6.70736" fill="#F4C569"/>
</svg>
