<svg width="159" height="96" viewBox="0 0 159 96" fill="none" xmlns="http://www.w3.org/2000/svg">
<rect x="0.763184" y="34.3452" width="154.688" height="8.10684" fill="#F4C569"/>
<rect x="0.763184" y="0.56665" width="157.607" height="8.10684" fill="#6CD0CF"/>
<rect x="0.763184" y="8.67365" width="14.5932" height="86.473" fill="#FE9554"/>
<rect x="42.5972" y="8.67358" width="13.6203" height="86.473" fill="#FE9554"/>
<rect x="111.672" y="8.67358" width="12.6475" height="86.473" fill="#FE9554"/>
<rect x="146.695" y="8.67358" width="11.6746" height="86.473" fill="#FE9554"/>
<rect x="79.5664" y="8.67358" width="12.6475" height="86.473" fill="#FE9554"/>
<rect x="3.68213" y="11.3757" width="7.78305" height="10.8091" fill="#76DADE"/>
<rect x="45.5161" y="11.3757" width="7.78305" height="10.8091" fill="#76DADE"/>
<rect x="82.4854" y="11.3757" width="7.78305" height="10.8091" fill="#76DADE"/>
<rect x="114.59" y="11.3757" width="7.78305" height="10.8091" fill="#76DADE"/>
<rect x="148.641" y="11.3757" width="7.78305" height="10.8091" fill="#76DADE"/>
<rect x="3.68213" y="28.9404" width="7.78305" height="10.8091" fill="#76DADE"/>
<rect x="45.5161" y="28.9404" width="7.78305" height="10.8091" fill="#76DADE"/>
<rect x="82.4854" y="28.9404" width="7.78305" height="10.8091" fill="#76DADE"/>
<rect x="114.59" y="28.9404" width="7.78305" height="10.8091" fill="#76DADE"/>
<rect x="148.641" y="28.9404" width="7.78305" height="10.8091" fill="#76DADE"/>
<rect x="3.68213" y="46.5051" width="7.78305" height="10.8091" fill="#76DADE"/>
<rect x="45.5161" y="46.5051" width="7.78305" height="10.8091" fill="#76DADE"/>
<rect x="82.4854" y="46.5051" width="7.78305" height="10.8091" fill="#76DADE"/>
<rect x="114.59" y="46.5051" width="7.78305" height="10.8091" fill="#76DADE"/>
<rect x="148.641" y="46.5051" width="7.78305" height="10.8091" fill="#76DADE"/>
<rect x="3.68213" y="64.0701" width="7.78305" height="10.8091" fill="#76DADE"/>
<rect x="45.5161" y="64.0701" width="7.78305" height="10.8091" fill="#76DADE"/>
<rect x="82.4854" y="64.0701" width="7.78305" height="10.8091" fill="#76DADE"/>
<rect x="114.59" y="64.0701" width="7.78305" height="10.8091" fill="#76DADE"/>
<rect x="148.641" y="64.0701" width="7.78305" height="10.8091" fill="#76DADE"/>
</svg>
