<svg width="170" height="114" viewBox="0 0 170 114" fill="none" xmlns="http://www.w3.org/2000/svg">
<rect x="0.439453" y="16.2267" width="155.78" height="96.7925" fill="#F7ECDA"/>
<rect x="10.1001" y="25.906" width="13.2836" height="9.67925" fill="#66D2D1"/>
<rect x="10.1001" y="42.0381" width="13.2836" height="9.67925" fill="#66D2D1"/>
<rect x="10.1001" y="58.1702" width="13.2836" height="9.67925" fill="#66D2D1"/>
<rect x="10.1001" y="74.3022" width="13.2836" height="9.67925" fill="#66D2D1"/>
<rect x="10.1001" y="90.4343" width="13.2836" height="9.67925" fill="#66D2D1"/>
<rect x="30.6294" y="25.906" width="13.2836" height="9.67925" fill="#66D2D1"/>
<rect x="30.6294" y="42.0381" width="13.2836" height="9.67925" fill="#66D2D1"/>
<rect x="30.6294" y="58.1702" width="13.2836" height="9.67925" fill="#66D2D1"/>
<rect x="30.6294" y="74.3022" width="13.2836" height="9.67925" fill="#66D2D1"/>
<rect x="30.6294" y="90.4343" width="13.2836" height="9.67925" fill="#66D2D1"/>
<rect x="51.1582" y="25.906" width="13.2836" height="9.67925" fill="#66D2D1"/>
<rect x="51.1582" y="42.0381" width="13.2836" height="9.67925" fill="#66D2D1"/>
<rect x="51.1582" y="58.1702" width="13.2836" height="9.67925" fill="#66D2D1"/>
<rect x="51.1582" y="74.3022" width="13.2836" height="9.67925" fill="#66D2D1"/>
<rect x="51.1582" y="90.4343" width="13.2836" height="9.67925" fill="#66D2D1"/>
<rect x="71.6875" y="25.906" width="13.2836" height="9.67925" fill="#66D2D1"/>
<rect x="71.6875" y="42.0381" width="13.2836" height="9.67925" fill="#66D2D1"/>
<rect x="71.6875" y="58.1702" width="13.2836" height="9.67925" fill="#66D2D1"/>
<rect x="71.6875" y="74.3022" width="13.2836" height="9.67925" fill="#66D2D1"/>
<rect x="71.6875" y="90.4343" width="13.2836" height="9.67925" fill="#66D2D1"/>
<rect x="92.2168" y="25.906" width="13.2836" height="9.67925" fill="#66D2D1"/>
<rect x="92.2168" y="42.0381" width="13.2836" height="9.67925" fill="#66D2D1"/>
<rect x="92.2168" y="58.1702" width="13.2836" height="9.67925" fill="#66D2D1"/>
<rect x="92.2168" y="74.3022" width="13.2836" height="9.67925" fill="#66D2D1"/>
<rect x="92.2168" y="90.4343" width="13.2836" height="9.67925" fill="#66D2D1"/>
<rect x="112.746" y="25.906" width="13.2836" height="9.67925" fill="#66D2D1"/>
<rect x="112.746" y="42.0381" width="13.2836" height="9.67925" fill="#66D2D1"/>
<rect x="112.746" y="58.1702" width="13.2836" height="9.67925" fill="#66D2D1"/>
<rect x="112.746" y="74.3022" width="13.2836" height="9.67925" fill="#66D2D1"/>
<rect x="112.746" y="90.4343" width="13.2836" height="9.67925" fill="#66D2D1"/>
<rect x="133.275" y="25.906" width="13.2836" height="9.67925" fill="#66D2D1"/>
<rect x="133.275" y="42.0381" width="13.2836" height="9.67925" fill="#66D2D1"/>
<rect x="133.275" y="58.1702" width="13.2836" height="9.67925" fill="#66D2D1"/>
<rect x="133.275" y="74.3022" width="13.2836" height="9.67925" fill="#66D2D1"/>
<rect x="133.275" y="90.4343" width="13.2836" height="9.67925" fill="#66D2D1"/>
<rect x="156.219" y="16.2268" width="13.2836" height="96.7925" fill="#FE9554"/>
<rect x="0.439453" y="0.0947266" width="169.063" height="16.1321" fill="#BEF3F9"/>
</svg>
