<svg width="110" height="115" viewBox="0 0 110 115" fill="none" xmlns="http://www.w3.org/2000/svg">
<rect x="79.5015" y="3.25537" width="22.2452" height="111.311" fill="#FFEBC5"/>
<rect x="101.747" y="11.3215" width="7.41506" height="103.245" fill="#F99750"/>
<rect x="82.4678" y="77.4631" width="5.93205" height="4.83963" fill="#76DADE"/>
<rect x="82.4678" y="83.916" width="5.93205" height="4.83963" fill="#76DADE"/>
<rect x="82.4678" y="91.9819" width="5.93205" height="4.83963" fill="#76DADE"/>
<rect x="82.4678" y="100.048" width="5.93205" height="4.83963" fill="#76DADE"/>
<rect x="82.4678" y="108.114" width="5.93205" height="4.83963" fill="#76DADE"/>
<rect x="92.8486" y="77.4631" width="5.93205" height="4.83963" fill="#76DADE"/>
<rect x="92.8486" y="83.916" width="5.93205" height="4.83963" fill="#76DADE"/>
<rect x="92.8486" y="91.9819" width="5.93205" height="4.83963" fill="#76DADE"/>
<rect x="92.8486" y="100.048" width="5.93205" height="4.83963" fill="#76DADE"/>
<rect x="92.8486" y="108.114" width="5.93205" height="4.83963" fill="#76DADE"/>
<rect x="0.901855" y="79.0762" width="91.9468" height="35.4906" fill="#F4C569"/>
<rect x="37.9771" y="79.0762" width="17.7961" height="35.4906" fill="#FFEBC5"/>
<rect x="3.86816" y="80.6895" width="4.44904" height="4.83963" fill="#76DADE"/>
<rect x="58.7393" y="80.6895" width="4.44904" height="4.83963" fill="#76DADE"/>
<rect x="3.86816" y="88.7556" width="4.44904" height="4.83963" fill="#76DADE"/>
<rect x="58.7393" y="88.7556" width="4.44904" height="4.83963" fill="#76DADE"/>
<rect x="3.86816" y="96.8215" width="4.44904" height="4.83963" fill="#76DADE"/>
<rect x="58.7393" y="96.8215" width="4.44904" height="4.83963" fill="#76DADE"/>
<rect x="3.86816" y="104.888" width="4.44904" height="4.83963" fill="#76DADE"/>
<rect x="58.7393" y="104.888" width="4.44904" height="4.83963" fill="#76DADE"/>
<rect x="12.7661" y="80.6895" width="4.44904" height="4.83963" fill="#76DADE"/>
<rect x="67.6377" y="80.6895" width="4.44904" height="4.83963" fill="#76DADE"/>
<rect x="82.4678" y="4.86865" width="5.93205" height="4.83963" fill="#76DADE"/>
<rect x="82.4678" y="12.9348" width="5.93205" height="4.83963" fill="#76DADE"/>
<rect x="82.4678" y="21.0007" width="5.93205" height="4.83963" fill="#76DADE"/>
<rect x="82.4678" y="29.0669" width="5.93205" height="4.83963" fill="#76DADE"/>
<rect x="82.4678" y="37.1328" width="5.93205" height="4.83963" fill="#76DADE"/>
<rect x="82.4678" y="45.199" width="5.93205" height="4.83963" fill="#76DADE"/>
<rect x="82.4678" y="53.2649" width="5.93205" height="4.83963" fill="#76DADE"/>
<rect x="82.4678" y="61.3311" width="5.93205" height="4.83963" fill="#76DADE"/>
<rect x="82.4678" y="69.397" width="5.93205" height="4.83963" fill="#76DADE"/>
<rect x="92.8486" y="4.86865" width="5.93205" height="4.83963" fill="#76DADE"/>
<rect x="92.8486" y="12.9348" width="5.93205" height="4.83963" fill="#76DADE"/>
<rect x="92.8486" y="21.0007" width="5.93205" height="4.83963" fill="#76DADE"/>
<rect x="92.8486" y="29.0669" width="5.93205" height="4.83963" fill="#76DADE"/>
<rect x="92.8486" y="37.1328" width="5.93205" height="4.83963" fill="#76DADE"/>
<rect x="92.8486" y="45.199" width="5.93205" height="4.83963" fill="#76DADE"/>
<rect x="92.8486" y="53.2649" width="5.93205" height="4.83963" fill="#76DADE"/>
<rect x="92.8486" y="61.3311" width="5.93205" height="4.83963" fill="#76DADE"/>
<rect x="92.8486" y="69.397" width="5.93205" height="4.83963" fill="#76DADE"/>
<rect x="12.7661" y="88.7556" width="4.44904" height="4.83963" fill="#76DADE"/>
<rect x="67.6377" y="88.7556" width="4.44904" height="4.83963" fill="#76DADE"/>
<rect x="12.7661" y="96.8215" width="4.44904" height="4.83963" fill="#76DADE"/>
<rect x="67.6377" y="96.8215" width="4.44904" height="4.83963" fill="#76DADE"/>
<rect x="12.7661" y="104.888" width="4.44904" height="4.83963" fill="#76DADE"/>
<rect x="67.6377" y="104.888" width="4.44904" height="4.83963" fill="#76DADE"/>
<rect x="21.6641" y="80.6895" width="4.44904" height="4.83963" fill="#76DADE"/>
<rect x="76.5356" y="80.6895" width="4.44904" height="4.83963" fill="#76DADE"/>
<rect x="21.6641" y="88.7556" width="4.44904" height="4.83963" fill="#76DADE"/>
<rect x="76.5356" y="88.7556" width="4.44904" height="4.83963" fill="#76DADE"/>
<rect x="21.6641" y="96.8215" width="4.44904" height="4.83963" fill="#76DADE"/>
<rect x="76.5356" y="96.8215" width="4.44904" height="4.83963" fill="#76DADE"/>
<rect x="21.6641" y="104.888" width="4.44904" height="4.83963" fill="#76DADE"/>
<rect x="76.5356" y="104.888" width="4.44904" height="4.83963" fill="#76DADE"/>
<rect x="30.562" y="80.6895" width="4.44904" height="4.83963" fill="#76DADE"/>
<rect x="85.4336" y="80.6895" width="4.44904" height="4.83963" fill="#76DADE"/>
<rect x="103.23" y="12.9348" width="4.44904" height="8.06604" fill="#76DADE"/>
<rect x="103.23" y="25.8403" width="4.44904" height="8.06604" fill="#76DADE"/>
<rect x="103.23" y="38.7461" width="4.44904" height="8.06604" fill="#76DADE"/>
<rect x="103.23" y="51.6517" width="4.44904" height="8.06604" fill="#76DADE"/>
<rect x="103.23" y="64.5574" width="4.44904" height="8.06604" fill="#76DADE"/>
<rect x="103.23" y="77.4631" width="4.44904" height="8.06604" fill="#76DADE"/>
<rect x="103.23" y="90.3687" width="4.44904" height="8.06604" fill="#76DADE"/>
<rect x="103.23" y="103.274" width="4.44904" height="8.06604" fill="#76DADE"/>
<rect x="30.562" y="88.7556" width="4.44904" height="4.83963" fill="#76DADE"/>
<rect x="85.4336" y="88.7556" width="4.44904" height="4.83963" fill="#76DADE"/>
<rect x="30.562" y="96.8215" width="4.44904" height="4.83963" fill="#76DADE"/>
<rect x="85.4336" y="96.8215" width="4.44904" height="4.83963" fill="#76DADE"/>
<rect x="30.562" y="104.888" width="4.44904" height="4.83963" fill="#76DADE"/>
<rect x="85.4336" y="104.888" width="4.44904" height="4.83963" fill="#76DADE"/>
<rect x="0.901855" y="75.8499" width="91.9468" height="3.22642" fill="#84A9E0"/>
<rect x="79.5015" y="0.0290527" width="22.2452" height="3.22642" fill="#84A9E0"/>
<rect x="101.747" y="8.09521" width="7.41506" height="3.22642" fill="#84A9E0"/>
</svg>
