<svg width="153" height="122" viewBox="0 0 153 122" fill="none" xmlns="http://www.w3.org/2000/svg">
<rect x="31.3662" y="9.20679" width="90.1167" height="111.916" fill="#F7ECDA"/>
<rect x="121.483" y="27.3555" width="22.5292" height="93.7677" fill="#F7ECDA"/>
<rect width="22.5292" height="93.7677" transform="matrix(-1 0 0 1 31.3662 27.3555)" fill="#F7ECDA"/>
<rect x="32.9756" y="12.2314" width="9.65536" height="15.1238" fill="#76DADE"/>
<rect x="44.2397" y="12.2314" width="9.65536" height="15.1238" fill="#76DADE"/>
<rect x="69.9878" y="12.2314" width="9.65536" height="15.1238" fill="#76DADE"/>
<rect x="95.7354" y="12.2314" width="9.65536" height="15.1238" fill="#76DADE"/>
<rect x="110.219" y="12.2314" width="9.65536" height="15.1238" fill="#76DADE"/>
<rect x="58.7231" y="12.2314" width="9.65536" height="15.1238" fill="#76DADE"/>
<rect x="84.4707" y="12.2314" width="9.65536" height="15.1238" fill="#76DADE"/>
<rect x="32.9756" y="30.3801" width="9.65536" height="15.1238" fill="#76DADE"/>
<rect x="123.092" y="30.3801" width="9.65536" height="15.1238" fill="#76DADE"/>
<rect width="9.65536" height="15.1238" transform="matrix(-1 0 0 1 29.7568 30.3801)" fill="#76DADE"/>
<rect x="44.2397" y="30.3801" width="9.65536" height="15.1238" fill="#76DADE"/>
<rect x="134.357" y="30.3801" width="9.65536" height="15.1238" fill="#76DADE"/>
<rect width="9.65536" height="15.1238" transform="matrix(-1 0 0 1 18.4922 30.3801)" fill="#76DADE"/>
<rect x="69.9878" y="30.3801" width="9.65536" height="15.1238" fill="#76DADE"/>
<rect x="95.7354" y="30.3801" width="9.65536" height="15.1238" fill="#76DADE"/>
<rect x="110.219" y="30.3801" width="9.65536" height="15.1238" fill="#76DADE"/>
<rect x="58.7231" y="30.3801" width="9.65536" height="15.1238" fill="#76DADE"/>
<rect x="84.4707" y="30.3801" width="9.65536" height="15.1238" fill="#76DADE"/>
<rect x="32.9756" y="48.5288" width="9.65536" height="15.1238" fill="#76DADE"/>
<rect x="123.092" y="48.5288" width="9.65536" height="15.1238" fill="#76DADE"/>
<rect width="9.65536" height="15.1238" transform="matrix(-1 0 0 1 29.7568 48.5288)" fill="#76DADE"/>
<rect x="44.2397" y="48.5288" width="9.65536" height="15.1238" fill="#76DADE"/>
<rect x="134.357" y="48.5288" width="9.65536" height="15.1238" fill="#76DADE"/>
<rect width="9.65536" height="15.1238" transform="matrix(-1 0 0 1 18.4922 48.5288)" fill="#76DADE"/>
<rect x="69.9878" y="48.5288" width="9.65536" height="15.1238" fill="#76DADE"/>
<rect x="95.7354" y="48.5288" width="9.65536" height="15.1238" fill="#76DADE"/>
<rect x="110.219" y="48.5288" width="9.65536" height="15.1238" fill="#76DADE"/>
<rect x="58.7231" y="48.5288" width="9.65536" height="15.1238" fill="#76DADE"/>
<rect x="84.4707" y="48.5288" width="9.65536" height="15.1238" fill="#76DADE"/>
<rect x="32.9756" y="66.6772" width="9.65536" height="15.1238" fill="#76DADE"/>
<rect x="123.092" y="66.6772" width="9.65536" height="15.1238" fill="#76DADE"/>
<rect width="9.65536" height="15.1238" transform="matrix(-1 0 0 1 29.7568 66.6772)" fill="#76DADE"/>
<rect x="44.2397" y="66.6772" width="9.65536" height="15.1238" fill="#76DADE"/>
<rect x="134.357" y="66.6772" width="9.65536" height="15.1238" fill="#76DADE"/>
<rect width="9.65536" height="15.1238" transform="matrix(-1 0 0 1 18.4922 66.6772)" fill="#76DADE"/>
<rect x="69.9878" y="66.6772" width="9.65536" height="15.1238" fill="#76DADE"/>
<rect x="95.7354" y="66.6772" width="9.65536" height="15.1238" fill="#76DADE"/>
<rect x="84.4707" y="66.6772" width="9.65536" height="15.1238" fill="#76DADE"/>
<rect x="110.219" y="66.6772" width="9.65536" height="15.1238" fill="#76DADE"/>
<rect x="58.7231" y="66.6772" width="9.65536" height="15.1238" fill="#76DADE"/>
<rect x="32.9756" y="84.8259" width="9.65536" height="15.1238" fill="#76DADE"/>
<rect x="123.092" y="84.8259" width="9.65536" height="15.1238" fill="#76DADE"/>
<rect width="9.65536" height="15.1238" transform="matrix(-1 0 0 1 29.7568 84.8259)" fill="#76DADE"/>
<rect x="44.2397" y="84.8259" width="9.65536" height="15.1238" fill="#76DADE"/>
<rect x="134.357" y="84.8259" width="9.65536" height="15.1238" fill="#76DADE"/>
<rect width="9.65536" height="15.1238" transform="matrix(-1 0 0 1 18.4922 84.8259)" fill="#76DADE"/>
<rect x="69.9878" y="84.8259" width="9.65536" height="15.1238" fill="#76DADE"/>
<rect x="95.7354" y="84.8259" width="9.65536" height="15.1238" fill="#76DADE"/>
<rect x="110.219" y="84.8259" width="9.65536" height="15.1238" fill="#76DADE"/>
<rect x="58.7231" y="84.8259" width="9.65536" height="15.1238" fill="#76DADE"/>
<rect x="84.4707" y="84.8259" width="9.65536" height="15.1238" fill="#76DADE"/>
<rect x="32.9756" y="102.975" width="9.65536" height="15.1238" fill="#76DADE"/>
<rect x="123.092" y="102.975" width="9.65536" height="15.1238" fill="#76DADE"/>
<rect width="9.65536" height="15.1238" transform="matrix(-1 0 0 1 29.7568 102.975)" fill="#76DADE"/>
<rect x="44.2397" y="102.975" width="9.65536" height="15.1238" fill="#76DADE"/>
<rect x="134.357" y="102.975" width="9.65536" height="15.1238" fill="#76DADE"/>
<rect width="9.65536" height="15.1238" transform="matrix(-1 0 0 1 18.4922 102.975)" fill="#76DADE"/>
<rect x="69.9878" y="102.975" width="9.65536" height="15.1238" fill="#76DADE"/>
<rect x="95.7354" y="102.975" width="9.65536" height="15.1238" fill="#76DADE"/>
<rect x="110.219" y="102.975" width="9.65536" height="15.1238" fill="#76DADE"/>
<rect x="58.7231" y="102.975" width="9.65536" height="15.1238" fill="#76DADE"/>
<rect x="84.4707" y="102.975" width="9.65536" height="15.1238" fill="#76DADE"/>
<rect x="55.5044" y="9.20679" width="1.60923" height="111.916" fill="white"/>
<rect x="81.2524" y="9.20679" width="1.60923" height="111.916" fill="white"/>
<rect x="107" y="9.20679" width="1.60923" height="111.916" fill="white"/>
<rect x="144.012" y="27.3555" width="8.04613" height="93.7677" fill="#F7ECDA"/>
<rect width="8.04613" height="93.7677" transform="matrix(-1 0 0 1 8.83691 27.3555)" fill="#F7ECDA"/>
<rect x="0.791016" y="18.2811" width="30.5753" height="9.0743" fill="#FFD98E"/>
<rect x="121.483" y="18.281" width="30.5753" height="9.0743" fill="#FFD98E"/>
<rect x="31.3662" y="0.132568" width="90.1167" height="9.0743" fill="#FFD98E"/>
</svg>
