<svg width="122" height="91" viewBox="0 0 122 91" fill="none" xmlns="http://www.w3.org/2000/svg">
<rect x="0.20752" y="8.71725" width="121.607" height="81.7359" fill="#F6EAD9"/>
<rect x="1.19629" y="10.8676" width="5.93205" height="6.45283" fill="#67D0D3"/>
<rect x="24.9243" y="10.8676" width="5.93205" height="6.45283" fill="#67D0D3"/>
<rect x="56.562" y="10.8676" width="5.93205" height="6.45283" fill="#67D0D3"/>
<rect x="88.1997" y="10.8676" width="5.93205" height="6.45283" fill="#67D0D3"/>
<rect x="9.10547" y="10.8676" width="5.93205" height="6.45283" fill="#67D0D3"/>
<rect x="17.0151" y="10.8676" width="5.93205" height="6.45283" fill="#67D0D3"/>
<rect x="32.834" y="10.8676" width="5.93205" height="6.45283" fill="#67D0D3"/>
<rect x="40.7432" y="10.8676" width="5.93205" height="6.45283" fill="#67D0D3"/>
<rect x="48.6528" y="10.8676" width="5.93205" height="6.45283" fill="#67D0D3"/>
<rect x="64.4717" y="10.8676" width="5.93205" height="6.45283" fill="#67D0D3"/>
<rect x="72.3809" y="10.8676" width="5.93205" height="6.45283" fill="#67D0D3"/>
<rect x="80.2905" y="10.8676" width="5.93205" height="6.45283" fill="#67D0D3"/>
<rect x="96.1089" y="10.8676" width="5.93205" height="6.45283" fill="#67D0D3"/>
<rect x="104.019" y="10.8676" width="5.93205" height="6.45283" fill="#67D0D3"/>
<rect x="1.19629" y="19.4716" width="5.93205" height="6.45283" fill="#67D0D3"/>
<rect x="24.9243" y="19.4716" width="5.93205" height="6.45283" fill="#67D0D3"/>
<rect x="56.562" y="19.4716" width="5.93205" height="6.45283" fill="#67D0D3"/>
<rect x="88.1997" y="19.4716" width="5.93205" height="6.45283" fill="#67D0D3"/>
<rect x="9.10547" y="19.4716" width="5.93205" height="6.45283" fill="#67D0D3"/>
<rect x="17.0151" y="19.4716" width="5.93205" height="6.45283" fill="#67D0D3"/>
<rect x="32.834" y="19.4716" width="5.93205" height="6.45283" fill="#67D0D3"/>
<rect x="40.7432" y="19.4716" width="5.93205" height="6.45283" fill="#67D0D3"/>
<rect x="48.6528" y="19.4716" width="5.93205" height="6.45283" fill="#67D0D3"/>
<rect x="64.4717" y="19.4716" width="5.93205" height="6.45283" fill="#67D0D3"/>
<rect x="72.3809" y="19.4716" width="5.93205" height="6.45283" fill="#67D0D3"/>
<rect x="80.2905" y="19.4716" width="5.93205" height="6.45283" fill="#67D0D3"/>
<rect x="96.1089" y="19.4716" width="5.93205" height="6.45283" fill="#67D0D3"/>
<rect x="104.019" y="19.4716" width="5.93205" height="6.45283" fill="#67D0D3"/>
<rect x="1.19629" y="28.0754" width="5.93205" height="6.45283" fill="#67D0D3"/>
<rect x="24.9243" y="28.0754" width="5.93205" height="6.45283" fill="#67D0D3"/>
<rect x="56.562" y="28.0754" width="5.93205" height="6.45283" fill="#67D0D3"/>
<rect x="88.1997" y="28.0754" width="5.93205" height="6.45283" fill="#67D0D3"/>
<rect x="9.10547" y="28.0754" width="5.93205" height="6.45283" fill="#67D0D3"/>
<rect x="17.0151" y="28.0754" width="5.93205" height="6.45283" fill="#67D0D3"/>
<rect x="32.834" y="28.0754" width="5.93205" height="6.45283" fill="#67D0D3"/>
<rect x="40.7432" y="28.0754" width="5.93205" height="6.45283" fill="#67D0D3"/>
<rect x="48.6528" y="28.0754" width="5.93205" height="6.45283" fill="#67D0D3"/>
<rect x="64.4717" y="28.0754" width="5.93205" height="6.45283" fill="#67D0D3"/>
<rect x="72.3809" y="28.0754" width="5.93205" height="6.45283" fill="#67D0D3"/>
<rect x="80.2905" y="28.0754" width="5.93205" height="6.45283" fill="#67D0D3"/>
<rect x="96.1089" y="28.0754" width="5.93205" height="6.45283" fill="#67D0D3"/>
<rect x="104.019" y="28.0754" width="5.93205" height="6.45283" fill="#67D0D3"/>
<rect x="1.19629" y="36.6789" width="5.93205" height="6.45283" fill="#67D0D3"/>
<rect x="24.9243" y="36.6789" width="5.93205" height="6.45283" fill="#67D0D3"/>
<rect x="56.562" y="36.6789" width="5.93205" height="6.45283" fill="#67D0D3"/>
<rect x="88.1997" y="36.6789" width="5.93205" height="6.45283" fill="#67D0D3"/>
<rect x="9.10547" y="36.6789" width="5.93205" height="6.45283" fill="#67D0D3"/>
<rect x="17.0151" y="36.6789" width="5.93205" height="6.45283" fill="#67D0D3"/>
<rect x="32.834" y="36.6789" width="5.93205" height="6.45283" fill="#67D0D3"/>
<rect x="40.7432" y="36.6789" width="5.93205" height="6.45283" fill="#67D0D3"/>
<rect x="48.6528" y="36.6789" width="5.93205" height="6.45283" fill="#67D0D3"/>
<rect x="64.4717" y="36.6789" width="5.93205" height="6.45283" fill="#67D0D3"/>
<rect x="72.3809" y="36.6789" width="5.93205" height="6.45283" fill="#67D0D3"/>
<rect x="80.2905" y="36.6789" width="5.93205" height="6.45283" fill="#67D0D3"/>
<rect x="96.1089" y="36.6789" width="5.93205" height="6.45283" fill="#67D0D3"/>
<rect x="104.019" y="36.6789" width="5.93205" height="6.45283" fill="#67D0D3"/>
<rect x="1.19629" y="45.2829" width="5.93205" height="6.45283" fill="#67D0D3"/>
<rect x="24.9243" y="45.2829" width="5.93205" height="6.45283" fill="#67D0D3"/>
<rect x="56.562" y="45.2829" width="5.93205" height="6.45283" fill="#67D0D3"/>
<rect x="88.1997" y="45.2829" width="5.93205" height="6.45283" fill="#67D0D3"/>
<rect x="9.10547" y="45.2829" width="5.93205" height="6.45283" fill="#67D0D3"/>
<rect x="17.0151" y="45.2829" width="5.93205" height="6.45283" fill="#67D0D3"/>
<rect x="32.834" y="45.2829" width="5.93205" height="6.45283" fill="#67D0D3"/>
<rect x="40.7432" y="45.2829" width="5.93205" height="6.45283" fill="#67D0D3"/>
<rect x="48.6528" y="45.2829" width="5.93205" height="6.45283" fill="#67D0D3"/>
<rect x="64.4717" y="45.2829" width="5.93205" height="6.45283" fill="#67D0D3"/>
<rect x="72.3809" y="45.2829" width="5.93205" height="6.45283" fill="#67D0D3"/>
<rect x="80.2905" y="45.2829" width="5.93205" height="6.45283" fill="#67D0D3"/>
<rect x="96.1089" y="45.2829" width="5.93205" height="6.45283" fill="#67D0D3"/>
<rect x="104.019" y="45.2829" width="5.93205" height="6.45283" fill="#67D0D3"/>
<rect x="1.19629" y="53.8867" width="5.93205" height="6.45283" fill="#67D0D3"/>
<rect x="24.9243" y="53.8867" width="5.93205" height="6.45283" fill="#67D0D3"/>
<rect x="56.562" y="53.8867" width="5.93205" height="6.45283" fill="#67D0D3"/>
<rect x="88.1997" y="53.8867" width="5.93205" height="6.45283" fill="#67D0D3"/>
<rect x="9.10547" y="53.8867" width="5.93205" height="6.45283" fill="#67D0D3"/>
<rect x="17.0151" y="53.8867" width="5.93205" height="6.45283" fill="#67D0D3"/>
<rect x="32.834" y="53.8867" width="5.93205" height="6.45283" fill="#67D0D3"/>
<rect x="40.7432" y="53.8867" width="5.93205" height="6.45283" fill="#67D0D3"/>
<rect x="48.6528" y="53.8867" width="5.93205" height="6.45283" fill="#67D0D3"/>
<rect x="64.4717" y="53.8867" width="5.93205" height="6.45283" fill="#67D0D3"/>
<rect x="72.3809" y="53.8867" width="5.93205" height="6.45283" fill="#67D0D3"/>
<rect x="80.2905" y="53.8867" width="5.93205" height="6.45283" fill="#67D0D3"/>
<rect x="96.1089" y="53.8867" width="5.93205" height="6.45283" fill="#67D0D3"/>
<rect x="104.019" y="53.8867" width="5.93205" height="6.45283" fill="#67D0D3"/>
<rect x="1.19629" y="62.4902" width="5.93205" height="6.45283" fill="#67D0D3"/>
<rect x="24.9243" y="62.4902" width="5.93205" height="6.45283" fill="#67D0D3"/>
<rect x="56.562" y="62.4902" width="5.93205" height="6.45283" fill="#67D0D3"/>
<rect x="88.1997" y="62.4902" width="5.93205" height="6.45283" fill="#67D0D3"/>
<rect x="9.10547" y="62.4902" width="5.93205" height="6.45283" fill="#67D0D3"/>
<rect x="17.0151" y="62.4902" width="5.93205" height="6.45283" fill="#67D0D3"/>
<rect x="32.834" y="62.4902" width="5.93205" height="6.45283" fill="#67D0D3"/>
<rect x="40.7432" y="62.4902" width="5.93205" height="6.45283" fill="#67D0D3"/>
<rect x="48.6528" y="62.4902" width="5.93205" height="6.45283" fill="#67D0D3"/>
<rect x="64.4717" y="62.4902" width="5.93205" height="6.45283" fill="#67D0D3"/>
<rect x="72.3809" y="62.4902" width="5.93205" height="6.45283" fill="#67D0D3"/>
<rect x="80.2905" y="62.4902" width="5.93205" height="6.45283" fill="#67D0D3"/>
<rect x="96.1089" y="62.4902" width="5.93205" height="6.45283" fill="#67D0D3"/>
<rect x="104.019" y="62.4902" width="5.93205" height="6.45283" fill="#67D0D3"/>
<rect x="1.19629" y="71.0945" width="5.93205" height="6.45283" fill="#67D0D3"/>
<rect x="24.9243" y="71.0945" width="5.93205" height="6.45283" fill="#67D0D3"/>
<rect x="56.562" y="71.0945" width="5.93205" height="6.45283" fill="#67D0D3"/>
<rect x="88.1997" y="71.0945" width="5.93205" height="6.45283" fill="#67D0D3"/>
<rect x="9.10547" y="71.0945" width="5.93205" height="6.45283" fill="#67D0D3"/>
<rect x="17.0151" y="71.0945" width="5.93205" height="6.45283" fill="#67D0D3"/>
<rect x="32.834" y="71.0945" width="5.93205" height="6.45283" fill="#67D0D3"/>
<rect x="40.7432" y="71.0945" width="5.93205" height="6.45283" fill="#67D0D3"/>
<rect x="48.6528" y="71.0945" width="5.93205" height="6.45283" fill="#67D0D3"/>
<rect x="64.4717" y="71.0945" width="5.93205" height="6.45283" fill="#67D0D3"/>
<rect x="72.3809" y="71.0945" width="5.93205" height="6.45283" fill="#67D0D3"/>
<rect x="80.2905" y="71.0945" width="5.93205" height="6.45283" fill="#67D0D3"/>
<rect x="96.1089" y="71.0945" width="5.93205" height="6.45283" fill="#67D0D3"/>
<rect x="104.019" y="71.0945" width="5.93205" height="6.45283" fill="#67D0D3"/>
<rect x="1.19629" y="79.698" width="5.93205" height="6.45283" fill="#67D0D3"/>
<rect x="24.9243" y="79.698" width="5.93205" height="6.45283" fill="#67D0D3"/>
<rect x="56.562" y="79.698" width="5.93205" height="6.45283" fill="#67D0D3"/>
<rect x="88.1997" y="79.698" width="5.93205" height="6.45283" fill="#67D0D3"/>
<rect x="9.10547" y="79.698" width="5.93205" height="6.45283" fill="#67D0D3"/>
<rect x="17.0151" y="79.698" width="5.93205" height="6.45283" fill="#67D0D3"/>
<rect x="32.834" y="79.698" width="5.93205" height="6.45283" fill="#67D0D3"/>
<rect x="40.7432" y="79.698" width="5.93205" height="6.45283" fill="#67D0D3"/>
<rect x="48.6528" y="79.698" width="5.93205" height="6.45283" fill="#67D0D3"/>
<rect x="64.4717" y="79.698" width="5.93205" height="6.45283" fill="#67D0D3"/>
<rect x="72.3809" y="79.698" width="5.93205" height="6.45283" fill="#67D0D3"/>
<rect x="80.2905" y="79.698" width="5.93205" height="6.45283" fill="#67D0D3"/>
<rect x="96.1089" y="79.698" width="5.93205" height="6.45283" fill="#67D0D3"/>
<rect x="104.019" y="79.698" width="5.93205" height="6.45283" fill="#67D0D3"/>
<rect x="110.939" y="8.71729" width="7.9094" height="81.7359" fill="#F4C569"/>
<rect x="0.20752" y="0.113525" width="121.607" height="8.60378" fill="#F99750"/>
</svg>
