<svg width="136" height="101" viewBox="0 0 136 101" fill="none" xmlns="http://www.w3.org/2000/svg">
<rect x="0.60791" y="9.99188" width="134.954" height="90.7069" fill="#F6EAD9"/>
<rect x="1.70508" y="12.3786" width="6.58313" height="7.16107" fill="#67D0D3"/>
<rect x="28.0376" y="12.3786" width="6.58313" height="7.16107" fill="#67D0D3"/>
<rect x="63.1475" y="12.3786" width="6.58313" height="7.16107" fill="#67D0D3"/>
<rect x="98.2573" y="12.3786" width="6.58313" height="7.16107" fill="#67D0D3"/>
<rect x="10.4824" y="12.3786" width="6.58313" height="7.16107" fill="#67D0D3"/>
<rect x="19.2603" y="12.3786" width="6.58313" height="7.16107" fill="#67D0D3"/>
<rect x="36.8149" y="12.3786" width="6.58313" height="7.16107" fill="#67D0D3"/>
<rect x="45.5928" y="12.3786" width="6.58313" height="7.16107" fill="#67D0D3"/>
<rect x="54.3701" y="12.3786" width="6.58313" height="7.16107" fill="#67D0D3"/>
<rect x="71.9248" y="12.3786" width="6.58313" height="7.16107" fill="#67D0D3"/>
<rect x="80.7026" y="12.3786" width="6.58313" height="7.16107" fill="#67D0D3"/>
<rect x="89.48" y="12.3786" width="6.58313" height="7.16107" fill="#67D0D3"/>
<rect x="107.035" y="12.3786" width="6.58313" height="7.16107" fill="#67D0D3"/>
<rect x="115.812" y="12.3786" width="6.58313" height="7.16107" fill="#67D0D3"/>
<rect x="1.70508" y="21.9267" width="6.58313" height="7.16107" fill="#67D0D3"/>
<rect x="28.0376" y="21.9267" width="6.58313" height="7.16107" fill="#67D0D3"/>
<rect x="63.1475" y="21.9267" width="6.58313" height="7.16107" fill="#67D0D3"/>
<rect x="98.2573" y="21.9267" width="6.58313" height="7.16107" fill="#67D0D3"/>
<rect x="10.4824" y="21.9267" width="6.58313" height="7.16107" fill="#67D0D3"/>
<rect x="19.2603" y="21.9267" width="6.58313" height="7.16107" fill="#67D0D3"/>
<rect x="36.8149" y="21.9267" width="6.58313" height="7.16107" fill="#67D0D3"/>
<rect x="45.5928" y="21.9267" width="6.58313" height="7.16107" fill="#67D0D3"/>
<rect x="54.3701" y="21.9267" width="6.58313" height="7.16107" fill="#67D0D3"/>
<rect x="71.9248" y="21.9267" width="6.58313" height="7.16107" fill="#67D0D3"/>
<rect x="80.7026" y="21.9267" width="6.58313" height="7.16107" fill="#67D0D3"/>
<rect x="89.48" y="21.9267" width="6.58313" height="7.16107" fill="#67D0D3"/>
<rect x="107.035" y="21.9267" width="6.58313" height="7.16107" fill="#67D0D3"/>
<rect x="115.812" y="21.9267" width="6.58313" height="7.16107" fill="#67D0D3"/>
<rect x="1.70508" y="31.4748" width="6.58313" height="7.16107" fill="#67D0D3"/>
<rect x="28.0376" y="31.4748" width="6.58313" height="7.16107" fill="#67D0D3"/>
<rect x="63.1475" y="31.4748" width="6.58313" height="7.16107" fill="#67D0D3"/>
<rect x="98.2573" y="31.4748" width="6.58313" height="7.16107" fill="#67D0D3"/>
<rect x="10.4824" y="31.4748" width="6.58313" height="7.16107" fill="#67D0D3"/>
<rect x="19.2603" y="31.4748" width="6.58313" height="7.16107" fill="#67D0D3"/>
<rect x="36.8149" y="31.4748" width="6.58313" height="7.16107" fill="#67D0D3"/>
<rect x="45.5928" y="31.4748" width="6.58313" height="7.16107" fill="#67D0D3"/>
<rect x="54.3701" y="31.4748" width="6.58313" height="7.16107" fill="#67D0D3"/>
<rect x="71.9248" y="31.4748" width="6.58313" height="7.16107" fill="#67D0D3"/>
<rect x="80.7026" y="31.4748" width="6.58313" height="7.16107" fill="#67D0D3"/>
<rect x="89.48" y="31.4748" width="6.58313" height="7.16107" fill="#67D0D3"/>
<rect x="107.035" y="31.4748" width="6.58313" height="7.16107" fill="#67D0D3"/>
<rect x="115.812" y="31.4748" width="6.58313" height="7.16107" fill="#67D0D3"/>
<rect x="1.70508" y="41.0229" width="6.58313" height="7.16107" fill="#67D0D3"/>
<rect x="28.0376" y="41.0229" width="6.58313" height="7.16107" fill="#67D0D3"/>
<rect x="63.1475" y="41.0229" width="6.58313" height="7.16107" fill="#67D0D3"/>
<rect x="98.2573" y="41.0229" width="6.58313" height="7.16107" fill="#67D0D3"/>
<rect x="10.4824" y="41.0229" width="6.58313" height="7.16107" fill="#67D0D3"/>
<rect x="19.2603" y="41.0229" width="6.58313" height="7.16107" fill="#67D0D3"/>
<rect x="36.8149" y="41.0229" width="6.58313" height="7.16107" fill="#67D0D3"/>
<rect x="45.5928" y="41.0229" width="6.58313" height="7.16107" fill="#67D0D3"/>
<rect x="54.3701" y="41.0229" width="6.58313" height="7.16107" fill="#67D0D3"/>
<rect x="71.9248" y="41.0229" width="6.58313" height="7.16107" fill="#67D0D3"/>
<rect x="80.7026" y="41.0229" width="6.58313" height="7.16107" fill="#67D0D3"/>
<rect x="89.48" y="41.0229" width="6.58313" height="7.16107" fill="#67D0D3"/>
<rect x="107.035" y="41.0229" width="6.58313" height="7.16107" fill="#67D0D3"/>
<rect x="115.812" y="41.0229" width="6.58313" height="7.16107" fill="#67D0D3"/>
<rect x="1.70508" y="50.571" width="6.58313" height="7.16107" fill="#67D0D3"/>
<rect x="28.0376" y="50.571" width="6.58313" height="7.16107" fill="#67D0D3"/>
<rect x="63.1475" y="50.571" width="6.58313" height="7.16107" fill="#67D0D3"/>
<rect x="98.2573" y="50.571" width="6.58313" height="7.16107" fill="#67D0D3"/>
<rect x="10.4824" y="50.571" width="6.58313" height="7.16107" fill="#67D0D3"/>
<rect x="19.2603" y="50.571" width="6.58313" height="7.16107" fill="#67D0D3"/>
<rect x="36.8149" y="50.571" width="6.58313" height="7.16107" fill="#67D0D3"/>
<rect x="45.5928" y="50.571" width="6.58313" height="7.16107" fill="#67D0D3"/>
<rect x="54.3701" y="50.571" width="6.58313" height="7.16107" fill="#67D0D3"/>
<rect x="71.9248" y="50.571" width="6.58313" height="7.16107" fill="#67D0D3"/>
<rect x="80.7026" y="50.571" width="6.58313" height="7.16107" fill="#67D0D3"/>
<rect x="89.48" y="50.571" width="6.58313" height="7.16107" fill="#67D0D3"/>
<rect x="107.035" y="50.571" width="6.58313" height="7.16107" fill="#67D0D3"/>
<rect x="115.812" y="50.571" width="6.58313" height="7.16107" fill="#67D0D3"/>
<rect x="1.70508" y="60.1191" width="6.58313" height="7.16107" fill="#67D0D3"/>
<rect x="28.0376" y="60.1191" width="6.58313" height="7.16107" fill="#67D0D3"/>
<rect x="63.1475" y="60.1191" width="6.58313" height="7.16107" fill="#67D0D3"/>
<rect x="98.2573" y="60.1191" width="6.58313" height="7.16107" fill="#67D0D3"/>
<rect x="10.4824" y="60.1191" width="6.58313" height="7.16107" fill="#67D0D3"/>
<rect x="19.2603" y="60.1191" width="6.58313" height="7.16107" fill="#67D0D3"/>
<rect x="36.8149" y="60.1191" width="6.58313" height="7.16107" fill="#67D0D3"/>
<rect x="45.5928" y="60.1191" width="6.58313" height="7.16107" fill="#67D0D3"/>
<rect x="54.3701" y="60.1191" width="6.58313" height="7.16107" fill="#67D0D3"/>
<rect x="71.9248" y="60.1191" width="6.58313" height="7.16107" fill="#67D0D3"/>
<rect x="80.7026" y="60.1191" width="6.58313" height="7.16107" fill="#67D0D3"/>
<rect x="89.48" y="60.1191" width="6.58313" height="7.16107" fill="#67D0D3"/>
<rect x="107.035" y="60.1191" width="6.58313" height="7.16107" fill="#67D0D3"/>
<rect x="115.812" y="60.1191" width="6.58313" height="7.16107" fill="#67D0D3"/>
<rect x="1.70508" y="69.6672" width="6.58313" height="7.16107" fill="#67D0D3"/>
<rect x="28.0376" y="69.6672" width="6.58313" height="7.16107" fill="#67D0D3"/>
<rect x="63.1475" y="69.6672" width="6.58313" height="7.16107" fill="#67D0D3"/>
<rect x="98.2573" y="69.6672" width="6.58313" height="7.16107" fill="#67D0D3"/>
<rect x="10.4824" y="69.6672" width="6.58313" height="7.16107" fill="#67D0D3"/>
<rect x="19.2603" y="69.6672" width="6.58313" height="7.16107" fill="#67D0D3"/>
<rect x="36.8149" y="69.6672" width="6.58313" height="7.16107" fill="#67D0D3"/>
<rect x="45.5928" y="69.6672" width="6.58313" height="7.16107" fill="#67D0D3"/>
<rect x="54.3701" y="69.6672" width="6.58313" height="7.16107" fill="#67D0D3"/>
<rect x="71.9248" y="69.6672" width="6.58313" height="7.16107" fill="#67D0D3"/>
<rect x="80.7026" y="69.6672" width="6.58313" height="7.16107" fill="#67D0D3"/>
<rect x="89.48" y="69.6672" width="6.58313" height="7.16107" fill="#67D0D3"/>
<rect x="107.035" y="69.6672" width="6.58313" height="7.16107" fill="#67D0D3"/>
<rect x="115.812" y="69.6672" width="6.58313" height="7.16107" fill="#67D0D3"/>
<rect x="1.70508" y="79.2153" width="6.58313" height="7.16107" fill="#67D0D3"/>
<rect x="28.0376" y="79.2153" width="6.58313" height="7.16107" fill="#67D0D3"/>
<rect x="63.1475" y="79.2153" width="6.58313" height="7.16107" fill="#67D0D3"/>
<rect x="98.2573" y="79.2153" width="6.58313" height="7.16107" fill="#67D0D3"/>
<rect x="10.4824" y="79.2153" width="6.58313" height="7.16107" fill="#67D0D3"/>
<rect x="19.2603" y="79.2153" width="6.58313" height="7.16107" fill="#67D0D3"/>
<rect x="36.8149" y="79.2153" width="6.58313" height="7.16107" fill="#67D0D3"/>
<rect x="45.5928" y="79.2153" width="6.58313" height="7.16107" fill="#67D0D3"/>
<rect x="54.3701" y="79.2153" width="6.58313" height="7.16107" fill="#67D0D3"/>
<rect x="71.9248" y="79.2153" width="6.58313" height="7.16107" fill="#67D0D3"/>
<rect x="80.7026" y="79.2153" width="6.58313" height="7.16107" fill="#67D0D3"/>
<rect x="89.48" y="79.2153" width="6.58313" height="7.16107" fill="#67D0D3"/>
<rect x="107.035" y="79.2153" width="6.58313" height="7.16107" fill="#67D0D3"/>
<rect x="115.812" y="79.2153" width="6.58313" height="7.16107" fill="#67D0D3"/>
<rect x="1.70508" y="88.7634" width="6.58313" height="7.16107" fill="#67D0D3"/>
<rect x="28.0376" y="88.7634" width="6.58313" height="7.16107" fill="#67D0D3"/>
<rect x="63.1475" y="88.7634" width="6.58313" height="7.16107" fill="#67D0D3"/>
<rect x="98.2573" y="88.7634" width="6.58313" height="7.16107" fill="#67D0D3"/>
<rect x="10.4824" y="88.7634" width="6.58313" height="7.16107" fill="#67D0D3"/>
<rect x="19.2603" y="88.7634" width="6.58313" height="7.16107" fill="#67D0D3"/>
<rect x="36.8149" y="88.7634" width="6.58313" height="7.16107" fill="#67D0D3"/>
<rect x="45.5928" y="88.7634" width="6.58313" height="7.16107" fill="#67D0D3"/>
<rect x="54.3701" y="88.7634" width="6.58313" height="7.16107" fill="#67D0D3"/>
<rect x="71.9248" y="88.7634" width="6.58313" height="7.16107" fill="#67D0D3"/>
<rect x="80.7026" y="88.7634" width="6.58313" height="7.16107" fill="#67D0D3"/>
<rect x="89.48" y="88.7634" width="6.58313" height="7.16107" fill="#67D0D3"/>
<rect x="107.035" y="88.7634" width="6.58313" height="7.16107" fill="#67D0D3"/>
<rect x="115.812" y="88.7634" width="6.58313" height="7.16107" fill="#67D0D3"/>
<rect x="123.493" y="9.99194" width="8.7775" height="90.7069" fill="#F4C569"/>
<rect x="0.60791" y="0.443848" width="134.954" height="9.5481" fill="#F99750"/>
</svg>
