<svg width="90" height="100" viewBox="0 0 90 100" fill="none" xmlns="http://www.w3.org/2000/svg">
<rect x="33.4609" y="12.6279" width="33.6917" height="86.6558" fill="#F5F5F5"/>
<rect x="11.8633" y="27.3149" width="21.5973" height="71.9684" fill="#F5F5F5"/>
<rect x="67.1523" y="27.3149" width="22.4612" height="71.9684" fill="#F5F5F5"/>
<rect x="0.632812" y="42.0024" width="11.2306" height="57.2809" fill="#F5F5F5"/>
<rect x="33.4609" y="12.6279" width="6.04723" height="86.6558" fill="#67D0D3"/>
<rect x="47.2832" y="12.6279" width="6.04723" height="86.6558" fill="#67D0D3"/>
<rect x="61.105" y="12.6279" width="6.04723" height="86.6558" fill="#67D0D3"/>
<rect x="72.3359" y="27.3149" width="6.04723" height="71.9684" fill="#67D0D3"/>
<rect x="23.0938" y="27.3149" width="6.04723" height="71.9684" fill="#67D0D3"/>
<rect x="11.8633" y="27.3149" width="6.04723" height="71.9684" fill="#67D0D3"/>
<rect x="83.5659" y="27.3149" width="6.04723" height="71.9684" fill="#67D0D3"/>
<rect x="0.632812" y="33.19" width="11.2306" height="8.81245" fill="#F4C569"/>
<rect x="11.8633" y="18.5027" width="21.5973" height="8.81245" fill="#F4C569"/>
<rect x="33.4609" y="3.81519" width="33.6917" height="8.81245" fill="#F4C569"/>
<rect x="67.1523" y="18.5027" width="22.4612" height="8.81245" fill="#F4C569"/>
<rect x="0.632812" y="30.2527" width="11.2306" height="2.93748" fill="#FBF1F1"/>
<rect x="11.8633" y="15.5652" width="21.5973" height="2.93748" fill="#FBF1F1"/>
<rect x="33.4609" y="0.87793" width="33.6917" height="2.93748" fill="#FBF1F1"/>
<rect x="67.1523" y="15.5652" width="22.4612" height="2.93748" fill="#FBF1F1"/>
</svg>
