<svg width="110" height="86" viewBox="0 0 110 86" fill="none" xmlns="http://www.w3.org/2000/svg">
<rect x="29.4165" y="8.00195" width="51.281" height="77.186" fill="#F5E9DB"/>
<rect x="88.5317" y="8.00195" width="20.6548" height="77.186" fill="#F5E9DB"/>
<rect x="0.926758" y="8.00187" width="20.6548" height="77.186" fill="#F5E9DB"/>
<rect x="21.5815" y="8.00195" width="7.8346" height="77.186" fill="#F4C569"/>
<rect x="80.6973" y="8.00195" width="7.8346" height="77.186" fill="#F4C569"/>
<rect x="32.2651" y="10.5745" width="6.41013" height="10.2915" fill="#76DADE"/>
<rect x="32.2651" y="24.7256" width="6.41013" height="10.2915" fill="#76DADE"/>
<rect x="32.2651" y="38.8762" width="6.41013" height="10.2915" fill="#76DADE"/>
<rect x="31.5527" y="53.0269" width="6.41013" height="10.2915" fill="#76DADE"/>
<rect x="32.2651" y="67.1777" width="6.41013" height="10.2915" fill="#76DADE"/>
<rect x="40.0996" y="10.5745" width="6.41013" height="10.2915" fill="#76DADE"/>
<rect x="40.0996" y="24.7256" width="6.41013" height="10.2915" fill="#76DADE"/>
<rect x="40.0996" y="38.8762" width="6.41013" height="10.2915" fill="#76DADE"/>
<rect x="39.3877" y="53.0269" width="6.41013" height="10.2915" fill="#76DADE"/>
<rect x="40.0996" y="67.1777" width="6.41013" height="10.2915" fill="#76DADE"/>
<rect x="47.9341" y="10.5745" width="6.41013" height="10.2915" fill="#76DADE"/>
<rect x="47.9341" y="24.7256" width="6.41013" height="10.2915" fill="#76DADE"/>
<rect x="47.9341" y="38.8762" width="6.41013" height="10.2915" fill="#76DADE"/>
<rect x="47.2222" y="53.0269" width="6.41013" height="10.2915" fill="#76DADE"/>
<rect x="47.9341" y="67.1777" width="6.41013" height="10.2915" fill="#76DADE"/>
<rect x="55.769" y="10.5745" width="6.41013" height="10.2915" fill="#76DADE"/>
<rect x="92.0933" y="10.5745" width="6.41013" height="10.2915" fill="#76DADE"/>
<rect x="4.48779" y="10.5745" width="6.41013" height="10.2915" fill="#76DADE"/>
<rect x="92.0933" y="24.7256" width="6.41013" height="10.2915" fill="#76DADE"/>
<rect x="4.48779" y="24.7256" width="6.41013" height="10.2915" fill="#76DADE"/>
<rect x="92.0933" y="38.8762" width="6.41013" height="10.2915" fill="#76DADE"/>
<rect x="4.48779" y="38.8762" width="6.41013" height="10.2915" fill="#76DADE"/>
<rect x="92.0933" y="53.0269" width="6.41013" height="10.2915" fill="#76DADE"/>
<rect x="4.48779" y="53.0269" width="6.41013" height="10.2915" fill="#76DADE"/>
<rect x="92.0933" y="67.1777" width="6.41013" height="10.2915" fill="#76DADE"/>
<rect x="4.48779" y="67.1777" width="6.41013" height="10.2915" fill="#76DADE"/>
<rect x="55.769" y="24.7256" width="6.41013" height="10.2915" fill="#76DADE"/>
<rect x="55.769" y="38.8762" width="6.41013" height="10.2915" fill="#76DADE"/>
<rect x="55.0566" y="53.0269" width="6.41013" height="10.2915" fill="#76DADE"/>
<rect x="55.769" y="67.1777" width="6.41013" height="10.2915" fill="#76DADE"/>
<rect x="63.6035" y="10.5745" width="6.41013" height="10.2915" fill="#76DADE"/>
<rect x="99.9277" y="10.5745" width="6.41013" height="10.2915" fill="#76DADE"/>
<rect x="12.3228" y="10.5745" width="6.41013" height="10.2915" fill="#76DADE"/>
<rect x="99.9277" y="24.7256" width="6.41013" height="10.2915" fill="#76DADE"/>
<rect x="12.3228" y="24.7256" width="6.41013" height="10.2915" fill="#76DADE"/>
<rect x="99.9277" y="38.8762" width="6.41013" height="10.2915" fill="#76DADE"/>
<rect x="12.3228" y="38.8762" width="6.41013" height="10.2915" fill="#76DADE"/>
<rect x="99.9277" y="53.0269" width="6.41013" height="10.2915" fill="#76DADE"/>
<rect x="12.3228" y="53.0269" width="6.41013" height="10.2915" fill="#76DADE"/>
<rect x="99.9277" y="67.1777" width="6.41013" height="10.2915" fill="#76DADE"/>
<rect x="12.3228" y="67.1777" width="6.41013" height="10.2915" fill="#76DADE"/>
<rect x="63.6035" y="24.7256" width="6.41013" height="10.2915" fill="#76DADE"/>
<rect x="63.6035" y="38.8762" width="6.41013" height="10.2915" fill="#76DADE"/>
<rect x="62.8911" y="53.0269" width="6.41013" height="10.2915" fill="#76DADE"/>
<rect x="63.6035" y="67.1777" width="6.41013" height="10.2915" fill="#76DADE"/>
<rect x="71.438" y="10.5745" width="6.41013" height="10.2915" fill="#76DADE"/>
<rect x="71.438" y="24.7256" width="6.41013" height="10.2915" fill="#76DADE"/>
<rect x="71.438" y="38.8762" width="6.41013" height="10.2915" fill="#76DADE"/>
<rect x="70.7261" y="53.0269" width="6.41013" height="10.2915" fill="#76DADE"/>
<rect x="71.438" y="67.1777" width="6.41013" height="10.2915" fill="#76DADE"/>
<rect x="0.926758" y="0.283203" width="108.26" height="7.7186" fill="#F3F3F3"/>
</svg>
