<svg width="84" height="59" viewBox="0 0 84 59" fill="none" xmlns="http://www.w3.org/2000/svg">
<rect x="0.283203" y="9.6925" width="66.9782" height="48.5722" fill="#F7ECDA"/>
<rect x="0.283203" y="2.30109" width="66.9782" height="7.39143" fill="#6CD0CF"/>
<rect x="0.283203" y="0.189209" width="66.9782" height="2.11184" fill="#5FB0AF"/>
<rect x="67.2612" y="7.58057" width="16.5019" height="2.11184" fill="#5FB0AF"/>
<rect x="67.2612" y="9.69238" width="16.5019" height="7.39143" fill="#6CD0CF"/>
<rect x="5.13672" y="17.084" width="11.6484" height="8.44735" fill="#87F0FC"/>
<rect x="5.13672" y="29.7551" width="11.6484" height="8.44735" fill="#87F0FC"/>
<rect x="5.13672" y="42.426" width="11.6484" height="8.44735" fill="#87F0FC"/>
<rect x="27.4629" y="17.084" width="11.6484" height="8.44735" fill="#87F0FC"/>
<rect x="27.4629" y="29.7551" width="11.6484" height="8.44735" fill="#87F0FC"/>
<rect x="27.4629" y="42.426" width="11.6484" height="8.44735" fill="#87F0FC"/>
<rect x="47.8477" y="17.084" width="11.6484" height="8.44735" fill="#87F0FC"/>
<rect x="47.8477" y="29.7551" width="11.6484" height="8.44735" fill="#87F0FC"/>
<rect x="47.8477" y="42.426" width="11.6484" height="8.44735" fill="#87F0FC"/>
<rect x="67.2612" y="17.084" width="16.5019" height="41.1808" fill="#F7ECDA"/>
<rect x="71.144" y="18.1399" width="7.76559" height="10.5592" fill="#87F0FC"/>
<rect x="71.144" y="32.9229" width="7.76559" height="10.5592" fill="#87F0FC"/>
</svg>
