<svg width="115" height="69" viewBox="0 0 115 69" fill="none" xmlns="http://www.w3.org/2000/svg">
<rect x="0.486328" y="0.292969" width="114.192" height="2.53504" fill="#FFDC99"/>
<rect x="0.486328" y="2.82782" width="114.192" height="5.07008" fill="#F4C569"/>
<rect x="0.486328" y="7.89819" width="114.192" height="55.7709" fill="#F99750"/>
<rect x="0.486328" y="63.6689" width="114.192" height="5.07008" fill="#F4C569"/>
<rect x="3.98193" y="10.4331" width="5.82612" height="6.3376" fill="#62D1CF"/>
<rect x="36.6084" y="10.4331" width="5.82612" height="6.3376" fill="#62D1CF"/>
<rect x="80.887" y="10.4331" width="5.82612" height="6.3376" fill="#62D1CF"/>
<rect x="3.98193" y="45.9236" width="5.82612" height="6.3376" fill="#62D1CF"/>
<rect x="36.6084" y="45.9236" width="5.82612" height="6.3376" fill="#62D1CF"/>
<rect x="80.887" y="45.9236" width="5.82612" height="6.3376" fill="#62D1CF"/>
<rect x="3.98193" y="54.7964" width="5.82612" height="6.3376" fill="#62D1CF"/>
<rect x="36.6084" y="54.7964" width="5.82612" height="6.3376" fill="#62D1CF"/>
<rect x="80.887" y="54.7964" width="5.82612" height="6.3376" fill="#62D1CF"/>
<rect x="3.98193" y="19.3057" width="5.82612" height="6.3376" fill="#62D1CF"/>
<rect x="36.6084" y="19.3057" width="5.82612" height="6.3376" fill="#62D1CF"/>
<rect x="80.887" y="19.3057" width="5.82612" height="6.3376" fill="#62D1CF"/>
<rect x="3.98193" y="28.1787" width="5.82612" height="6.3376" fill="#62D1CF"/>
<rect x="36.6084" y="28.1787" width="5.82612" height="6.3376" fill="#62D1CF"/>
<rect x="80.887" y="28.1787" width="5.82612" height="6.3376" fill="#62D1CF"/>
<rect x="3.98193" y="37.0513" width="5.82612" height="6.3376" fill="#62D1CF"/>
<rect x="36.6084" y="37.0513" width="5.82612" height="6.3376" fill="#62D1CF"/>
<rect x="80.887" y="37.0513" width="5.82612" height="6.3376" fill="#62D1CF"/>
<rect x="12.1384" y="10.4331" width="5.82612" height="6.3376" fill="#62D1CF"/>
<rect x="44.7646" y="10.4331" width="5.82612" height="6.3376" fill="#62D1CF"/>
<rect x="64.5737" y="10.4331" width="5.82612" height="6.3376" fill="#62D1CF"/>
<rect x="89.0435" y="10.4331" width="5.82612" height="6.3376" fill="#62D1CF"/>
<rect x="12.1384" y="45.9236" width="5.82612" height="6.3376" fill="#62D1CF"/>
<rect x="44.7646" y="45.9236" width="5.82612" height="6.3376" fill="#62D1CF"/>
<rect x="64.5737" y="45.9236" width="5.82612" height="6.3376" fill="#62D1CF"/>
<rect x="89.0435" y="45.9236" width="5.82612" height="6.3376" fill="#62D1CF"/>
<rect x="12.1384" y="54.7964" width="5.82612" height="6.3376" fill="#62D1CF"/>
<rect x="44.7646" y="54.7964" width="5.82612" height="6.3376" fill="#62D1CF"/>
<rect x="64.5737" y="54.7964" width="5.82612" height="6.3376" fill="#62D1CF"/>
<rect x="89.0435" y="54.7964" width="5.82612" height="6.3376" fill="#62D1CF"/>
<rect x="12.1384" y="19.3057" width="5.82612" height="6.3376" fill="#62D1CF"/>
<rect x="44.7646" y="19.3057" width="5.82612" height="6.3376" fill="#62D1CF"/>
<rect x="64.5737" y="19.3057" width="5.82612" height="6.3376" fill="#62D1CF"/>
<rect x="89.0435" y="19.3057" width="5.82612" height="6.3376" fill="#62D1CF"/>
<rect x="12.1384" y="28.1787" width="5.82612" height="6.3376" fill="#62D1CF"/>
<rect x="44.7646" y="28.1787" width="5.82612" height="6.3376" fill="#62D1CF"/>
<rect x="64.5737" y="28.1787" width="5.82612" height="6.3376" fill="#62D1CF"/>
<rect x="89.0435" y="28.1787" width="5.82612" height="6.3376" fill="#62D1CF"/>
<rect x="12.1384" y="37.0513" width="5.82612" height="6.3376" fill="#62D1CF"/>
<rect x="44.7646" y="37.0513" width="5.82612" height="6.3376" fill="#62D1CF"/>
<rect x="64.5737" y="37.0513" width="5.82612" height="6.3376" fill="#62D1CF"/>
<rect x="89.0435" y="37.0513" width="5.82612" height="6.3376" fill="#62D1CF"/>
<rect x="20.2952" y="10.4331" width="5.82612" height="6.3376" fill="#62D1CF"/>
<rect x="97.1997" y="10.4331" width="5.82612" height="6.3376" fill="#62D1CF"/>
<rect x="20.2952" y="45.9236" width="5.82612" height="6.3376" fill="#62D1CF"/>
<rect x="97.1997" y="45.9236" width="5.82612" height="6.3376" fill="#62D1CF"/>
<rect x="20.2952" y="54.7964" width="5.82612" height="6.3376" fill="#62D1CF"/>
<rect x="97.1997" y="54.7964" width="5.82612" height="6.3376" fill="#62D1CF"/>
<rect x="20.2952" y="19.3057" width="5.82612" height="6.3376" fill="#62D1CF"/>
<rect x="97.1997" y="19.3057" width="5.82612" height="6.3376" fill="#62D1CF"/>
<rect x="20.2952" y="28.1787" width="5.82612" height="6.3376" fill="#62D1CF"/>
<rect x="97.1997" y="28.1787" width="5.82612" height="6.3376" fill="#62D1CF"/>
<rect x="20.2952" y="37.0513" width="5.82612" height="6.3376" fill="#62D1CF"/>
<rect x="97.1997" y="37.0513" width="5.82612" height="6.3376" fill="#62D1CF"/>
<rect x="28.4517" y="10.4331" width="5.82612" height="6.3376" fill="#62D1CF"/>
<rect x="72.7302" y="10.4331" width="5.82612" height="6.3376" fill="#62D1CF"/>
<rect x="105.356" y="10.4331" width="5.82612" height="6.3376" fill="#62D1CF"/>
<rect x="28.4517" y="45.9236" width="5.82612" height="6.3376" fill="#62D1CF"/>
<rect x="72.73" y="45.9236" width="5.82612" height="6.3376" fill="#62D1CF"/>
<rect x="105.356" y="45.9236" width="5.82612" height="6.3376" fill="#62D1CF"/>
<rect x="28.4517" y="54.7964" width="5.82612" height="6.3376" fill="#62D1CF"/>
<rect x="72.7297" y="54.7964" width="5.82612" height="6.3376" fill="#62D1CF"/>
<rect x="105.356" y="54.7964" width="5.82612" height="6.3376" fill="#62D1CF"/>
<rect x="28.4517" y="19.3057" width="5.82612" height="6.3376" fill="#62D1CF"/>
<rect x="72.73" y="19.3057" width="5.82612" height="6.3376" fill="#62D1CF"/>
<rect x="105.356" y="19.3057" width="5.82612" height="6.3376" fill="#62D1CF"/>
<rect x="28.4517" y="28.1787" width="5.82612" height="6.3376" fill="#62D1CF"/>
<rect x="72.73" y="28.1787" width="5.82612" height="6.3376" fill="#62D1CF"/>
<rect x="105.356" y="28.1787" width="5.82612" height="6.3376" fill="#62D1CF"/>
<rect x="28.4517" y="37.0513" width="5.82612" height="6.3376" fill="#62D1CF"/>
<rect x="72.73" y="37.0513" width="5.82612" height="6.3376" fill="#62D1CF"/>
<rect x="105.356" y="37.0513" width="5.82612" height="6.3376" fill="#62D1CF"/>
<rect x="52.9216" y="7.89819" width="9.32179" height="55.7709" fill="#D66A27"/>
</svg>
