<svg width="208" height="114" viewBox="0 0 208 114" fill="none" xmlns="http://www.w3.org/2000/svg">
<rect x="0.152344" y="17.0098" width="191.309" height="96.7925" fill="#F7ECDA"/>
<rect x="12.0161" y="26.689" width="16.3131" height="9.67925" fill="#66D2D1"/>
<rect x="12.0161" y="42.821" width="16.3131" height="9.67925" fill="#66D2D1"/>
<rect x="12.0161" y="58.9531" width="16.3131" height="9.67925" fill="#66D2D1"/>
<rect x="12.0161" y="75.0852" width="16.3131" height="9.67925" fill="#66D2D1"/>
<rect x="12.0161" y="91.2173" width="16.3131" height="9.67925" fill="#66D2D1"/>
<rect x="37.2275" y="26.689" width="16.3131" height="9.67925" fill="#66D2D1"/>
<rect x="37.2275" y="42.821" width="16.3131" height="9.67925" fill="#66D2D1"/>
<rect x="37.2275" y="58.9531" width="16.3131" height="9.67925" fill="#66D2D1"/>
<rect x="37.2275" y="75.0852" width="16.3131" height="9.67925" fill="#66D2D1"/>
<rect x="37.2275" y="91.2173" width="16.3131" height="9.67925" fill="#66D2D1"/>
<rect x="62.439" y="26.689" width="16.3131" height="9.67925" fill="#66D2D1"/>
<rect x="62.439" y="42.821" width="16.3131" height="9.67925" fill="#66D2D1"/>
<rect x="62.439" y="58.9531" width="16.3131" height="9.67925" fill="#66D2D1"/>
<rect x="62.439" y="75.0852" width="16.3131" height="9.67925" fill="#66D2D1"/>
<rect x="62.439" y="91.2173" width="16.3131" height="9.67925" fill="#66D2D1"/>
<rect x="87.6504" y="26.689" width="16.3131" height="9.67925" fill="#66D2D1"/>
<rect x="87.6504" y="42.821" width="16.3131" height="9.67925" fill="#66D2D1"/>
<rect x="87.6504" y="58.9531" width="16.3131" height="9.67925" fill="#66D2D1"/>
<rect x="87.6504" y="75.0852" width="16.3131" height="9.67925" fill="#66D2D1"/>
<rect x="87.6504" y="91.2173" width="16.3131" height="9.67925" fill="#66D2D1"/>
<rect x="112.861" y="26.689" width="16.3131" height="9.67925" fill="#66D2D1"/>
<rect x="112.861" y="42.821" width="16.3131" height="9.67925" fill="#66D2D1"/>
<rect x="112.861" y="58.9531" width="16.3131" height="9.67925" fill="#66D2D1"/>
<rect x="112.861" y="75.0852" width="16.3131" height="9.67925" fill="#66D2D1"/>
<rect x="112.861" y="91.2173" width="16.3131" height="9.67925" fill="#66D2D1"/>
<rect x="138.072" y="26.689" width="16.3131" height="9.67925" fill="#66D2D1"/>
<rect x="138.072" y="42.821" width="16.3131" height="9.67925" fill="#66D2D1"/>
<rect x="138.072" y="58.9531" width="16.3131" height="9.67925" fill="#66D2D1"/>
<rect x="138.072" y="75.0852" width="16.3131" height="9.67925" fill="#66D2D1"/>
<rect x="138.072" y="91.2173" width="16.3131" height="9.67925" fill="#66D2D1"/>
<rect x="163.284" y="26.689" width="16.3131" height="9.67925" fill="#66D2D1"/>
<rect x="163.284" y="42.821" width="16.3131" height="9.67925" fill="#66D2D1"/>
<rect x="163.284" y="58.9531" width="16.3131" height="9.67925" fill="#66D2D1"/>
<rect x="163.284" y="75.0852" width="16.3131" height="9.67925" fill="#66D2D1"/>
<rect x="163.284" y="91.2173" width="16.3131" height="9.67925" fill="#66D2D1"/>
<rect x="191.461" y="17.0098" width="16.3131" height="96.7925" fill="#FE9554"/>
<rect x="0.152344" y="0.877686" width="207.622" height="16.1321" fill="#BEF3F9"/>
</svg>
