<svg width="167" height="110" viewBox="0 0 167 110" fill="none" xmlns="http://www.w3.org/2000/svg">
<rect x="49.6196" y="0.462402" width="8.49361" height="108.702" fill="#FC9454"/>
<rect x="0.545898" y="18.9214" width="8.49361" height="90.2436" fill="#FC9454"/>
<rect x="109.075" y="0.462402" width="8.49361" height="108.702" fill="#FC9454"/>
<rect x="158.149" y="18.9214" width="8.49361" height="90.2436" fill="#FC9454"/>
<rect x="58.1138" y="8.6665" width="50.9616" height="100.499" fill="#F4E5D2"/>
<rect x="117.569" y="18.9214" width="40.5806" height="90.2436" fill="#F4E5D2"/>
<rect x="9.03955" y="18.9214" width="40.5806" height="90.2436" fill="#F4E5D2"/>
<rect x="58.1138" y="0.462402" width="50.9616" height="8.20396" fill="#F5F5F5"/>
<rect x="0.545898" y="12.7687" width="49.0742" height="8.20396" fill="#F5F5F5"/>
<rect x="117.569" y="10.7175" width="49.0742" height="8.20396" fill="#F5F5F5"/>
<rect x="51.5073" y="8.6665" width="4.71867" height="16.4079" fill="#68D2D2"/>
<rect x="60.001" y="10.7175" width="19.8184" height="10.255" fill="#68D2D2"/>
<rect x="10.9268" y="23.0237" width="16.0435" height="10.255" fill="#68D2D2"/>
<rect x="10.9268" y="39.4316" width="16.0435" height="10.255" fill="#68D2D2"/>
<rect x="10.9268" y="55.8394" width="16.0435" height="10.255" fill="#68D2D2"/>
<rect x="10.9268" y="72.2476" width="16.0435" height="10.255" fill="#68D2D2"/>
<rect x="10.9268" y="88.655" width="16.0435" height="10.255" fill="#68D2D2"/>
<rect x="120.4" y="23.0237" width="16.0435" height="10.255" fill="#68D2D2"/>
<rect x="120.4" y="39.4316" width="16.0435" height="10.255" fill="#68D2D2"/>
<rect x="120.4" y="55.8394" width="16.0435" height="10.255" fill="#68D2D2"/>
<rect x="120.4" y="72.2476" width="16.0435" height="10.255" fill="#68D2D2"/>
<rect x="120.4" y="88.655" width="16.0435" height="10.255" fill="#68D2D2"/>
<rect x="30.7451" y="23.0237" width="16.0435" height="10.255" fill="#68D2D2"/>
<rect x="30.7451" y="39.4316" width="16.0435" height="10.255" fill="#68D2D2"/>
<rect x="30.7451" y="55.8394" width="16.0435" height="10.255" fill="#68D2D2"/>
<rect x="30.7451" y="72.2476" width="16.0435" height="10.255" fill="#68D2D2"/>
<rect x="30.7451" y="88.655" width="16.0435" height="10.255" fill="#68D2D2"/>
<rect x="140.219" y="23.0237" width="16.0435" height="10.255" fill="#68D2D2"/>
<rect x="140.219" y="39.4316" width="16.0435" height="10.255" fill="#68D2D2"/>
<rect x="140.219" y="55.8394" width="16.0435" height="10.255" fill="#68D2D2"/>
<rect x="140.219" y="72.2476" width="16.0435" height="10.255" fill="#68D2D2"/>
<rect x="140.219" y="88.655" width="16.0435" height="10.255" fill="#68D2D2"/>
<rect x="60.001" y="27.1262" width="19.8184" height="10.255" fill="#68D2D2"/>
<rect x="60.001" y="43.5327" width="19.8184" height="10.255" fill="#68D2D2"/>
<rect x="60.001" y="59.9417" width="19.8184" height="10.255" fill="#68D2D2"/>
<rect x="60.001" y="76.3494" width="19.8184" height="10.255" fill="#68D2D2"/>
<rect x="87.3696" y="10.7175" width="19.8184" height="10.255" fill="#68D2D2"/>
<rect x="87.3696" y="27.1262" width="19.8184" height="10.255" fill="#68D2D2"/>
<rect x="87.3696" y="43.5327" width="19.8184" height="10.255" fill="#68D2D2"/>
<rect x="87.3696" y="59.9417" width="19.8184" height="10.255" fill="#68D2D2"/>
<rect x="87.3696" y="76.3494" width="19.8184" height="10.255" fill="#68D2D2"/>
<rect x="110.962" y="8.6665" width="4.71867" height="16.4079" fill="#68D2D2"/>
<rect x="51.5073" y="33.2781" width="4.71867" height="16.4079" fill="#68D2D2"/>
<rect x="110.962" y="33.2781" width="4.71867" height="16.4079" fill="#68D2D2"/>
<rect x="51.5073" y="57.8901" width="4.71867" height="16.4079" fill="#68D2D2"/>
<rect x="110.962" y="57.8901" width="4.71867" height="16.4079" fill="#68D2D2"/>
<rect x="51.5073" y="82.5027" width="4.71867" height="16.4079" fill="#68D2D2"/>
<rect x="110.962" y="82.5027" width="4.71867" height="16.4079" fill="#68D2D2"/>
<rect x="70.3818" y="90.7061" width="26.4246" height="18.4589" fill="#A0FCFC"/>
</svg>
