<svg width="151" height="135" viewBox="0 0 151 135" fill="none" xmlns="http://www.w3.org/2000/svg">
<rect x="82.4072" y="0.679688" width="8.49361" height="108.702" fill="#FC9454"/>
<rect x="141.863" y="0.679688" width="8.49361" height="108.702" fill="#FC9454"/>
<rect x="90.9009" y="8.88354" width="50.9616" height="100.499" fill="#F4E5D2"/>
<rect x="90.9009" y="0.679688" width="50.9616" height="8.20396" fill="#F5F5F5"/>
<rect x="84.2949" y="8.88354" width="4.71867" height="16.4079" fill="#68D2D2"/>
<rect x="92.7881" y="10.9348" width="19.8184" height="10.255" fill="#68D2D2"/>
<rect x="92.7881" y="27.3433" width="19.8184" height="10.255" fill="#68D2D2"/>
<rect x="92.7881" y="43.75" width="19.8184" height="10.255" fill="#68D2D2"/>
<rect x="92.7881" y="60.1589" width="19.8184" height="10.255" fill="#68D2D2"/>
<rect x="92.7881" y="76.5667" width="19.8184" height="10.255" fill="#68D2D2"/>
<rect x="120.157" y="10.9348" width="19.8184" height="10.255" fill="#68D2D2"/>
<rect x="120.157" y="27.3433" width="19.8184" height="10.255" fill="#68D2D2"/>
<rect x="120.157" y="43.75" width="19.8184" height="10.255" fill="#68D2D2"/>
<rect x="120.157" y="60.1589" width="19.8184" height="10.255" fill="#68D2D2"/>
<rect x="120.157" y="76.5667" width="19.8184" height="10.255" fill="#68D2D2"/>
<rect x="143.75" y="8.88354" width="4.71867" height="16.4079" fill="#68D2D2"/>
<rect x="84.2949" y="33.4951" width="4.71867" height="16.4079" fill="#68D2D2"/>
<rect x="143.75" y="33.4951" width="4.71867" height="16.4079" fill="#68D2D2"/>
<rect x="84.2949" y="58.1072" width="4.71867" height="16.4079" fill="#68D2D2"/>
<rect x="143.75" y="58.1072" width="4.71867" height="16.4079" fill="#68D2D2"/>
<rect x="84.2949" y="82.7197" width="4.71867" height="16.4079" fill="#68D2D2"/>
<rect x="143.75" y="82.7197" width="4.71867" height="16.4079" fill="#68D2D2"/>
<rect x="103.169" y="90.9233" width="26.4246" height="18.4589" fill="#A0FCFC"/>
<rect x="0.841309" y="59.5433" width="115.675" height="75.0306" fill="#F6EAD9"/>
<rect x="3.83252" y="61.4187" width="5.98319" height="5.62746" fill="#67D0D3"/>
<rect x="11.8101" y="61.4187" width="5.98319" height="5.62746" fill="#67D0D3"/>
<rect x="19.7881" y="61.4187" width="5.98319" height="5.62746" fill="#67D0D3"/>
<rect x="27.7656" y="61.4187" width="5.98319" height="5.62746" fill="#67D0D3"/>
<rect x="35.7437" y="61.4187" width="5.98319" height="5.62746" fill="#67D0D3"/>
<rect x="43.7212" y="61.4187" width="5.98319" height="5.62746" fill="#67D0D3"/>
<rect x="51.6987" y="61.4187" width="5.98319" height="5.62746" fill="#67D0D3"/>
<rect x="59.6753" y="61.4187" width="5.98319" height="5.62746" fill="#67D0D3"/>
<rect x="67.6533" y="61.4187" width="5.98319" height="5.62746" fill="#67D0D3"/>
<rect x="75.6309" y="61.4187" width="5.98319" height="5.62746" fill="#67D0D3"/>
<rect x="83.6089" y="61.4187" width="5.98319" height="5.62746" fill="#67D0D3"/>
<rect x="91.5859" y="61.4187" width="5.98319" height="5.62746" fill="#67D0D3"/>
<rect x="99.564" y="61.4187" width="5.98319" height="5.62746" fill="#67D0D3"/>
<rect x="107.542" y="61.4187" width="5.98319" height="5.62746" fill="#67D0D3"/>
<rect x="3.83252" y="68.9211" width="5.98319" height="5.62746" fill="#67D0D3"/>
<rect x="11.8101" y="68.9211" width="5.98319" height="5.62746" fill="#67D0D3"/>
<rect x="19.7881" y="68.9211" width="5.98319" height="5.62746" fill="#67D0D3"/>
<rect x="27.7656" y="68.9211" width="5.98319" height="5.62746" fill="#67D0D3"/>
<rect x="35.7437" y="68.9211" width="5.98319" height="5.62746" fill="#67D0D3"/>
<rect x="43.7212" y="68.9211" width="5.98319" height="5.62746" fill="#67D0D3"/>
<rect x="51.6987" y="68.9211" width="5.98319" height="5.62746" fill="#67D0D3"/>
<rect x="59.6753" y="68.9211" width="5.98319" height="5.62746" fill="#67D0D3"/>
<rect x="67.6533" y="68.9211" width="5.98319" height="5.62746" fill="#67D0D3"/>
<rect x="75.6309" y="68.9211" width="5.98319" height="5.62746" fill="#67D0D3"/>
<rect x="83.6089" y="68.9211" width="5.98319" height="5.62746" fill="#67D0D3"/>
<rect x="91.5859" y="68.9211" width="5.98319" height="5.62746" fill="#67D0D3"/>
<rect x="99.564" y="68.9211" width="5.98319" height="5.62746" fill="#67D0D3"/>
<rect x="107.542" y="68.9211" width="5.98319" height="5.62746" fill="#67D0D3"/>
<rect x="3.83252" y="76.4246" width="5.98319" height="5.62746" fill="#67D0D3"/>
<rect x="11.8101" y="76.4246" width="5.98319" height="5.62746" fill="#67D0D3"/>
<rect x="19.7881" y="76.4246" width="5.98319" height="5.62746" fill="#67D0D3"/>
<rect x="27.7656" y="76.4246" width="5.98319" height="5.62746" fill="#67D0D3"/>
<rect x="35.7437" y="76.4246" width="5.98319" height="5.62746" fill="#67D0D3"/>
<rect x="43.7212" y="76.4246" width="5.98319" height="5.62746" fill="#67D0D3"/>
<rect x="51.6987" y="76.4246" width="5.98319" height="5.62746" fill="#67D0D3"/>
<rect x="59.6753" y="76.4246" width="5.98319" height="5.62746" fill="#67D0D3"/>
<rect x="67.6533" y="76.4246" width="5.98319" height="5.62746" fill="#67D0D3"/>
<rect x="75.6309" y="76.4246" width="5.98319" height="5.62746" fill="#67D0D3"/>
<rect x="83.6089" y="76.4246" width="5.98319" height="5.62746" fill="#67D0D3"/>
<rect x="91.5859" y="76.4246" width="5.98319" height="5.62746" fill="#67D0D3"/>
<rect x="99.564" y="76.4246" width="5.98319" height="5.62746" fill="#67D0D3"/>
<rect x="107.542" y="76.4246" width="5.98319" height="5.62746" fill="#67D0D3"/>
<rect x="3.83252" y="83.9277" width="5.98319" height="5.62746" fill="#67D0D3"/>
<rect x="11.8101" y="83.9277" width="5.98319" height="5.62746" fill="#67D0D3"/>
<rect x="19.7881" y="83.9277" width="5.98319" height="5.62746" fill="#67D0D3"/>
<rect x="27.7656" y="83.9277" width="5.98319" height="5.62746" fill="#67D0D3"/>
<rect x="35.7437" y="83.9277" width="5.98319" height="5.62746" fill="#67D0D3"/>
<rect x="43.7212" y="83.9277" width="5.98319" height="5.62746" fill="#67D0D3"/>
<rect x="51.6987" y="83.9277" width="5.98319" height="5.62746" fill="#67D0D3"/>
<rect x="59.6753" y="83.9277" width="5.98319" height="5.62746" fill="#67D0D3"/>
<rect x="67.6533" y="83.9277" width="5.98319" height="5.62746" fill="#67D0D3"/>
<rect x="75.6309" y="83.9277" width="5.98319" height="5.62746" fill="#67D0D3"/>
<rect x="83.6089" y="83.9277" width="5.98319" height="5.62746" fill="#67D0D3"/>
<rect x="91.5859" y="83.9277" width="5.98319" height="5.62746" fill="#67D0D3"/>
<rect x="99.564" y="83.9277" width="5.98319" height="5.62746" fill="#67D0D3"/>
<rect x="107.542" y="83.9277" width="5.98319" height="5.62746" fill="#67D0D3"/>
<rect x="3.83252" y="91.4314" width="5.98319" height="5.62746" fill="#67D0D3"/>
<rect x="11.8101" y="91.4314" width="5.98319" height="5.62746" fill="#67D0D3"/>
<rect x="19.7881" y="91.4314" width="5.98319" height="5.62746" fill="#67D0D3"/>
<rect x="27.7656" y="91.4314" width="5.98319" height="5.62746" fill="#67D0D3"/>
<rect x="35.7437" y="91.4314" width="5.98319" height="5.62746" fill="#67D0D3"/>
<rect x="43.7212" y="91.4314" width="5.98319" height="5.62746" fill="#67D0D3"/>
<rect x="51.6987" y="91.4314" width="5.98319" height="5.62746" fill="#67D0D3"/>
<rect x="59.6753" y="91.4314" width="5.98319" height="5.62746" fill="#67D0D3"/>
<rect x="67.6533" y="91.4314" width="5.98319" height="5.62746" fill="#67D0D3"/>
<rect x="75.6309" y="91.4314" width="5.98319" height="5.62746" fill="#67D0D3"/>
<rect x="83.6089" y="91.4314" width="5.98319" height="5.62746" fill="#67D0D3"/>
<rect x="91.5859" y="91.4314" width="5.98319" height="5.62746" fill="#67D0D3"/>
<rect x="99.564" y="91.4314" width="5.98319" height="5.62746" fill="#67D0D3"/>
<rect x="107.542" y="91.4314" width="5.98319" height="5.62746" fill="#67D0D3"/>
<rect x="3.83252" y="98.9333" width="5.98319" height="5.62746" fill="#67D0D3"/>
<rect x="11.8101" y="98.9333" width="5.98319" height="5.62746" fill="#67D0D3"/>
<rect x="19.7881" y="98.9333" width="5.98319" height="5.62746" fill="#67D0D3"/>
<rect x="27.7656" y="98.9333" width="5.98319" height="5.62746" fill="#67D0D3"/>
<rect x="35.7437" y="98.9333" width="5.98319" height="5.62746" fill="#67D0D3"/>
<rect x="43.7212" y="98.9333" width="5.98319" height="5.62746" fill="#67D0D3"/>
<rect x="51.6987" y="98.9333" width="5.98319" height="5.62746" fill="#67D0D3"/>
<rect x="59.6753" y="98.9333" width="5.98319" height="5.62746" fill="#67D0D3"/>
<rect x="67.6533" y="98.9333" width="5.98319" height="5.62746" fill="#67D0D3"/>
<rect x="75.6309" y="98.9333" width="5.98319" height="5.62746" fill="#67D0D3"/>
<rect x="83.6089" y="98.9333" width="5.98319" height="5.62746" fill="#67D0D3"/>
<rect x="91.5859" y="98.9333" width="5.98319" height="5.62746" fill="#67D0D3"/>
<rect x="99.564" y="98.9333" width="5.98319" height="5.62746" fill="#67D0D3"/>
<rect x="107.542" y="98.9333" width="5.98319" height="5.62746" fill="#67D0D3"/>
<rect x="3.83252" y="106.437" width="5.98319" height="5.62746" fill="#67D0D3"/>
<rect x="11.8101" y="106.437" width="5.98319" height="5.62746" fill="#67D0D3"/>
<rect x="19.7881" y="106.437" width="5.98319" height="5.62746" fill="#67D0D3"/>
<rect x="27.7656" y="106.437" width="5.98319" height="5.62746" fill="#67D0D3"/>
<rect x="35.7437" y="106.437" width="5.98319" height="5.62746" fill="#67D0D3"/>
<rect x="43.7212" y="106.437" width="5.98319" height="5.62746" fill="#67D0D3"/>
<rect x="51.6987" y="106.437" width="5.98319" height="5.62746" fill="#67D0D3"/>
<rect x="59.6753" y="106.437" width="5.98319" height="5.62746" fill="#67D0D3"/>
<rect x="67.6533" y="106.437" width="5.98319" height="5.62746" fill="#67D0D3"/>
<rect x="75.6309" y="106.437" width="5.98319" height="5.62746" fill="#67D0D3"/>
<rect x="83.6089" y="106.437" width="5.98319" height="5.62746" fill="#67D0D3"/>
<rect x="91.5859" y="106.437" width="5.98319" height="5.62746" fill="#67D0D3"/>
<rect x="99.564" y="106.437" width="5.98319" height="5.62746" fill="#67D0D3"/>
<rect x="107.542" y="106.437" width="5.98319" height="5.62746" fill="#67D0D3"/>
<rect x="3.83252" y="113.94" width="5.98319" height="5.62746" fill="#67D0D3"/>
<rect x="11.8101" y="113.94" width="5.98319" height="5.62746" fill="#67D0D3"/>
<rect x="19.7881" y="113.94" width="5.98319" height="5.62746" fill="#67D0D3"/>
<rect x="27.7656" y="113.94" width="5.98319" height="5.62746" fill="#67D0D3"/>
<rect x="35.7437" y="113.94" width="5.98319" height="5.62746" fill="#67D0D3"/>
<rect x="43.7212" y="113.94" width="5.98319" height="5.62746" fill="#67D0D3"/>
<rect x="51.6987" y="113.94" width="5.98319" height="5.62746" fill="#67D0D3"/>
<rect x="59.6753" y="113.94" width="5.98319" height="5.62746" fill="#67D0D3"/>
<rect x="67.6533" y="113.94" width="5.98319" height="5.62746" fill="#67D0D3"/>
<rect x="75.6309" y="113.94" width="5.98319" height="5.62746" fill="#67D0D3"/>
<rect x="83.6089" y="113.94" width="5.98319" height="5.62746" fill="#67D0D3"/>
<rect x="91.5859" y="113.94" width="5.98319" height="5.62746" fill="#67D0D3"/>
<rect x="99.564" y="113.94" width="5.98319" height="5.62746" fill="#67D0D3"/>
<rect x="107.542" y="113.94" width="5.98319" height="5.62746" fill="#67D0D3"/>
<rect x="3.83252" y="121.443" width="5.98319" height="5.62746" fill="#67D0D3"/>
<rect x="11.8101" y="121.443" width="5.98319" height="5.62746" fill="#67D0D3"/>
<rect x="19.7881" y="121.443" width="5.98319" height="5.62746" fill="#67D0D3"/>
<rect x="27.7656" y="121.443" width="5.98319" height="5.62746" fill="#67D0D3"/>
<rect x="35.7437" y="121.443" width="5.98319" height="5.62746" fill="#67D0D3"/>
<rect x="43.7212" y="121.443" width="5.98319" height="5.62746" fill="#67D0D3"/>
<rect x="51.6987" y="121.443" width="5.98319" height="5.62746" fill="#67D0D3"/>
<rect x="59.6753" y="121.443" width="5.98319" height="5.62746" fill="#67D0D3"/>
<rect x="67.6533" y="121.443" width="5.98319" height="5.62746" fill="#67D0D3"/>
<rect x="75.6309" y="121.443" width="5.98319" height="5.62746" fill="#67D0D3"/>
<rect x="83.6089" y="121.443" width="5.98319" height="5.62746" fill="#67D0D3"/>
<rect x="91.5859" y="121.443" width="5.98319" height="5.62746" fill="#67D0D3"/>
<rect x="99.564" y="121.443" width="5.98319" height="5.62746" fill="#67D0D3"/>
<rect x="107.542" y="121.443" width="5.98319" height="5.62746" fill="#67D0D3"/>
<rect x="0.841309" y="53.9155" width="115.675" height="5.62746" fill="#51ADA8"/>
</svg>
