<svg width="90" height="100" viewBox="0 0 90 100" fill="none" xmlns="http://www.w3.org/2000/svg">
<rect x="32.8699" y="12.656" width="33.6917" height="86.6558" fill="#F99750"/>
<rect x="11.2722" y="27.343" width="21.5973" height="71.9684" fill="#F99750"/>
<rect x="66.5615" y="27.343" width="22.4612" height="71.9684" fill="#F99750"/>
<rect x="0.041748" y="42.0305" width="11.2306" height="57.2809" fill="#F99750"/>
<rect x="32.8699" y="12.656" width="6.04723" height="86.6558" fill="#67D0D3"/>
<rect x="46.6921" y="12.656" width="6.04723" height="86.6558" fill="#67D0D3"/>
<rect x="60.5139" y="12.656" width="6.04723" height="86.6558" fill="#67D0D3"/>
<rect x="71.7444" y="27.343" width="6.04723" height="71.9684" fill="#67D0D3"/>
<rect x="22.5029" y="27.343" width="6.04723" height="71.9684" fill="#67D0D3"/>
<rect x="11.2722" y="27.343" width="6.04723" height="71.9684" fill="#67D0D3"/>
<rect x="82.9749" y="27.343" width="6.04723" height="71.9684" fill="#67D0D3"/>
<rect x="0.041748" y="33.2181" width="11.2306" height="8.81245" fill="#FB791A"/>
<rect x="11.2722" y="18.5308" width="21.5973" height="8.81245" fill="#FB791A"/>
<rect x="32.8699" y="3.84326" width="33.6917" height="8.81245" fill="#FB791A"/>
<rect x="66.5615" y="18.5308" width="22.4612" height="8.81245" fill="#FB791A"/>
<rect x="0.041748" y="30.2808" width="11.2306" height="2.93748" fill="#FBF1F1"/>
<rect x="11.2722" y="15.5933" width="21.5973" height="2.93748" fill="#FBF1F1"/>
<rect x="32.8696" y="0.905762" width="33.6917" height="2.93748" fill="#FBF1F1"/>
<rect x="66.5615" y="15.5933" width="22.4612" height="2.93748" fill="#FBF1F1"/>
</svg>
