<svg width="172" height="93" viewBox="0 0 172 93" fill="none" xmlns="http://www.w3.org/2000/svg">
<rect x="0.920654" y="40.1442" width="44.4131" height="52.5445" fill="#FD9552"/>
<rect x="45.3337" y="7.3042" width="90.6028" height="85.3848" fill="#FD9452"/>
<rect x="128.83" y="40.1443" width="42.6366" height="52.5445" fill="#F89753"/>
<rect x="4.47363" y="46.7124" width="3.55305" height="45.9764" fill="#65D3D0"/>
<rect x="11.5798" y="46.7124" width="3.55305" height="45.9764" fill="#65D3D0"/>
<rect x="18.6858" y="46.7124" width="3.55305" height="45.9764" fill="#65D3D0"/>
<rect x="25.792" y="46.7124" width="3.55305" height="45.9764" fill="#65D3D0"/>
<rect x="32.8982" y="46.7124" width="3.55305" height="45.9764" fill="#65D3D0"/>
<rect x="40.0042" y="46.7124" width="3.55305" height="45.9764" fill="#65D3D0"/>
<rect x="47.1101" y="16.0615" width="3.55305" height="76.6274" fill="#65D3D0"/>
<rect x="54.2166" y="16.0615" width="3.55305" height="76.6274" fill="#65D3D0"/>
<rect x="61.3225" y="16.0615" width="3.55305" height="76.6274" fill="#65D3D0"/>
<rect x="68.4285" y="16.0615" width="3.55305" height="76.6274" fill="#65D3D0"/>
<rect x="75.5347" y="16.0615" width="3.55305" height="76.6274" fill="#65D3D0"/>
<rect x="82.6409" y="16.0615" width="3.55305" height="76.6274" fill="#65D3D0"/>
<rect x="89.7468" y="16.0615" width="3.55305" height="76.6274" fill="#65D3D0"/>
<rect x="96.8528" y="16.0615" width="3.55305" height="76.6274" fill="#65D3D0"/>
<rect x="103.959" y="16.0615" width="3.55305" height="76.6274" fill="#65D3D0"/>
<rect x="111.065" y="16.0615" width="3.55305" height="76.6274" fill="#65D3D0"/>
<rect x="118.171" y="16.0615" width="3.55305" height="76.6274" fill="#65D3D0"/>
<rect x="125.277" y="16.0615" width="3.55305" height="76.6274" fill="#65D3D0"/>
<rect x="132.384" y="16.0615" width="3.55305" height="76.6274" fill="#65D3D0"/>
<rect x="148.372" y="62.0378" width="19.5418" height="30.651" fill="#65D3D0"/>
<rect x="0.920654" y="33.5764" width="44.4131" height="6.56806" fill="#C1EFFE"/>
<rect x="135.936" y="33.5764" width="35.5305" height="6.56806" fill="#C1EFFE"/>
<rect x="45.3337" y="0.736084" width="90.6028" height="6.56806" fill="#C1EFFE"/>
</svg>
