<svg width="173" height="120" viewBox="0 0 173 120" fill="none" xmlns="http://www.w3.org/2000/svg">
<rect x="12.2168" y="5.16553" width="27.8967" height="114.373" fill="#F99750"/>
<rect x="126.128" y="5.16553" width="41.845" height="114.373" fill="#F99750"/>
<rect x="0.593262" y="5.16553" width="11.6236" height="114.373" fill="#F4C569"/>
<rect x="114.505" y="5.16553" width="11.6236" height="114.373" fill="#F4C569"/>
<rect x="160.999" y="5.16553" width="11.6236" height="114.373" fill="#F4C569"/>
<rect x="19.1909" y="11.1851" width="13.9483" height="10.5343" fill="#6CD0CF"/>
<rect x="126.128" y="11.1851" width="34.8708" height="10.5343" fill="#6CD0CF"/>
<rect x="126.128" y="26.2341" width="34.8708" height="10.5343" fill="#6CD0CF"/>
<rect x="126.128" y="41.2832" width="34.8708" height="10.5343" fill="#6CD0CF"/>
<rect x="126.128" y="56.332" width="34.8708" height="10.5343" fill="#6CD0CF"/>
<rect x="126.128" y="71.3816" width="34.8708" height="10.5343" fill="#6CD0CF"/>
<rect x="126.128" y="86.4304" width="34.8708" height="10.5343" fill="#6CD0CF"/>
<rect x="126.128" y="101.479" width="34.8708" height="10.5343" fill="#6CD0CF"/>
<rect x="19.1909" y="26.2341" width="13.9483" height="10.5343" fill="#6CD0CF"/>
<rect x="19.1909" y="41.2832" width="13.9483" height="10.5343" fill="#6CD0CF"/>
<rect x="19.1909" y="56.332" width="13.9483" height="10.5343" fill="#6CD0CF"/>
<rect x="19.1909" y="71.3816" width="13.9483" height="10.5343" fill="#6CD0CF"/>
<rect x="19.1909" y="86.4304" width="13.9483" height="10.5343" fill="#6CD0CF"/>
<rect x="19.1909" y="101.479" width="13.9483" height="10.5343" fill="#6CD0CF"/>
<rect x="40.1133" y="41.2832" width="74.3911" height="18.0589" fill="#F4E3D3"/>
<rect x="0.593262" y="0.650879" width="39.5203" height="4.51471" fill="#62D1CF"/>
<rect x="114.505" y="0.650879" width="58.118" height="4.51471" fill="#62D1CF"/>
</svg>
