<svg width="124" height="148" viewBox="0 0 124 148" fill="none" xmlns="http://www.w3.org/2000/svg">
<rect x="40.1628" y="55.697" width="83.0487" height="92.2968" fill="#66D2D4"/>
<rect x="40.1628" y="60.825" width="83.0487" height="2.5638" fill="#F4E3D3"/>
<rect x="40.1628" y="71.0801" width="83.0487" height="2.5638" fill="#F4E3D3"/>
<rect x="40.1628" y="81.3354" width="83.0487" height="2.5638" fill="#F4E3D3"/>
<rect x="40.1628" y="91.5911" width="83.0487" height="2.5638" fill="#F4E3D3"/>
<rect x="40.1628" y="101.846" width="83.0487" height="2.5638" fill="#F4E3D3"/>
<rect x="40.1628" y="112.101" width="83.0487" height="2.5638" fill="#F4E3D3"/>
<rect x="40.1628" y="122.356" width="83.0487" height="2.5638" fill="#F4E3D3"/>
<rect x="40.1628" y="132.612" width="83.0487" height="2.5638" fill="#F4E3D3"/>
<rect x="38.6802" y="142.867" width="83.0487" height="2.5638" fill="#F4E3D3"/>
<rect x="0.121582" y="86.4631" width="83.0487" height="61.5312" fill="#66D2D4"/>
<rect x="0.121582" y="91.591" width="83.0487" height="2.5638" fill="#F4E3D3"/>
<rect x="0.121582" y="99.2821" width="83.0487" height="2.5638" fill="#F4E3D3"/>
<rect x="0.121582" y="106.974" width="83.0487" height="2.5638" fill="#F4E3D3"/>
<rect x="0.121582" y="114.665" width="83.0487" height="2.5638" fill="#F4E3D3"/>
<rect x="0.121582" y="122.356" width="83.0487" height="2.5638" fill="#F4E3D3"/>
<rect x="0.121582" y="130.048" width="83.0487" height="2.5638" fill="#F4E3D3"/>
<rect x="0.121582" y="137.74" width="83.0487" height="2.5638" fill="#F4E3D3"/>
<rect x="0.121582" y="73.6444" width="83.0487" height="12.819" fill="#F5F5F5"/>
<rect x="83.1704" y="73.6445" width="7.41506" height="74.3502" fill="#FFDDBE"/>
<path d="M16.4351 9.54932L90.5857 73.6443H16.4351V9.54932Z" fill="#66D2D4"/>
<rect x="16.4351" y="60.825" width="83.0487" height="2.5638" fill="#F4E3D3"/>
<rect x="16.4351" y="50.5703" width="35.5923" height="2.5638" fill="#F4E3D3"/>
<rect x="16.4351" y="40.3145" width="31.1432" height="2.5638" fill="#F4E3D3"/>
<path d="M16.4351 30.0598H40.1632L43.1293 32.6236H16.4351V30.0598Z" fill="#F4E3D3"/>
<path d="M16.4351 19.8047H28.2992L31.2652 22.3685H16.4351V19.8047Z" fill="#F4E3D3"/>
<rect x="16.4351" y="71.0801" width="83.0487" height="2.5638" fill="#F4E3D3"/>
<path d="M27.5574 35.1875L100.966 73.6445H27.5574V35.1875Z" fill="#9ADCDE"/>
<rect x="90.5854" y="73.6445" width="10.3811" height="74.3502" fill="#9ADCDE"/>
<path d="M27.5574 26.2139L100.966 64.6709V73.6442L27.5574 35.1872V26.2139Z" fill="#F99750"/>
<path d="M16.4346 0.575928L47.5778 28.7777V36.4691L16.4346 9.54923V0.575928Z" fill="#F99750"/>
</svg>
