<svg width="71" height="71" viewBox="0 0 71 71" fill="none" xmlns="http://www.w3.org/2000/svg">
<circle cx="35.5" cy="35.5" r="32.6252" transform="rotate(5.30134 35.5 35.5)" fill="#76DADE"/>
<path d="M40.0152 24.2049C33.1511 21.3148 29.2976 24.807 26.287 26.3725C24.842 14.4507 16.8941 15.5345 11.4751 19.1472C5.33358 24.2049 8.46455 30.226 11.4751 33.9591C9.30748 38.2943 6.41735 43.6411 10.7525 52.0224C13.5555 57.4414 29.1304 58.855 39.6539 57.8027C50.492 56.7189 62.775 50.2161 64.9426 42.2682C66.6766 33.3088 61.2095 28.0584 57.356 26.3725C60.9687 19.1472 58.8011 14.4507 50.492 13.0056C40.0152 13.0056 39.2927 18.4246 40.0152 24.2049Z" fill="#CFECB4" stroke="#B0BBE6" stroke-width="3"/>
<ellipse cx="44.734" cy="22.7887" rx="1.44507" ry="2.1676" transform="rotate(-8.8322 44.734 22.7887)" fill="#5D4A4A"/>
<ellipse cx="21.8778" cy="26.3724" rx="1.44507" ry="2.1676" transform="rotate(-19.7887 21.8778 26.3724)" fill="#5D4A4A"/>
<path d="M35.263 28.0121L32.4635 28.7119C32.0183 28.8232 31.683 29.2318 31.8095 29.6728C32.1792 30.9613 33.4908 31.5578 34.9574 31.0689C36.2418 30.6408 36.4163 29.4595 36.2737 28.5821C36.1985 28.1194 35.7177 27.8984 35.263 28.0121Z" fill="#EE9684"/>
<ellipse cx="20.1455" cy="44.0746" rx="11.1993" ry="11.5605" fill="#F4E19D"/>
<path d="M64.6083 38.3804C64.6083 44.7651 59.5942 49.9409 53.409 49.9409C47.2238 49.9409 42.2097 44.7651 42.2097 38.3804C42.2097 31.9957 47.2238 26.8198 53.409 26.8198C59.5942 26.8198 64.6083 31.9957 64.6083 38.3804Z" fill="#F4E19D"/>
</svg>
