<svg width="42" height="52" viewBox="0 0 42 52" fill="none" xmlns="http://www.w3.org/2000/svg">
<path d="M9.35963 0C4.46452 0 0 7.46188 0 13.2454C0 16.0124 0.929165 21.4557 3.10477 25.8332H15.6372C17.7901 21.4557 18.7419 16.0124 18.7419 13.2454C18.7419 7.46188 14.2774 0 9.35963 0ZM9.38229 39.1692C12.9177 39.1692 14.8213 35.6538 14.8213 30.6641C14.8213 30.1878 14.776 29.4847 14.6853 28.9403H4.07927C3.98861 29.4847 3.94328 30.1878 3.94328 30.6641C3.94328 35.6538 5.84694 39.1692 9.38229 39.1692ZM36.8946 14.9011C32.2715 13.2227 25.5635 18.6887 23.5691 24.1321C22.6398 26.7403 21.6427 32.1836 22.1639 37.0372L33.9485 41.3239C37.4838 37.9445 40.2261 33.1815 41.1779 30.5279C43.1495 25.1074 41.5179 16.6021 36.8946 14.9011ZM23.5238 51.7116C26.8551 52.9135 29.8466 50.2601 31.5463 45.5878C31.7049 45.1342 31.8862 44.4539 32.0222 43.9094L22.0506 40.2579C21.7787 40.7569 21.4841 41.3919 21.3254 41.8455C19.6257 46.5404 20.2149 50.4867 23.5238 51.7116Z" fill="#76DADE"/>
</svg>
