<svg width="26" height="23" viewBox="0 0 26 23" fill="none" xmlns="http://www.w3.org/2000/svg">
<path d="M11.4372 1.79553C12.5723 0.832219 14.4542 0.769015 15.649 1.65407C16.8486 2.54265 16.9026 4.05108 15.7697 5.02323L7.1112 12.4531C5.74608 13.6245 3.38128 13.4611 2.33909 12.1233C1.61882 11.1988 1.77833 9.99258 2.72738 9.18716L11.4372 1.79553Z" fill="#84A9E0"/>
<rect width="5.32136" height="17.9108" rx="2.66068" transform="matrix(0.768428 -0.639937 0.79491 0.606727 0.072998 11.3167)" fill="#84A9E0"/>
<path d="M7.1167 11.0266C7.1167 9.89595 7.95045 8.9384 9.07039 8.78285L20.8491 7.14692C23.1046 6.83366 25.1167 8.58566 25.1167 10.8628C25.1167 13.0987 23.1732 14.8383 20.9509 14.5913L9.13186 13.2781C7.98463 13.1506 7.1167 12.1809 7.1167 11.0266Z" fill="#84A9E0"/>
</svg>
