<svg width="7" height="9" viewBox="0 0 7 9" fill="none" xmlns="http://www.w3.org/2000/svg">
<path id="Vector" d="M6.25049 3.05361C6.25049 1.36702 4.90747 0 3.25049 0C1.59351 0 0.250488 1.36702 0.250488 3.05361C0.250488 4.57595 1.34497 5.83819 2.77695 6.06906V6.75007H1.19807V7.71432H2.77695V9H3.72402V7.71432H5.3029V6.75007H3.72402V6.06906C5.15575 5.83819 6.25049 4.57621 6.25049 3.05361ZM1.19807 3.05361C1.19807 2.77924 1.25117 2.50754 1.35432 2.25405C1.45748 2.00056 1.60868 1.77023 1.79929 1.57622C1.9899 1.3822 2.21618 1.2283 2.46522 1.1233C2.71427 1.0183 2.98119 0.964258 3.25075 0.964258C3.52031 0.964258 3.78723 1.0183 4.03627 1.1233C4.28531 1.2283 4.5116 1.3822 4.70221 1.57622C4.89281 1.77023 5.04401 2.00056 5.14717 2.25405C5.25033 2.50754 5.30342 2.77924 5.30342 3.05361C5.30342 3.60775 5.08716 4.13918 4.70221 4.53101C4.31725 4.92284 3.79515 5.14297 3.25075 5.14297C2.70634 5.14297 2.18424 4.92284 1.79929 4.53101C1.41434 4.13918 1.19807 3.60775 1.19807 3.05361Z" fill="#1935A3"/>
</svg>
