<svg width="66" height="67" viewBox="0 0 66 67" fill="none" xmlns="http://www.w3.org/2000/svg">
<g id="&#228;&#184;&#170;&#228;&#186;&#186;&#229;&#155;&#190;&#231;&#137;&#135;&#228;&#191;&#161;&#230;&#129;&#175;">
<circle id="&#229;&#164;&#180;&#229;&#131;&#143;&#232;&#146;&#153;&#231;&#137;&#136;" cx="32.6252" cy="33.5" r="32.1252" fill="#76DADE" stroke="#51ADA8"/>
<g id="&#229;&#164;&#180;&#229;&#131;&#143;&#229;&#134;&#133;&#229;&#174;&#185;">
<path id="Vector 32" d="M37.1403 22.2049C30.2763 19.3148 26.4227 22.807 23.4122 24.3725C21.9671 12.4507 14.0192 13.5345 8.60023 17.1472C2.4587 22.2049 5.58967 28.226 8.60023 31.9591C6.4326 36.2943 3.54247 41.6411 7.87767 50.0224C10.6806 55.4414 26.2555 56.855 36.779 55.8027C47.6171 54.7189 59.9001 48.2161 62.0677 40.2682C63.8018 31.3088 58.3346 26.0584 54.4811 24.3725C58.0938 17.1472 55.9262 12.4507 47.6171 11.0056C37.1403 11.0056 36.4178 16.4246 37.1403 22.2049Z" fill="#CFECB4" stroke="#B0BBE6" stroke-width="3"/>
<ellipse id="Ellipse 5" cx="41.8591" cy="20.7887" rx="1.44507" ry="2.1676" transform="rotate(-8.8322 41.8591 20.7887)" fill="#5D4A4A"/>
<ellipse id="Ellipse 6" cx="19.003" cy="24.3724" rx="1.44507" ry="2.1676" transform="rotate(-19.7887 19.003 24.3724)" fill="#5D4A4A"/>
<path id="Vector 33" d="M32.388 26.0121L29.5885 26.7119C29.1434 26.8232 28.808 27.2318 28.9346 27.6728C29.3043 28.9613 30.6158 29.5578 32.0825 29.0689C33.3668 28.6408 33.5414 27.4595 33.3987 26.5821C33.3235 26.1194 32.8427 25.8984 32.388 26.0121Z" fill="#EE9684"/>
<ellipse id="Ellipse 7" cx="17.2706" cy="42.0746" rx="11.1993" ry="11.5605" fill="#F4E19D"/>
<path id="Ellipse 8" d="M61.7335 36.3804C61.7335 42.7651 56.7194 47.9409 50.5342 47.9409C44.349 47.9409 39.335 42.7651 39.335 36.3804C39.335 29.9957 44.349 24.8198 50.5342 24.8198C56.7194 24.8198 61.7335 29.9957 61.7335 36.3804Z" fill="#F4E19D"/>
</g>
</g>
</svg>
