<svg width="314" height="746" viewBox="0 0 314 746" fill="none" xmlns="http://www.w3.org/2000/svg">
<g filter="url(#filter0_d_862_782)">
<path d="M96.0686 264.933C95.3089 262.933 87.5221 259.766 83.7237 258.433L55.7103 274.933C55.3305 278.133 46.6891 282.599 42.4158 284.433C31.4004 284.433 28.33 289.433 28.1718 291.933C25.5129 295.533 33.3946 305.099 37.6678 309.433C37.9844 308.266 38.6174 306.733 38.6174 309.933C38.6174 313.133 32.9198 325.933 30.071 331.933H106.039V317.933C106.039 311.533 104.773 302.266 104.14 298.433C109.458 288.033 111.421 277.433 111.737 273.433C108.413 252.433 97.0182 267.433 96.0686 264.933Z" fill="#A8DD75" stroke="#304CBA" stroke-width="2" stroke-linejoin="round"/>
<path d="M108.065 229.433C109.49 232.599 114.712 237.633 124.208 232.433C123.575 230.766 122.689 227.033 124.208 225.433C124.549 226.867 125.633 229.433 125.633 229.433C126.644 230.189 128.258 229.433 128.957 229.433C128.323 231.099 126.488 234.033 124.208 232.433C121.201 237.099 113.098 245.033 104.742 239.433V224.433L108.065 229.433Z" fill="#FCF2AA"/>
<path d="M124.208 232.433C114.712 237.633 109.49 232.599 108.065 229.433L104.742 224.433V239.433C113.098 245.033 121.201 237.099 124.208 232.433ZM124.208 232.433C123.575 230.766 122.689 227.033 124.208 225.433C124.549 226.867 125.633 229.433 125.633 229.433C126.644 230.189 128.258 229.433 128.957 229.433C128.323 231.099 126.488 234.033 124.208 232.433Z" stroke="#304CBA" stroke-width="2" stroke-linejoin="round"/>
<path d="M26.9641 264.397C27.8766 267.742 27.1928 274.941 17.1573 276.984C16.5928 275.298 14.945 271.86 12.8688 271.596C13.5017 272.916 14.2919 275.582 14.2919 275.582C14.0259 276.808 12.3985 277.253 11.8944 277.698C13.3721 278.578 16.4935 279.667 17.1573 276.984C22.1853 278.662 32.8908 279.61 35.4879 269.979L26.2983 258.433L26.9641 264.397Z" fill="#FCF2AA"/>
<path d="M17.1573 276.984C27.1928 274.941 27.8766 267.742 26.9641 264.397L26.2983 258.433L35.4879 269.979C32.8908 279.61 22.1853 278.662 17.1573 276.984ZM17.1573 276.984C16.5928 275.298 14.945 271.86 12.8688 271.596C13.5017 272.916 14.2919 275.582 14.2919 275.582C14.0259 276.808 12.3985 277.253 11.8944 277.698C13.3721 278.578 16.4935 279.667 17.1573 276.984Z" stroke="#304CBA" stroke-width="2" stroke-linejoin="round"/>
<path d="M6.54776 150.335C5.60952 142.8 11.4991 138.337 20.0455 143.362C23.8116 145.576 28.2243 148.193 33.0161 151.06C38.4045 154.283 44.2723 157.822 50.2392 161.455C56.2397 165.11 62.3405 168.861 68.1551 172.485C76.0491 177.406 83.4155 182.094 89.2866 185.991C96.1502 190.546 100.97 194.021 102.201 195.522C102.201 195.522 27.4934 233.94 15.0711 241.86C13.7175 238.002 12.5786 233.164 11.6205 227.738C10.1529 219.427 9.10939 209.738 8.36748 200.085C7.89328 193.914 7.54232 187.758 7.28263 181.986C6.97014 175.039 6.78983 168.648 6.68605 163.455C6.52675 155.484 6.54776 150.335 6.54776 150.335Z" fill="#FFB762"/>
<path d="M6.68605 163.455C6.52675 155.484 6.54775 150.335 6.54775 150.335C5.60952 142.8 11.4991 138.337 20.0455 143.362C23.8116 145.576 28.2243 148.193 33.0161 151.06M6.68605 163.455C8.19098 158.502 15.5639 149.09 33.0161 151.06M6.68605 163.455C6.78983 168.648 6.97014 175.039 7.28263 181.986M33.0161 151.06C38.4045 154.283 44.2723 157.822 50.2392 161.455M7.28263 181.986C9.97717 174.923 22.3408 160.928 50.2392 161.455M7.28263 181.986C7.54232 187.758 7.89328 193.914 8.36748 200.085M50.2392 161.455C56.2397 165.11 62.3405 168.861 68.1551 172.485M8.36748 200.085C13.4773 191.228 32.5886 173.309 68.1551 172.485M8.36748 200.085C9.10939 209.738 10.1529 219.427 11.6205 227.738M68.1551 172.485C76.0491 177.406 83.4155 182.094 89.2866 185.991M11.6205 227.738C12.5786 233.164 13.7175 238.002 15.0711 241.86C27.4934 233.94 102.201 195.522 102.201 195.522C100.97 194.021 96.1502 190.546 89.2866 185.991M11.6205 227.738C16.4053 214.182 38.6374 186.853 89.2866 185.991" stroke="#304CBA" stroke-width="2" stroke-linejoin="round"/>
<path d="M32.9564 150.858C16.9713 148.695 8.33564 157.884 6.65472 162.729L7.52094 181.223C14.8655 163.893 39.0697 160.819 49.7871 161.281L32.9564 150.858Z" fill="#FDFFFE"/>
<path d="M88.5319 185.73L67.7352 172.543C36.5525 171.605 14.4883 190.012 8.34249 199.358L11.4012 227.768C26.1617 193.681 69.881 185.149 88.5319 185.73Z" fill="#FDFFFE"/>
<path d="M32.9564 150.858C16.9713 148.695 8.33564 157.884 6.65472 162.729L7.52094 181.223C14.8655 163.893 39.0697 160.819 49.7871 161.281L32.9564 150.858Z" stroke="#304CBA" stroke-width="2" stroke-linejoin="round"/>
<path d="M88.5319 185.73L67.7352 172.543C36.5525 171.605 14.4883 190.012 8.34249 199.358L11.4012 227.768C26.1617 193.681 69.881 185.149 88.5319 185.73Z" stroke="#304CBA" stroke-width="2" stroke-linejoin="round"/>
<path d="M96.2732 201.226C52.9711 187.226 32.1763 229.413 23.155 248.913C26.2932 264.853 34.9371 273.433 46.4204 274.933C58.5662 276.519 74.6689 272.459 83.455 268.433C96.673 260.886 103.872 250.433 105.296 239.433C106.066 233.488 105.296 224.433 103.872 218.933C101.972 208.933 98.444 205.674 96.2732 201.226Z" fill="#FDF4A0" stroke="#304CBA" stroke-width="2" stroke-linejoin="round"/>
<ellipse cx="83.775" cy="228" rx="17.0929" ry="18" fill="white" stroke="#304CBA" stroke-width="2" stroke-linejoin="round"/>
<ellipse cx="17.6886" cy="17.415" rx="17.6886" ry="17.415" transform="matrix(0.570971 0.82097 -0.791848 0.610719 50.58 218)" fill="white" stroke="#304CBA" stroke-width="2" stroke-linejoin="round"/>
<path d="M98.9686 231C98.9686 239.284 92.5913 246 84.7246 246C76.8578 246 70.4805 239.284 70.4805 231C70.4805 222.716 76.8578 216 84.7246 216C92.5913 216 98.9686 222.716 98.9686 231Z" fill="#304CBA"/>
<path d="M60.0525 237.7C64.2384 244.715 62.2321 253.974 55.5714 258.382C48.9107 262.79 40.1178 260.677 35.9319 253.663C31.7461 246.649 33.7524 237.389 40.4131 232.982C47.0738 228.574 55.8667 230.686 60.0525 237.7Z" fill="#304CBA"/>
<path d="M7.75128 238.959C0.453455 262.226 17.4613 262.441 27.4283 259.433C24.1047 251.433 22.2054 252.433 27.4283 246.433C35.4999 230.933 61.4915 221.092 67.3117 218.933C79.2921 213.329 92.4104 208.308 98.1739 210.933C103.138 213.193 104.742 219.933 105.691 223.933C127.532 211.433 114.008 193.387 102.351 189.877C50.4557 185.063 18.5629 220.573 7.75128 238.959Z" fill="#304CBA" stroke="#1935A3" stroke-width="2" stroke-linejoin="round"/>
<path d="M53.6102 274.933C46.3409 255.933 36.0424 257.433 27.3488 259.433C27.8236 263.433 33.0354 268.599 36.0424 270.933C42.4998 274.933 50.4448 275.266 53.6102 274.933Z" fill="#FC775B"/>
<path d="M105.296 234.433C105.296 241.933 102.922 251.933 95.2575 259.098C93.0417 252.431 92.7612 238.033 105.296 234.433Z" fill="#FC775B"/>
<path d="M53.6102 274.933C46.3409 255.933 36.0424 257.433 27.3488 259.433C27.8236 263.433 33.0354 268.599 36.0424 270.933C42.4998 274.933 50.4448 275.266 53.6102 274.933Z" stroke="#304CBA" stroke-width="2" stroke-linejoin="round"/>
<path d="M105.296 234.433C105.296 241.933 102.922 251.933 95.2575 259.098C93.0417 252.431 92.7612 238.033 105.296 234.433Z" stroke="#304CBA" stroke-width="2" stroke-linejoin="round"/>
<path d="M72.714 247.491L67.7422 250.109C67.4071 250.286 67.3822 250.756 67.6968 250.967L71.6032 253.585C71.8987 253.783 72.3006 253.618 72.3716 253.269L73.4369 248.033C73.521 247.62 73.0872 247.295 72.714 247.491Z" fill="#FBB884" stroke="#304CBA" stroke-width="2" stroke-linejoin="round"/>
</g>
<g filter="url(#filter1_d_862_782)">
<path fill-rule="evenodd" clip-rule="evenodd" d="M13.1416 304.483C7.97063 304.929 4 309.256 4 314.446V716.898C4 722.306 8.2994 726.734 13.705 726.894L294.395 735.176C300.148 735.346 304.856 730.637 304.685 724.884L291.814 291.074C291.643 285.333 286.682 280.915 280.96 281.408L13.1416 304.483ZM156 323.489C159.866 323.489 163 320.355 163 316.489C163 312.623 159.866 309.489 156 309.489C152.134 309.489 149 312.623 149 316.489C149 320.355 152.134 323.489 156 323.489Z" fill="#F9EDAC"/>
</g>
<path d="M264.9 663.813C261.62 669.683 258.172 672.589 256.59 673.74C255.007 674.891 254.541 676.042 254.757 676.761C256.138 680.905 255.764 683.236 255.404 683.883C253.851 688.89 253.894 691.724 254.109 692.515C258.598 698.903 267.489 699.349 271.374 698.774C281.192 694.313 282.092 685.466 281.733 683.236C278.97 677.193 278.424 674.388 278.496 673.74C277.805 666.662 275.762 662.446 274.827 661.223C270.683 658.116 266.482 661.655 264.9 663.813Z" fill="#65D1D1"/>
<path d="M268.675 677.696V686.005M268.675 716.757V694.313M268.675 694.313C267.956 694.241 265.74 693.493 262.632 691.076M268.675 694.313V692.587M261.769 677.696C263.424 679.998 267.121 684.882 268.675 686.005M268.675 686.005V692.587M268.675 692.587C269.754 691.148 272.3 687.451 273.854 684.17" stroke="#5AABAC" stroke-width="2"/>
<path d="M284.099 681.483C281.963 685.307 279.717 687.2 278.687 687.949C277.656 688.699 277.352 689.448 277.493 689.917C278.393 692.616 278.149 694.134 277.915 694.555C276.903 697.816 276.931 699.662 277.071 700.178C279.995 704.338 285.786 704.629 288.316 704.254C294.71 701.349 295.297 695.586 295.063 694.134C293.264 690.198 292.908 688.371 292.954 687.949C292.505 683.339 291.174 680.593 290.565 679.797C287.866 677.773 285.13 680.078 284.099 681.483Z" fill="#65D1D1"/>
<path d="M286.558 690.526V695.937M286.558 715.967V701.349M286.558 701.349C286.09 701.302 284.646 700.815 282.622 699.241M286.558 701.349V700.224M282.06 690.526C283.138 692.025 285.546 695.206 286.558 695.937M286.558 695.937V700.224M286.558 700.224C287.261 699.287 288.919 696.879 289.931 694.743" stroke="#5AABAC" stroke-width="2"/>
<circle cx="156" cy="317" r="7" fill="#D9D9D9" stroke="url(#paint0_linear_862_782)" stroke-width="2"/>
<g filter="url(#filter2_d_862_782)">
<path d="M156 5.5L156 312" stroke="#304CBA" stroke-width="3" stroke-linecap="round"/>
</g>
<defs>
<filter id="filter0_d_862_782" x="4.98254" y="140.225" width="133.974" height="202.708" filterUnits="userSpaceOnUse" color-interpolation-filters="sRGB">
<feFlood flood-opacity="0" result="BackgroundImageFix"/>
<feColorMatrix in="SourceAlpha" type="matrix" values="0 0 0 0 0 0 0 0 0 0 0 0 0 0 0 0 0 0 127 0" result="hardAlpha"/>
<feOffset dx="5" dy="6"/>
<feGaussianBlur stdDeviation="2"/>
<feComposite in2="hardAlpha" operator="out"/>
<feColorMatrix type="matrix" values="0 0 0 0 0 0 0 0 0 0 0 0 0 0 0 0 0 0 0.25 0"/>
<feBlend mode="normal" in2="BackgroundImageFix" result="effect1_dropShadow_862_782"/>
<feBlend mode="normal" in="SourceGraphic" in2="effect1_dropShadow_862_782" result="shape"/>
</filter>
<filter id="filter1_d_862_782" x="4" y="281.37" width="309.69" height="463.811" filterUnits="userSpaceOnUse" color-interpolation-filters="sRGB">
<feFlood flood-opacity="0" result="BackgroundImageFix"/>
<feColorMatrix in="SourceAlpha" type="matrix" values="0 0 0 0 0 0 0 0 0 0 0 0 0 0 0 0 0 0 127 0" result="hardAlpha"/>
<feOffset dx="5" dy="6"/>
<feGaussianBlur stdDeviation="2"/>
<feComposite in2="hardAlpha" operator="out"/>
<feColorMatrix type="matrix" values="0 0 0 0 0 0 0 0 0 0 0 0 0 0 0 0 0 0 0.25 0"/>
<feBlend mode="normal" in2="BackgroundImageFix" result="effect1_dropShadow_862_782"/>
<feBlend mode="normal" in="SourceGraphic" in2="effect1_dropShadow_862_782" result="shape"/>
</filter>
<filter id="filter2_d_862_782" x="154.5" y="0" width="12" height="317.5" filterUnits="userSpaceOnUse" color-interpolation-filters="sRGB">
<feFlood flood-opacity="0" result="BackgroundImageFix"/>
<feColorMatrix in="SourceAlpha" type="matrix" values="0 0 0 0 0 0 0 0 0 0 0 0 0 0 0 0 0 0 127 0" result="hardAlpha"/>
<feOffset dx="5"/>
<feGaussianBlur stdDeviation="2"/>
<feComposite in2="hardAlpha" operator="out"/>
<feColorMatrix type="matrix" values="0 0 0 0 0 0 0 0 0 0 0 0 0 0 0 0 0 0 0.25 0"/>
<feBlend mode="normal" in2="BackgroundImageFix" result="effect1_dropShadow_862_782"/>
<feBlend mode="normal" in="SourceGraphic" in2="effect1_dropShadow_862_782" result="shape"/>
</filter>
<linearGradient id="paint0_linear_862_782" x1="162.5" y1="312.5" x2="151" y2="322.5" gradientUnits="userSpaceOnUse">
<stop/>
<stop offset="0.583333" stop-color="white" stop-opacity="0.078125"/>
<stop offset="1" stop-color="white" stop-opacity="0"/>
</linearGradient>
</defs>
</svg>
